<?xml version="1.0" encoding="UTF-8"?>
<svg id="Capa_1" enable-background="new 0 0 511.999 511.999" version="1.1" viewBox="0 0 512 512" xml:space="preserve" xmlns="http://www.w3.org/2000/svg" xmlns:cc="http://creativecommons.org/ns#" xmlns:dc="http://purl.org/dc/elements/1.1/" xmlns:rdf="http://www.w3.org/1999/02/22-rdf-syntax-ns#">
<g id="g10" fill="#22313f">
	<path id="path2" d="m441.37 79.519-26.485 17.656-44.141-8.828-26.485-8.828-35.313 8.828-26.485-8.828 17.656-35.313h35.313l34.607-17.303c26.689 13.198 50.834 31.013 71.333 52.616z"/>
	<path id="path4" d="m238.32 44.206-8.828 26.485-26.485 8.828-26.485 44.141-44.141 26.485-61.797 8.828v26.485l17.656 17.656v35.313l-26.483-17.657-26.485-17.656-15.361-46.171c26.44-63.008 76.982-112.82 140.37-138.34l25.072 16.774 52.969 8.828z"/>
	<polygon id="polygon6" points="255.98 291.4 247.15 335.54 211.84 370.85 211.84 397.33 176.53 423.82 176.53 467.96 150.04 459.13 132.39 414.99 132.39 326.71 88.246 317.88 70.59 282.57 70.59 256.08 88.246 238.43 114.73 211.94 132.39 247.25 194.18 247.25 220.67 291.4"/>
	<path id="path8" d="m479.34 130.99c48.193 85.978 42.702 192-14.125 272.53l-23.836-23.836v-35.313l-35.312-70.626v-35.313l-26.485-17.656-35.313 8.828-61.797-26.485-8.828-61.797 26.485-26.485h52.969l17.656 26.485 52.969 8.828 52.969-17.656 2.648-1.5z"/>
</g>
<path id="path12" d="m308.95 88.347 35.313-8.828 26.485 8.828 44.141 8.828 26.485-17.656c14.787 15.476 27.544 32.77 37.961 51.468l-2.648 1.501-52.969 17.656-52.969-8.828-17.656-26.485h-52.969l-26.485 26.485 8.828 61.797 61.797 26.485 35.313-8.828 26.485 17.656v35.313l35.312 70.626v35.313l23.836 23.836c-81.528 115.53-241.28 143.08-356.79 61.55-98.108-69.249-134.91-197.37-88.503-308.12l15.361 46.171 52.97 35.312-17.657 17.657v26.485l17.656 35.313 44.141 8.828v88.282l17.656 44.141 26.485 8.828v-44.141l35.313-26.485v-26.485l35.313-35.313 8.828-44.141h-35.313l-26.485-44.141h-61.797l-17.656-35.313-26.485 26.485v-35.313l-17.656-17.655v-26.485l61.797-8.828 44.141-26.485 26.485-44.141 26.485-8.828 8.828-26.485-52.969-8.828-25.072-16.774c67.889-27.341 144.24-24.322 209.76 8.299l-34.607 17.303h-35.313l-17.656 35.313 26.484 8.829z" fill="#2196f3"/>















</svg>
