<?xml version="1.0" encoding="UTF-8" standalone="no"?>
<svg
   xmlns:dc="http://purl.org/dc/elements/1.1/"
   xmlns:cc="http://creativecommons.org/ns#"
   xmlns:rdf="http://www.w3.org/1999/02/22-rdf-syntax-ns#"
   xmlns:svg="http://www.w3.org/2000/svg"
   xmlns="http://www.w3.org/2000/svg"
   width="79.217377pt"
   height="151.19334pt"
   viewBox="0 0 79.217377 151.19334"
   version="1.1"
   id="svg102">
  <metadata
     id="metadata108">
    <rdf:RDF>
      <cc:Work
         rdf:about="">
        <dc:format>image/svg+xml</dc:format>
        <dc:type
           rdf:resource="http://purl.org/dc/dcmitype/StillImage" />
        <dc:title></dc:title>
      </cc:Work>
    </rdf:RDF>
  </metadata>
  <defs
     id="defs106" />
  <path
     fill="#44291e"
     stroke="#44291e"
     stroke-width="0.09375"
     opacity="1"
     d="m 35.8705,1.0235862 c 7.08,-1.18000002 14.29,-1.04000002 21.44,-0.85000002 5.88,0.35 11.98,0.69 17.35,3.36000002 0.06,0.83 0.13,1.66 0.19,2.49 1.02,25.9699998 -1.08,51.9099998 -2.23,77.8299998 -1.44,19.460004 -2.32,38.980004 -4.22,58.400004 -0.48,2.77 -3.71,3.34 -5.99,3.83 -12.19,2.13 -24.66,0.22 -36.64,-2.3 -1.71,-0.6 -3.17,-1.69 -4.66,-2.68 -0.29,-1.41 -0.6,-2.81 -0.95,-4.2 -0.54,-10.36 -0.19,-20.74 -0.02,-31.11 1.06,-8.630004 0.4,-17.380004 1.48,-26.010004 0.32,-5.34 0.26,-10.71 0.56,-16.05 0.93,-5.35 0.58,-10.81 0.73,-16.21 -0.02,-1.44 -0.04,-2.88 -0.08,-4.32 -5.53,0.02 -11.02,1.31 -16.5599999,0.78 -2.62,-1.62 -3.72,-4.61 -4.86,-7.3 -0.41,-1.96 -0.77999999,-3.93 -1.29999999,-5.86 -0.14,-4.09 -0.37,-9.26 3.25999999,-12.01 2.32,-0.81 4.88,-0.72 7.1699999,-1.68 6.86,-2.64 11.82,-8.2699998 17.24,-12.9799998 2.17,-2.07 5.25,-2.58 8.09,-3.13 m 6.23,5.37 c 2.57,0.76 5.25,0.27 7.87,0.09 0.02,-0.65 0.08,-1.94 0.11,-2.59 -2.54,0.1 -8.61,-1.5 -7.98,2.5 m 10.51,-2.5 c 0.01,0.63 0.01,1.89 0.01,2.52 2.78,0.03 6.2,1.84 8.44,-0.49 -1.43,-3.25 -5.66,-1.76 -8.45,-2.03 m -19.66,2.52 c -2.57,1.71 -6.16,3.7499998 -5.28,7.4199998 4.13,-2.19 7.29,-6.0299998 12.17,-6.7099998 0.05,-0.54 0.15,-1.64 0.2,-2.19 -2.46,-0.22 -4.99,0.1 -7.09,1.48 m 30.06,-1.4 c -0.05,0.57 -0.13,1.7 -0.18,2.27 2.44,1.12 4.95,2.11 7.61,2.56 0.14,-4.01 -4.35,-4.72 -7.43,-4.83 m -23,5.2299998 c -0.76,0.01 -2.3,0.02 -3.07,0.03 -1.71,1.31 -3.07,3.09 -2.42,5.37 -6.29,5.49 -14.24,8.64 -22.3,10.48 -0.06,3 1.03,6.71 4.42,7.31 4.52,0.07 8.71,-2.92 13.26,-2.11 3.82,1.36 5.45,5.68 5.41,9.46 0.52,16.82 -2.11,33.51 -2.54,50.29 -0.53,0.7 -1.59,2.09 -2.13,2.79 0.55,1.61 0.89,3.35 1.81,4.81 -1.09,7.640004 -1.37,15.370004 -1.42,23.080004 0.1,2.97 0.02,6.1 1.27,8.86 2.28,2.01 5.02,3.4 7.53,5.09 l -0.43,1.19 c 0.68,-0.81 1.39,-1.59 1.99,-2.47 3.61,0.19 7.33,0.41 10.83,-0.74 2.73,-0.84 6,-2.11 6.7,-5.23 2.11,-7.74 2.12,-15.83 3.18,-23.73 0.06,-2.05 0.68,-4.3 -0.05,-6.240004 -0.09,-2.23 -1.7,-3.78 -3.11,-5.3 3.32,-2.2 6.12,-5.52 4.95,-9.78 -1.63,-0.14 -3.26,-0.29 -4.89,-0.44 -1,2.29 -1.85,4.64 -2.57,7.03 -0.31,-2 -0.66,-4 -1,-6 2.6,-0.89 5.83,-1.14 7.51,-3.6 1.31,-1.4 0.58,-3.38 0.64,-5.06 -0.36,-0.22 -1.09,-0.66 -1.46,-0.88 4.18,-5.05 1.21,-11.79 2.38,-17.67 0.23,-13.66 1.01,-27.35 0.13,-41 0.1,-3.6 -3.87,-4.8 -6.61,-5.7999998 -5.79,-1.66 -12.43,-2.54 -18.01,0.2599998 m 28.07,2.25 c 0,2.19 0,4.38 0.01,6.57 0.68,0.37 2.04,1.12 2.72,1.5 0.34,-2.79 0.31,-5.61 0.11,-8.41 -0.95,0.12 -1.9,0.23 -2.84,0.34 m -48.79,7.4 c 3.25,-0.38 6.85,-2.38 7.07,-6.02 -3.18,0.49 -7.05,2.32 -7.07,6.02 m -9.6699999,0.58 c 0.09,0.98 0.18,1.97 0.29,2.96 2.4899999,-0.36 4.9799999,-0.81 7.4399999,-1.4 -0.1,-0.72 -0.3,-2.18 -0.4,-2.91 -2.44,0.49 -4.88,0.95 -7.3299999,1.35 m 58.2299999,10.02 c 1.45,0.43 3.91,0.58 3.8,-1.6 -0.15,-2.11 1.21,-6.11 -1.87,-6.49 l -0.31,-0.04 c -2.82,1.56 -1.15,5.5 -1.62,8.13 m -62.9199999,0.73 c 0.93,0.11 1.85,0.21 2.78,0.32 -0.31,-2.61 2.5499999,-6.63 -0.45,-8.15 -2.92,1.34 -2.04,5.22 -2.33,7.83 m 63.0899999,2.15 c -0.03,2.38 -0.07,4.76 -0.09,7.14 0.96,0.05 1.93,0.1 2.9,0.16 0.06,-2.54 0.09,-5.07 0.08,-7.6 -0.96,0.1 -1.92,0.2 -2.89,0.3 m -61.6799999,0.67 c 0.2,3.02 2.15,6.5 5.5099999,6.57 1.51,-2.55 -2.1099999,-4.34 -3.0899999,-6.48 -0.6,-0.02 -1.81,-0.06 -2.42,-0.09 m 18.1599999,1.07 c 0.28,1.43 0.87,2.75 1.86,3.84 0.68,1.79 1.94,2.97 3.93,3.02 -0.4,-1.85 0.11,-4.23 -1.44,-5.63 -1.12,-1.2 -2.89,-0.95 -4.35,-1.23 m -9.5,2.56 c -0.09,0.95 -0.17,1.91 -0.25,2.86 2.42,-0.31 4.76,-0.97 7.09,-1.65 0.13,-1 0.26,-2 0.39,-3 -2.45,0.41 -4.85,1.07 -7.23,1.79 m 52.89,5.64 c -0.12,2.72 -0.17,5.44 -0.11,8.16 0.95,-0.12 1.9,-0.25 2.85,-0.37 0.07,-2.56 0.12,-5.13 0.12,-7.69 -0.95,-0.04 -1.91,-0.07 -2.86,-0.1 m -40.1,0.98 c -0.09,2.71 -0.08,5.42 0.01,8.13 0.93,-0.08 1.87,-0.17 2.81,-0.25 0.03,-2.56 0.04,-5.13 0.01,-7.7 -0.94,-0.06 -1.89,-0.12 -2.83,-0.18 m 39.15,17.09 c 1.02,0.07 2.05,0.13 3.08,0.2 0.14,-2.87 0.14,-5.76 -0.27,-8.61 -3.75,1.24 -2.65,5.35 -2.81,8.41 m -39.12,-6.73 c -0.41,2.5 -0.75,5.02 -0.95,7.55 0.99,0.13 1.98,0.25 2.98,0.37 0.28,-2.36 0.56,-4.72 0.84,-7.08 -0.96,-0.28 -1.91,-0.56 -2.87,-0.84 m 39.05,9.54 c -0.08,2.7 -0.11,5.4 -0.04,8.1 0.92,-0.11 1.84,-0.21 2.77,-0.32 0.11,-2.58 0.19,-5.15 0.23,-7.73 -0.99,-0.02 -1.98,-0.04 -2.96,-0.05 m -40.02,1.03 c -0.09,2.62 -0.12,5.24 -0.07,7.87 0.53,0.06 1.6,0.19 2.13,0.25 0.83,-2.62 0.92,-5.38 0.92,-8.11 -1,-0.01 -1.99,-0.01 -2.98,-0.01 m 39.96,9.12 c -0.77,2.55 -0.88,5.22 -0.84,7.87 0.96,0.05 1.92,0.09 2.88,0.13 0.11,-2.62 0.15,-5.24 0.12,-7.86 -0.54,-0.03 -1.62,-0.11 -2.16,-0.14 m -40.69,1.28 c -0.14,2.54 -0.24,5.09 -0.29,7.64 0.96,-0.01 1.92,-0.02 2.88,-0.02 0.14,-2.63 0.22,-5.27 0.19,-7.9 -0.93,0.09 -1.86,0.18 -2.78,0.28 m 39.81,9.12 c 0.27,2.65 -2.01,7.28 1.27,8.47 2.45,-1.88 1.26,-5.34 1.64,-7.99 -0.73,-0.12 -2.18,-0.36 -2.91,-0.48 m -41.06,8.46 c 0.7,0.26 2.08,0.78 2.77,1.04 0.48,-2.54 0.87,-5.09 1.18,-7.65 -0.68,-0.34 -2.04,-1.02 -2.71,-1.36 -1.17,2.5 -1.2,5.27 -1.24,7.97 m -0.03,3.07 c -0.12,2.65 -0.17,5.310004 -0.13,7.970004 0.93,-0.1 1.88,-0.21 2.82,-0.31 0.09,-2.52 0.15,-5.040004 0.2,-7.560004 -0.97,-0.04 -1.93,-0.07 -2.89,-0.1 m 40.11,7.200004 c 0.65,-0.16 1.95,-0.47 2.6,-0.63 0.56,-2.58 0.35,-5.240004 0.29,-7.850004 -0.65,0.18 -1.95,0.54 -2.6,0.73 -0.48,2.55 -0.31,5.170004 -0.29,7.750004 m -40.87,3.14 c -0.12,2.6 -0.2,5.21 -0.22,7.81 0.96,-0.01 1.93,-0.02 2.89,-0.03 0.09,-2.67 0.13,-5.34 0.07,-8.01 -0.91,0.07 -1.83,0.15 -2.74,0.23 m 39.89,6.68 c 0.98,0.08 1.96,0.16 2.95,0.25 0.14,-2.88 0.2,-5.77 -0.14,-8.63 -3.6,1.19 -2.42,5.52 -2.81,8.38 m -0.1,2.81 c -0.18,2.54 -0.32,5.09 -0.41,7.64 1.04,-0.16 2.08,-0.32 3.11,-0.49 0.07,-2.32 0.14,-4.63 0.21,-6.94 -0.97,-0.07 -1.94,-0.14 -2.91,-0.21 m -39.7,9.31 c 0.62,-0.34 1.87,-1.02 2.49,-1.36 0.02,-2.23 0.03,-4.45 0.05,-6.68 -0.66,-0.14 -1.98,-0.43 -2.64,-0.58 -1.1,2.79 -1.35,5.9 0.1,8.62 m 38.9,0.96 c -0.24,2.7 -0.38,5.41 -0.33,8.13 0.95,-0.15 1.89,-0.29 2.84,-0.43 0.15,-2.58 0.26,-5.16 0.3,-7.73 -0.94,0 -1.88,0.02 -2.81,0.03 m -39.28,0.74 c -0.08,2.69 0.01,5.39 0.18,8.08 0.95,0.02 1.89,0.05 2.84,0.08 -0.05,-2.58 -0.13,-5.15 -0.22,-7.72 -0.93,-0.15 -1.87,-0.3 -2.8,-0.44 m 3.19,9.1 c -0.02,0.92 -0.03,1.85 -0.05,2.78 2.48,1.06 5.12,1.62 7.82,1.64 -0.02,-0.54 -0.07,-1.62 -0.1,-2.16 -2.48,-0.97 -5.03,-1.8 -7.67,-2.26 m 30.78,3.62 c 0.06,0.87 0.12,1.75 0.18,2.63 3.25,-0.34 7.02,-1.8 7.39,-5.53 -2.82,0.02 -5.12,1.75 -7.57,2.9 m -20.83,-0.57 c 0.1,0.93 0.19,1.86 0.28,2.8 2.6,0.19 5.2,0.31 7.81,0.37 -0.11,-0.96 -0.22,-1.91 -0.34,-2.87 -2.58,-0.15 -5.16,-0.27 -7.75,-0.3 m 10.56,0.95 c 0.14,0.96 0.28,1.92 0.42,2.88 2.3,0 4.6,0 6.89,-0.01 0.17,-0.97 0.33,-1.94 0.49,-2.91 -2.6,-0.03 -5.2,-0.01 -7.8,0.04 z"
     id="path4" />
  <path
     fill="#b7bcbf"
     stroke="#b7bcbf"
     stroke-width="0.09375"
     opacity="1"
     d="m 42.1005,6.3935862 c -0.63,-4 5.44,-2.4 7.98,-2.5 -0.03,0.65 -0.09,1.94 -0.11,2.59 -2.62,0.18 -5.3,0.67 -7.87,-0.09 z"
     id="path6" />
  <path
     fill="#b6bdbf"
     stroke="#b6bdbf"
     stroke-width="0.09375"
     opacity="1"
     d="m 52.6105,3.8935862 c 2.79,0.27 7.02,-1.22 8.45,2.03 -2.24,2.33 -5.66,0.52 -8.44,0.49 0,-0.63 0,-1.89 -0.01,-2.52 z"
     id="path8" />
  <path
     fill="#babbbc"
     stroke="#babbbc"
     stroke-width="0.09375"
     opacity="1"
     d="m 32.9505,6.4135862 c 2.1,-1.38 4.63,-1.7 7.09,-1.48 -0.05,0.55 -0.15,1.65 -0.2,2.19 -4.88,0.68 -8.04,4.5199998 -12.17,6.7099998 -0.88,-3.67 2.71,-5.7099998 5.28,-7.4199998 z"
     id="path10" />
  <path
     fill="#babbbb"
     stroke="#babbbb"
     stroke-width="0.09375"
     opacity="1"
     d="m 63.0105,5.0135862 c 3.08,0.11 7.57,0.82 7.43,4.83 -2.66,-0.45 -5.17,-1.44 -7.61,-2.56 0.05,-0.57 0.13,-1.7 0.18,-2.27 z"
     id="path12" />
  <path
     fill="#b1b2b1"
     stroke="#b1b2b1"
     stroke-width="0.09375"
     opacity="1"
     d="m 74.8505,6.0235862 c 5.26,0.94 4.02,6.9199998 4.32,10.7999998 -0.09,38.74 -3.17,77.39 -5.61,116.020004 -0.54,4.36 -0.64,8.77 -1.16,13.13 -0.2,3.11 -3.64,3.84 -6.13,4.36 -8.64,1.44 -17.48,0.74 -26.12,-0.35 -5.62,-0.94 -11.7,-1.62 -16.15,-5.56 l 1.77,-0.64 c 11.98,2.52 24.45,4.43 36.64,2.3 2.28,-0.49 5.51,-1.06 5.99,-3.83 1.9,-19.42 2.78,-38.94 4.22,-58.400004 1.15,-25.92 3.25,-51.86 2.23,-77.8299998 z"
     id="path14" />
  <path
     fill="#533831"
     stroke="#533831"
     stroke-width="0.09375"
     opacity="1"
     d="m 40.0105,10.243586 c 5.58,-2.7999998 12.22,-1.9199998 18.01,-0.2599998 2.74,0.9999998 6.71,2.1999998 6.61,5.7999998 0.88,13.65 0.1,27.34 -0.13,41 -1.17,5.88 1.8,12.62 -2.38,17.67 0.37,0.22 1.1,0.66 1.46,0.88 -1.69,0.1 -3.42,0 -5.07,0.42 -1.81,1.39 -3.04,3.35 -4.41,5.13 -0.1,-2.41 -0.22,-4.82 -0.34,-7.23 3.29,-0.37 7.56,0.18 9.66,-3.03 1.43,-1.77 -0.11,-4.37 -2.2,-4.62 -2.55,-0.49 -4.38,1.69 -6.2,3.08 -1.08,-2.7 -2.2,-5.62 -4.63,-7.4 -1.33,-0.62 -2.88,-0.5 -4.3,-0.72 -0.4,0.77 -1.18,2.31 -1.58,3.08 1.79,3.25 4.84,5.36 8.15,6.84 0.03,1.59 0.06,3.19 0.1,4.78 -1.78,-0.85 -3.52,-1.84 -5.44,-2.34 -1.62,0.25 -2.78,1.57 -4.13,2.36 1.92,3.78 5.73,5.44 9.7,6.1 0.55,2.17 1.08,4.33 1.64,6.5 -2.03,-0.81 -4.02,-2.09 -6.28,-2 -1.61,0.69 -2.84,2.24 -2.51,4.06 2.26,3.6 6.92,1.97 10.39,1.89 1.92,2.14 3.93,4.18 5.92,6.25 0.73,1.940004 0.11,4.190004 0.05,6.240004 -1.06,7.9 -1.07,15.99 -3.18,23.73 -0.7,3.12 -3.97,4.39 -6.7,5.23 -3.5,1.15 -7.22,0.93 -10.83,0.74 0.96,-1.55 1.84,-3.15 2.72,-4.74 3.52,0.02 7.13,-0.35 10.06,-2.49 -0.53,-1.46 -1.05,-2.92 -1.57,-4.38 -3.5,0.48 -6.79,1.83 -9.78,3.68 -1.1,-1.63 -2.18,-3.25 -3.26,-4.89 -1.52,0.68 -3.43,0.81 -4.57,2.15 -0.79,3.95 3.88,5.74 6.36,7.89 -0.51,1.35 -1.03,2.7 -1.52,4.06 -2.51,-1.69 -5.25,-3.08 -7.53,-5.09 -1.25,-2.76 -1.17,-5.89 -1.27,-8.86 0.05,-7.71 0.33,-15.44 1.42,-23.080004 2.73,2.100004 5.71,3.840004 8.62,5.670004 -0.69,-3.57 -0.58,-7.520004 -2.59,-10.690004 -1.2,-1.97 -3.72,-1.99 -5.71,-2.58 0.43,-16.78 3.06,-33.47 2.54,-50.29 0.04,-3.78 -1.59,-8.1 -5.41,-9.46 -4.55,-0.81 -8.74,2.18 -13.26,2.11 -3.39,-0.6 -4.48,-4.31 -4.42,-7.31 8.06,-1.84 16.01,-4.99 22.3,-10.48 2.79,3.72 7.16,5.9 9.63,9.92 -2.83,-0.39 -6.44,-3.55 -8.8,-0.75 -1.78,1.81 -0.27,4.65 1.91,5.2 2.86,0.59 5.8,0.44 8.7,0.53 -0.05,-0.81 -0.13,-2.43 -0.17,-3.25 2.43,-2.01 6.59,-3.65 6.24,-7.43 0.37,-2.66 -3.7,-3.49 -5.07,-1.58 -1.39,1.57 -2.47,3.37 -3.65,5.1 -0.02,-4.58 0,-9.53 -3.3,-13.14 m 6.83,21.84 c -0.45,-0.01 -1.35,-0.03 -1.8,-0.04 -0.04,1.9 -0.08,3.8 -0.1,5.71 -1.39,-3.6 -5.14,-6.77 -8.95,-4.29 0.02,0.81 0.07,2.43 0.1,3.24 1.19,1.24 2.36,2.49 3.47,3.81 l -2.36,-0.26 c -2.27,4.27 1.75,7.57 5.08,9.47 -1,1.64 -1.98,3.29 -2.86,5 2.25,-1.7 3.92,-3.99 5.3,-6.42 2.24,0.02 4.5,0.17 6.73,-0.16 1.59,-0.67 2.62,-2.15 3.84,-3.3 -1.62,-3.36 -6.2,-3.82 -8.28,-0.59 -1.62,-2.02 -0.87,-4.42 -0.08,-6.61 2.52,-0.64 5.27,-1.36 6.9,-3.58 0.36,-1.57 0.08,-3.19 0.04,-4.78 -2.79,-0.37 -5.27,0.59 -7.03,2.8 m 7.58,34.67 c 3.17,-3.48 7.22,-6.38 8.63,-11.11 -1.36,-1.6 -3.23,-4.37 -5.67,-2.82 -5.09,2.63 -3.09,9.37 -2.96,13.93 m -9.65,31.52 c -2.58,2.250004 -3.34,5.840004 -4.22,9.010004 -1.38,-1.03 -2.76,-2.05 -4.13,-3.08 -2.01,0.93 -5.97,2.59 -3.97,5.41 2.32,3.28 7.03,1.54 10.4,1.77 0.4,2.17 0.76,4.34 1.1,6.52 -2.6,-2.16 -5.47,-4.34 -9.07,-3.78 -0.25,1.68 -1.84,3.89 0.06,5.16 2.47,2.68 6.29,2.22 9.58,2.32 0.49,-0.97 0.98,-1.94 1.48,-2.91 2.47,-1.11 5.59,-2.04 6.53,-4.92 0.73,-1.32 0.24,-3.48 -1.43,-3.67 -2.74,-0.7 -4.91,1.64 -7.2,2.69 -0.04,-1.6 -0.08,-3.21 -0.11,-4.81 3.15,-2.38 7.3,-5.49 5.49,-10.000004 -1.51,0.07 -3.02,0.07 -4.51,0.29 z"
     id="path16"
     style="stroke:#533831;stroke-opacity:1;stroke-width:0.61874999;stroke-miterlimit:4;stroke-dasharray:none" />
  <path
     fill="#eb512c"
     stroke="#eb512c"
     stroke-width="0.09375"
     opacity="1"
     d="m 34.5205,15.643586 c -0.65,-2.28 0.71,-4.06 2.42,-5.37 0.77,-0.01 2.31,-0.02 3.07,-0.03 3.3,3.61 3.28,8.56 3.3,13.14 1.18,-1.73 2.26,-3.53 3.65,-5.1 1.37,-1.91 5.44,-1.08 5.07,1.58 0.35,3.78 -3.81,5.42 -6.24,7.43 0.04,0.82 0.12,2.44 0.17,3.25 -2.9,-0.09 -5.84,0.06 -8.7,-0.53 -2.18,-0.55 -3.69,-3.39 -1.91,-5.2 2.36,-2.8 5.97,0.36 8.8,0.75 -2.47,-4.02 -6.84,-6.2 -9.63,-9.92 z"
     id="path18" />
  <path
     fill="#b8bcb7"
     stroke="#b8bcb7"
     stroke-width="0.09375"
     opacity="1"
     d="m 68.0805,12.493586 c 0.94,-0.11 1.89,-0.22 2.84,-0.34 0.2,2.8 0.23,5.62 -0.11,8.41 -0.68,-0.38 -2.04,-1.13 -2.72,-1.5 -0.01,-2.19 -0.01,-4.38 -0.01,-6.57 z"
     id="path20" />
  <path
     fill="#bebdbb"
     stroke="#bebdbb"
     stroke-width="0.09375"
     opacity="1"
     d="m 19.2905,19.893586 c 0.02,-3.7 3.89,-5.53 7.07,-6.02 -0.22,3.64 -3.82,5.64 -7.07,6.02 z"
     id="path22" />
  <path
     fill="#b9bbbd"
     stroke="#b9bbbd"
     stroke-width="0.09375"
     opacity="1"
     d="m 9.6205001,20.473586 c 2.4499999,-0.4 4.8899999,-0.86 7.3299999,-1.35 0.1,0.73 0.3,2.19 0.4,2.91 -2.46,0.59 -4.95,1.04 -7.4399999,1.4 -0.11,-0.99 -0.2,-1.98 -0.29,-2.96 z"
     id="path24" />
  <path
     fill="#877d78"
     stroke="#877d78"
     stroke-width="0.09375"
     opacity="1"
     d="m 67.8505,30.493586 c 0.47,-2.63 -1.2,-6.57 1.62,-8.13 -0.32,2.33 -1.09,4.93 0.02,7.14 1.64,-1.62 0.45,-4.92 0.29,-7.1 3.08,0.38 1.72,4.38 1.87,6.49 0.11,2.18 -2.35,2.03 -3.8,1.6 z"
     id="path26" />
  <path
     fill="#babbbc"
     stroke="#babbbc"
     stroke-width="0.09375"
     opacity="1"
     d="m 69.4705,22.363586 0.31,0.04 c 0.16,2.18 1.35,5.48 -0.29,7.1 -1.11,-2.21 -0.34,-4.81 -0.02,-7.14 z"
     id="path28" />
  <path
     fill="#babbbd"
     stroke="#babbbd"
     stroke-width="0.09375"
     opacity="1"
     d="m 4.9305001,31.223586 c 0.29,-2.61 -0.59,-6.49 2.33,-7.83 2.9999999,1.52 0.14,5.54 0.45,8.15 -0.93,-0.11 -1.85,-0.21 -2.78,-0.32 z"
     id="path30" />
  <path
     fill="#ed502a"
     stroke="#ed502a"
     stroke-width="0.09375"
     opacity="1"
     d="m 46.8405,32.083586 c 1.76,-2.21 4.24,-3.17 7.03,-2.8 0.04,1.59 0.32,3.21 -0.04,4.78 -1.63,2.22 -4.38,2.94 -6.9,3.58 -0.79,2.19 -1.54,4.59 0.08,6.61 -0.79,0.15 -1.57,0.26 -2.37,0.34 0.62,-1.76 -0.14,-4.3 -2.4,-3.84 -0.9,-0.06 -1.79,-0.14 -2.68,-0.24 -1.11,-1.32 -2.28,-2.57 -3.47,-3.81 -0.03,-0.81 -0.08,-2.43 -0.1,-3.24 3.81,-2.48 7.56,0.69 8.95,4.29 0.02,-1.91 0.06,-3.81 0.1,-5.71 0.45,0.01 1.35,0.03 1.8,0.04 z"
     id="path32" />
  <path
     fill="#babdbb"
     stroke="#babdbb"
     stroke-width="0.09375"
     opacity="1"
     d="m 68.0205,33.373586 c 0.97,-0.1 1.93,-0.2 2.89,-0.3 0.01,2.53 -0.02,5.06 -0.08,7.6 -0.97,-0.06 -1.94,-0.11 -2.9,-0.16 0.02,-2.38 0.06,-4.76 0.09,-7.14 z"
     id="path34" />
  <path
     fill="#b9babc"
     stroke="#b9babc"
     stroke-width="0.09375"
     opacity="1"
     d="m 6.3405001,34.043586 c 0.61,0.03 1.82,0.07 2.42,0.09 0.98,2.14 4.5999999,3.93 3.0899999,6.48 -3.3599999,-0.07 -5.3099999,-3.55 -5.5099999,-6.57 z"
     id="path36" />
  <path
     fill="#b7b8b7"
     stroke="#b7b8b7"
     stroke-width="0.09375"
     opacity="1"
     d="m 24.5005,35.113586 c 1.46,0.28 3.23,0.03 4.35,1.23 1.55,1.4 1.04,3.78 1.44,5.63 -1.99,-0.05 -3.25,-1.23 -3.93,-3.02 -0.99,-1.09 -1.58,-2.41 -1.86,-3.84 z"
     id="path38" />
  <path
     fill="#b8babe"
     stroke="#b8babe"
     stroke-width="0.09375"
     opacity="1"
     d="m 15.0005,37.673586 c 2.38,-0.72 4.78,-1.38 7.23,-1.79 -0.13,1 -0.26,2 -0.39,3 -2.33,0.68 -4.67,1.34 -7.09,1.65 0.08,-0.95 0.16,-1.91 0.25,-2.86 z"
     id="path40" />
  <path
     fill="#eb512a"
     stroke="#eb512a"
     stroke-width="0.09375"
     opacity="1"
     d="m 42.2805,49.723586 c -3.33,-1.9 -7.35,-5.2 -5.08,-9.47 l 2.36,0.26 c 0.89,0.1 1.78,0.18 2.68,0.24 0.33,1.45 0.95,2.75 1.87,3.91 l 0.53,-0.07 c 0.8,-0.08 1.58,-0.19 2.37,-0.34 2.08,-3.23 6.66,-2.77 8.28,0.59 -1.22,1.15 -2.25,2.63 -3.84,3.3 -2.23,0.33 -4.49,0.18 -6.73,0.16 -1.38,2.43 -3.05,4.72 -5.3,6.42 0.88,-1.71 1.86,-3.36 2.86,-5 z"
     id="path42" />
  <path
     fill="#6d3e30"
     stroke="#6d3e30"
     stroke-width="0.09375"
     opacity="1"
     d="m 42.2405,40.753586 c 2.26,-0.46 3.02,2.08 2.4,3.84 l -0.53,0.07 c -0.92,-1.16 -1.54,-2.46 -1.87,-3.91 z"
     id="path44" />
  <path
     fill="#b2bbb5"
     stroke="#b2bbb5"
     stroke-width="0.09375"
     opacity="1"
     d="m 67.8905,43.313586 c 0.95,0.03 1.91,0.06 2.86,0.1 0,2.56 -0.05,5.13 -0.12,7.69 -0.95,0.12 -1.9,0.25 -2.85,0.37 -0.06,-2.72 -0.01,-5.44 0.11,-8.16 z"
     id="path46" />
  <path
     fill="#b2b1b2"
     stroke="#b2b1b2"
     stroke-width="0.09375"
     opacity="1"
     d="m 6.2705001,43.983586 c 5.5399999,0.53 11.0299999,-0.76 16.5599999,-0.78 0.04,1.44 0.06,2.88 0.08,4.32 -3.79,0.55 -7.63,1.22 -11.47,0.81 -2.5099999,-0.14 -3.7499999,-2.63 -5.1699999,-4.35 z"
     id="path48" />
  <path
     fill="#bbbbbc"
     stroke="#bbbbbc"
     stroke-width="0.09375"
     opacity="1"
     d="m 27.7905,44.293586 c 0.94,0.06 1.89,0.12 2.83,0.18 0.03,2.57 0.02,5.14 -0.01,7.7 -0.94,0.08 -1.88,0.17 -2.81,0.25 -0.09,-2.71 -0.1,-5.42 -0.01,-8.13 z"
     id="path50" />
  <path
     fill="#a78500"
     stroke="#a78500"
     stroke-width="0.09375"
     opacity="1"
     d="m 54.4205,66.753586 c -0.13,-4.56 -2.13,-11.3 2.96,-13.93 2.44,-1.55 4.31,1.22 5.67,2.82 -1.41,4.73 -5.46,7.63 -8.63,11.11 z"
     id="path52" />
  <path
     fill="#aea9a7"
     stroke="#aea9a7"
     stroke-width="0.09375"
     opacity="1"
     d="m 66.9405,61.383586 c 0.16,-3.06 -0.94,-7.17 2.81,-8.41 0.41,2.85 0.41,5.74 0.27,8.61 -1.03,-0.07 -2.06,-0.13 -3.08,-0.2 z"
     id="path54" />
  <path
     fill="#b9bbbb"
     stroke="#b9bbbb"
     stroke-width="0.09375"
     opacity="1"
     d="m 27.8205,54.653586 c 0.96,0.28 1.91,0.56 2.87,0.84 -0.28,2.36 -0.56,4.72 -0.84,7.08 -1,-0.12 -1.99,-0.24 -2.98,-0.37 0.2,-2.53 0.54,-5.05 0.95,-7.55 z"
     id="path56" />
  <path
     fill="#a98300"
     stroke="#a98300"
     stroke-width="0.09375"
     opacity="1"
     d="m 46.0905,60.963586 c 1.42,0.22 2.97,0.1 4.3,0.72 2.43,1.78 3.55,4.7 4.63,7.4 1.82,-1.39 3.65,-3.57 6.2,-3.08 2.09,0.25 3.63,2.85 2.2,4.62 -2.1,3.21 -6.37,2.66 -9.66,3.03 0.12,2.41 0.24,4.82 0.34,7.23 1.37,-1.78 2.6,-3.74 4.41,-5.13 1.65,-0.42 3.38,-0.32 5.07,-0.42 -0.06,1.68 0.67,3.66 -0.64,5.06 -1.68,2.46 -4.91,2.71 -7.51,3.6 0.34,2 0.69,4 1,6 0.72,-2.39 1.57,-4.74 2.57,-7.03 1.63,0.15 3.26,0.3 4.89,0.44 1.17,4.26 -1.63,7.58 -4.95,9.78 1.41,1.52 3.02,3.07 3.11,5.3 -1.99,-2.07 -4,-4.11 -5.92,-6.25 -3.47,0.08 -8.13,1.71 -10.39,-1.89 -0.33,-1.82 0.9,-3.37 2.51,-4.06 2.26,-0.09 4.25,1.19 6.28,2 -0.56,-2.17 -1.09,-4.33 -1.64,-6.5 -3.97,-0.66 -7.78,-2.32 -9.7,-6.1 1.35,-0.79 2.51,-2.11 4.13,-2.36 1.92,0.5 3.66,1.49 5.44,2.34 -0.04,-1.59 -0.07,-3.19 -0.1,-4.78 -3.31,-1.48 -6.36,-3.59 -8.15,-6.84 0.4,-0.77 1.18,-2.31 1.58,-3.08 z"
     id="path58" />
  <path
     fill="#b7b6b6"
     stroke="#b7b6b6"
     stroke-width="0.09375"
     opacity="1"
     d="m 66.8705,64.193586 c 0.98,0.01 1.97,0.03 2.96,0.05 -0.04,2.58 -0.12,5.15 -0.23,7.73 -0.93,0.11 -1.85,0.21 -2.77,0.32 -0.07,-2.7 -0.04,-5.4 0.04,-8.1 z"
     id="path60" />
  <path
     fill="#b7bbb9"
     stroke="#b7bbb9"
     stroke-width="0.09375"
     opacity="1"
     d="m 26.8505,65.223586 c 0.99,0 1.98,0 2.98,0.01 0,2.73 -0.09,5.49 -0.92,8.11 -0.53,-0.06 -1.6,-0.19 -2.13,-0.25 -0.05,-2.63 -0.02,-5.25 0.07,-7.87 z"
     id="path62" />
  <path
     fill="#bbbbbc"
     stroke="#bbbbbc"
     stroke-width="0.09375"
     opacity="1"
     d="m 66.8105,74.343586 c 0.54,0.03 1.62,0.11 2.16,0.14 0.03,2.62 -0.01,5.24 -0.12,7.86 -0.96,-0.04 -1.92,-0.08 -2.88,-0.13 -0.04,-2.65 0.07,-5.32 0.84,-7.87 z"
     id="path64" />
  <path
     fill="#b9bbb9"
     stroke="#b9bbb9"
     stroke-width="0.09375"
     opacity="1"
     d="m 26.1205,75.623586 c 0.92,-0.1 1.85,-0.19 2.78,-0.28 0.03,2.63 -0.05,5.27 -0.19,7.9 -0.96,0 -1.92,0.01 -2.88,0.02 0.05,-2.55 0.15,-5.1 0.29,-7.64 z"
     id="path66" />
  <path
     fill="#adaead"
     stroke="#adaead"
     stroke-width="0.09375"
     opacity="1"
     d="m 65.9305,84.743586 c 0.73,0.12 2.18,0.36 2.91,0.48 -0.38,2.65 0.81,6.11 -1.64,7.99 -3.28,-1.19 -1,-5.82 -1.27,-8.47 z"
     id="path68" />
  <path
     fill="#ababa8"
     stroke="#ababa8"
     stroke-width="0.09375"
     opacity="1"
     d="m 24.8705,93.203586 c 0.04,-2.7 0.07,-5.47 1.24,-7.97 0.67,0.34 2.03,1.02 2.71,1.36 -0.31,2.56 -0.7,5.11 -1.18,7.65 -0.69,-0.26 -2.07,-0.78 -2.77,-1.04 z"
     id="path70" />
  <path
     fill="#476c91"
     stroke="#476c91"
     stroke-width="0.09375"
     opacity="1"
     d="m 32.7705,91.073586 c 1.99,0.59 4.51,0.61 5.71,2.58 2.01,3.17 1.9,7.120004 2.59,10.690004 -2.91,-1.83 -5.89,-3.57 -8.62,-5.670004 -0.92,-1.46 -1.26,-3.2 -1.81,-4.81 0.54,-0.7 1.6,-2.09 2.13,-2.79 z"
     id="path72" />
  <path
     fill="#b7b7b7"
     stroke="#b7b7b7"
     stroke-width="0.09375"
     opacity="1"
     d="m 24.8405,96.273586 c 0.96,0.03 1.92,0.06 2.89,0.1 -0.05,2.52 -0.11,5.040004 -0.2,7.560004 -0.94,0.1 -1.89,0.21 -2.82,0.31 -0.04,-2.66 0.01,-5.320004 0.13,-7.970004 z"
     id="path74" />
  <path
     fill="#b6bcbc"
     stroke="#b6bcbc"
     stroke-width="0.09375"
     opacity="1"
     d="m 64.9505,103.47359 c -0.02,-2.58 -0.19,-5.200004 0.29,-7.750004 0.65,-0.19 1.95,-0.55 2.6,-0.73 0.06,2.61 0.27,5.270004 -0.29,7.850004 -0.65,0.16 -1.95,0.47 -2.6,0.63 z"
     id="path76" />
  <path
     fill="#456c8f"
     stroke="#456c8f"
     stroke-width="0.09375"
     opacity="1"
     d="m 44.7705,98.273586 c 1.49,-0.22 3,-0.22 4.51,-0.29 1.81,4.510004 -2.34,7.620004 -5.49,10.000004 0.03,1.6 0.07,3.21 0.11,4.81 2.29,-1.05 4.46,-3.39 7.2,-2.69 1.67,0.19 2.16,2.35 1.43,3.67 -0.94,2.88 -4.06,3.81 -6.53,4.92 -0.5,0.97 -0.99,1.94 -1.48,2.91 -3.29,-0.1 -7.11,0.36 -9.58,-2.32 -1.9,-1.27 -0.31,-3.48 -0.06,-5.16 3.6,-0.56 6.47,1.62 9.07,3.78 -0.34,-2.18 -0.7,-4.35 -1.1,-6.52 -3.37,-0.23 -8.08,1.51 -10.4,-1.77 -2,-2.82 1.96,-4.48 3.97,-5.41 1.37,1.03 2.75,2.05 4.13,3.08 0.88,-3.17 1.64,-6.76 4.22,-9.010004 z"
     id="path78" />
  <path
     fill="#b6bdbd"
     stroke="#b6bdbd"
     stroke-width="0.09375"
     opacity="1"
     d="m 24.0805,106.61359 c 0.91,-0.08 1.83,-0.16 2.74,-0.23 0.06,2.67 0.02,5.34 -0.07,8.01 -0.96,0.01 -1.93,0.02 -2.89,0.03 0.02,-2.6 0.1,-5.21 0.22,-7.81 z"
     id="path80" />
  <path
     fill="#b8bfc1"
     stroke="#b8bfc1"
     stroke-width="0.09375"
     opacity="1"
     d="m 63.9705,113.29359 c 0.39,-2.86 -0.79,-7.19 2.81,-8.38 0.34,2.86 0.28,5.75 0.14,8.63 -0.99,-0.09 -1.97,-0.17 -2.95,-0.25 z"
     id="path82" />
  <path
     fill="#b5babe"
     stroke="#b5babe"
     stroke-width="0.09375"
     opacity="1"
     d="m 63.8705,116.10359 c 0.97,0.07 1.94,0.14 2.91,0.21 -0.07,2.31 -0.14,4.62 -0.21,6.94 -1.03,0.17 -2.07,0.33 -3.11,0.49 0.09,-2.55 0.23,-5.1 0.41,-7.64 z"
     id="path84" />
  <path
     fill="#acafb1"
     stroke="#acafb1"
     stroke-width="0.09375"
     opacity="1"
     d="m 24.1705,125.41359 c -1.45,-2.72 -1.2,-5.83 -0.1,-8.62 0.66,0.15 1.98,0.44 2.64,0.58 -0.02,2.23 -0.03,4.45 -0.05,6.68 -0.62,0.34 -1.87,1.02 -2.49,1.36 z"
     id="path86" />
  <path
     fill="#466c91"
     stroke="#466c91"
     stroke-width="0.09375"
     opacity="1"
     d="m 34.9905,123.75359 c 1.14,-1.34 3.05,-1.47 4.57,-2.15 1.08,1.64 2.16,3.26 3.26,4.89 2.99,-1.85 6.28,-3.2 9.78,-3.68 0.52,1.46 1.04,2.92 1.57,4.38 -2.93,2.14 -6.54,2.51 -10.06,2.49 -0.88,1.59 -1.76,3.19 -2.72,4.74 -0.6,0.88 -1.31,1.66 -1.99,2.47 l 0.43,-1.19 c 0.49,-1.36 1.01,-2.71 1.52,-4.06 -2.48,-2.15 -7.15,-3.94 -6.36,-7.89 z"
     id="path88" />
  <path
     fill="#b7bcb8"
     stroke="#b7bcb8"
     stroke-width="0.09375"
     opacity="1"
     d="m 63.0705,126.37359 c 0.93,-0.01 1.87,-0.03 2.81,-0.03 -0.04,2.57 -0.15,5.15 -0.3,7.73 -0.95,0.14 -1.89,0.28 -2.84,0.43 -0.05,-2.72 0.09,-5.43 0.33,-8.13 z"
     id="path90" />
  <path
     fill="#bababb"
     stroke="#bababb"
     stroke-width="0.09375"
     opacity="1"
     d="m 23.7905,127.11359 c 0.93,0.14 1.87,0.29 2.8,0.44 0.09,2.57 0.17,5.14 0.22,7.72 -0.95,-0.03 -1.89,-0.06 -2.84,-0.08 -0.17,-2.69 -0.26,-5.39 -0.18,-8.08 z"
     id="path92" />
  <path
     fill="#b9bcb8"
     stroke="#b9bcb8"
     stroke-width="0.09375"
     opacity="1"
     d="m 26.9805,136.21359 c 2.64,0.46 5.19,1.29 7.67,2.26 0.03,0.54 0.08,1.62 0.1,2.16 -2.7,-0.02 -5.34,-0.58 -7.82,-1.64 0.02,-0.93 0.03,-1.86 0.05,-2.78 z"
     id="path94" />
  <path
     fill="#b8b9b8"
     stroke="#b8b9b8"
     stroke-width="0.09375"
     opacity="1"
     d="m 57.7605,139.83359 c 2.45,-1.15 4.75,-2.88 7.57,-2.9 -0.37,3.73 -4.14,5.19 -7.39,5.53 -0.06,-0.88 -0.12,-1.76 -0.18,-2.63 z"
     id="path96" />
  <path
     fill="#bababa"
     stroke="#bababa"
     stroke-width="0.09375"
     opacity="1"
     d="m 36.9305,139.26359 c 2.59,0.03 5.17,0.15 7.75,0.3 0.12,0.96 0.23,1.91 0.34,2.87 -2.61,-0.06 -5.21,-0.18 -7.81,-0.37 -0.09,-0.94 -0.18,-1.87 -0.28,-2.8 z"
     id="path98" />
  <path
     fill="#babdc0"
     stroke="#babdc0"
     stroke-width="0.09375"
     opacity="1"
     d="m 47.4905,140.21359 c 2.6,-0.05 5.2,-0.07 7.8,-0.04 -0.16,0.97 -0.32,1.94 -0.49,2.91 -2.29,0.01 -4.59,0.01 -6.89,0.01 -0.14,-0.96 -0.28,-1.92 -0.42,-2.88 z"
     id="path100" />
</svg>
