<?xml version="1.0" encoding="UTF-8" standalone="no"?>
<svg
   xmlns:dc="http://purl.org/dc/elements/1.1/"
   xmlns:cc="http://creativecommons.org/ns#"
   xmlns:rdf="http://www.w3.org/1999/02/22-rdf-syntax-ns#"
   xmlns:svg="http://www.w3.org/2000/svg"
   xmlns="http://www.w3.org/2000/svg"
   width="117.04244pt"
   height="143.52234pt"
   viewBox="0 0 117.04244 143.52234"
   version="1.1"
   id="svg158">
  <metadata
     id="metadata164">
    <rdf:RDF>
      <cc:Work
         rdf:about="">
        <dc:format>image/svg+xml</dc:format>
        <dc:type
           rdf:resource="http://purl.org/dc/dcmitype/StillImage" />
        <dc:title></dc:title>
      </cc:Work>
    </rdf:RDF>
  </metadata>
  <defs
     id="defs162" />
  <path
     fill="#b9baba"
     stroke="#b9baba"
     stroke-width="0.09375"
     opacity="1"
     d="m 3.5498555,2.4365493 c 2.73,-1.76000003 6.15,-1.77000003 9.2799995,-2.11000003 14.7,-0.71 29.45,-0.04 44.05,1.69000003 13.09,1.77 26.48,5.44 37.05,13.6899997 5.86,5.34 12.090005,11.05 14.430005,18.89 3.57,11.39 1.05,23.7 -2.76,34.69 -4.75,13.61 -14.710005,24.28 -23.630005,35.240001 9.81,0.08 19.390005,-2.26 29.090005,-3.31 0.69,1.07 1.37,2.14 2.05,3.22 0.97,0.47 1.94,0.95 2.91,1.43 1.51,7.87 1.01,15.96 0.22,23.88 -0.44,3.53 -0.64,7.2 -2.15,10.47 -1.36,2.06 -4.02,2.58 -6.28,2.93 -12.790005,1.08 -25.560005,-0.83 -38.340005,-1.02 -19.4,-1.25 -38.89,-0.83 -58.27,-1.92 -3.2499995,-2.51 -6.0699995,-6.13 -6.3199995,-10.38 -0.71,-6.58 -0.33,-13.32 1.21,-19.76 0.7,-3.47 3.77,-5.61 6.5399995,-7.42 8.39,-5.160001 17.47,-9.520001 24.64,-16.400001 8.13,-9.38 12.28,-22.14 11.62,-34.5 -0.64,-5.13 -1.56,-11.88 -7.16,-13.91 -11.43,-5.03 -23.58,0.54 -35.3299995,0.44 -1.82,-2.77 -4.7,-5.05 -5.26,-8.48 -1.21000004,-6.09 -1.35000004,-12.38 -0.74000004,-18.55 0.5,-3.0599997 1.00000004,-6.4199997 3.15000004,-8.8099997 m 8.4599995,2.45 c 0.01,0.69 0.03,2.07 0.04,2.76 2.3,-0.09 4.6,-0.15 6.87,-0.56 0.34,-0.93 0.64,-1.88 0.91,-2.83 -2.62,0.11 -5.22,0.32 -7.82,0.63 m 9.68,-0.68 c 0.33,0.91 0.69,1.8 1.09,2.68 2.84,0.57 5.72,0.01 8.4,-0.97 -2.35,-2.96 -6.26,-1.79 -9.49,-1.71 m 10.86,0.02 c -0.07,0.59 -0.21,1.77 -0.28,2.35 2.63,0.58 5.32,0.74 8.01,0.75 0,-0.99 0.01,-1.97 0.02,-2.95 -2.58,-0.11 -5.17,-0.17 -7.75,-0.15 m 10.41,0.49 c 0.03,0.68 0.09,2.04 0.11,2.73 2.53,0.19 5.05,0.41 7.58,0.59 -0.02,-0.74 -0.06,-2.23 -0.08,-2.98 -2.53,-0.14 -5.07,-0.25 -7.61,-0.34 M 4.9298555,13.426549 c 0.97,-0.05 1.93,-0.09 2.9,-0.14 0.94,-2.26 2.3899995,-4.4099997 2.5199995,-6.9199997 -3.9299995,-0.73 -4.6999995,4.2599997 -5.4199995,7.0599997 M 53.219855,5.6765493 c 0.05,0.64 0.14,1.93 0.19,2.57 2.31,0.38 4.62,0.92 6.98,0.93 0.5,-0.84 0.89,-1.74 1.3,-2.62 -2.79,-0.52 -5.63,-0.83 -8.47,-0.88 m 10.28,1.5 c -0.03,0.94 -0.05,1.88 -0.07,2.82 2.57,0.6899997 5.17,1.2899997 7.82,1.5899997 0.02,-0.62 0.07,-1.8599997 0.09,-2.4799997 -2.57,-0.8 -5.18,-1.48 -7.84,-1.93 m -47.38,2.17 c -6.3299995,1.1999997 -5.85,11.5299997 -0.67,13.8699997 4.28,0.04 8.39,-1.47 12.58,-2.15 3.66,1.48 7.46,2.62 11.39,3.07 l 0.01,-1.34 c 5.09,2.01 10.35,4.09 14.27,8.05 4.76,4.35 7.21,10.64 8.15,16.9 2.13,14.71 -1.61,30.34 -11.02,41.98 -2.31,0.93 -4.29,2.48 -6.21,4.03 0.4,0.04 1.19,0.13 1.59,0.17 -7.33,6.550001 -16,11.300001 -24.79,15.560001 -5.58,2.37 -7.79,11.48 -2.38,15.07 5.78,1.5 11.88,0.38 17.8,0.66 5.94,-0.31 12.11,0.96 17.84,-1.13 0.64,0.72 1.28,1.45 1.92,2.18 3.94,0.61 8,1.11 11.88,-0.12 2.68,0.01 5.37,0.24 8.06,0.06 0.16,-0.39 0.49,-1.18 0.65,-1.57 1.17,1.98 2.68,3.88 5.03,4.48 -1.23,-2.36 -2.78,-4.52 -4.02,-6.86 0.71,-0.23 2.13,-0.7 2.84,-0.94 1.1,3.4 3.02,6.93 6.52,8.35 -1.15,-2.58 -2.64,-4.98 -4.06,-7.41 0.44,-0.15 1.31,-0.46 1.75,-0.61 2.16,2.71 3.57,8.07 7.81,7.62 -1.93,-2.64 -3.96,-5.2 -5.87,-7.86 2.3,-2.83 6.82,-3.93 7.59,-7.8 -3.27,1.66 -6.3,3.74 -9.19,5.99 l -0.55,-0.61 c 1.82,-1.42 5.42,-2.35 4.94,-5.23 -3.57,1.26 -6.51,3.75 -9.45,6.05 l -0.41,-0.58 -0.64,-0.35 c 2.03,-1.65 4.41,-3 5.71,-5.37 -1.84,0.56 -3.7,1.17 -5.3,2.27 -3.84,-1.08 -7.81,-1.56 -11.74,-2.2 -3.11,-0.75 -6.33,-1.32 -9.53,-0.89 0.39,-0.25 1.17,-0.74 1.57,-0.99 -0.17,-2.32 -0.93,-4.88 0.47,-6.98 3.62,-6.190001 9.65,-10.440001 14.1,-15.990001 8.52,-8.92 15.8,-19.59 18.21,-31.89 2.06,-9.73 -0.52,-19.84 -5.38,-28.34 -0.75,-0.69 -1.64,-0.95 -2.66,-0.78 -4.23,0.14 -8.4,0.94 -12.61,1.29 l 0.27,-0.98 c -0.36,-0.41 -1.07,-1.24 -1.43,-1.65 3.82,-0.18 7.65,-0.45 11.47,-0.69 -0.07,-0.63 -0.22,-1.89 -0.29,-2.51 -0.18,0.01 -0.54,0.03 -0.73,0.04 -3.5,-5.35 -9.85,-7.45 -15.61,-9.38 l -0.46,0.38 c -2.49,-0.82 -5.2,-2.78 -7.89,-1.65 -6.05,-2.49 -12.69,-2.9799997 -19.16,-3.1299997 l -0.07,-0.49 c -0.44,0.16 -1.3,0.47 -1.74,0.63 -6.73,-1.62 -13.78,-1.27 -20.56,-0.23 m 57.49,0.8299997 c -0.07,0.95 -0.13,1.89 -0.2,2.83 2.35,0.98 4.72,1.92 7.14,2.74 -0.05,-1.05 -0.1,-2.1 -0.15,-3.15 -2.25,-0.85 -4.51,-1.67 -6.79,-2.42 m 8.99,5.3 c -0.07,0.45 -0.22,1.36 -0.29,1.81 2.24,1.79 4.62,3.44 7.4,4.26 0,-3.09 -2.79,-4.61 -4.87,-6.33 -0.56,0.06 -1.68,0.19 -2.24,0.26 m -78.2099995,0.76 c 0.36,2.82 -1.13,8.04 3.22,7.88 -0.06,-2.65 -0.17,-5.3 -0.3,-7.95 -0.97,0.02 -1.94,0.04 -2.92,0.07 m 85.9999995,6.58 c 0.35,2.88 3.1,4.79 4.67,7.05 3.21,-2.95 -1.22,-5.89 -2.7,-8.4 -0.49,0.34 -1.47,1.01 -1.97,1.35 m -74.09,3.35 c -0.02,0.62 -0.06,1.86 -0.09,2.48 2.94,-0.32 8.27,1.18 8.32,-3.26 -2.76,0.07 -5.5,0.38 -8.23,0.78 m 9.96,0.65 c 1.9,2.45 5.47,1.31 8.16,1.76 0.02,-0.66 0.05,-2 0.07,-2.66 -2.65,0.04 -6.86,-2.34 -8.23,0.9 m -20.0299995,-0.27 c -0.34,4.21 4.6399995,3.66 7.3999995,3.11 0,-0.62 0,-1.86 0,-2.47 -2.45,-0.28 -4.9299995,-1.2 -7.3999995,-0.64 m 30.5899995,0.3 c -0.26,3.76 3.88,4.7 6.7,5.56 0.2,-0.39 0.61,-1.18 0.82,-1.57 -1.18,-2.82 -4.95,-3.05 -7.52,-3.99 m 59.02,3.75 c 0.43,2.61 1.11,5.16 1.78,7.71 0.99,-0.01 1.97,-0.03 2.950005,-0.04 -0.720005,-3.02 -0.630005,-7.52 -4.730005,-7.67 m -49.89,1.13 c -0.53,3.82 3.2,7.44 7.02,6.69 -1.4,-3.09 -3.92,-5.41 -7.02,-6.69 m 6.13,8.6 c 0.53,2.76 1.17,5.55 2.61,7.99 0.48,-0.19 1.43,-0.57 1.9,-0.76 0.03,-2.49 -0.89,-4.82 -1.65,-7.14 -0.95,-0.03 -1.91,-0.06 -2.86,-0.09 m 46.24,0.6 c -0.04,2.59 -0.06,5.18 -0.07,7.77 1.01,-0.12 2.020005,-0.24 3.030005,-0.37 -0.01,-2.35 -0.03,-4.69 -0.06,-7.04 -0.97,-0.12 -1.930005,-0.24 -2.900005,-0.36 m -43.81,9.63 c -0.02,2.55 -0.03,5.09 -0.04,7.63 0.96,0.03 1.91,0.05 2.87,0.07 0.04,-2.61 0.04,-5.23 -0.01,-7.85 -0.94,0.05 -1.88,0.1 -2.82,0.15 m 43.21,0.86 c -0.52,2.86 -1.25,5.81 -0.22,8.67 2.690005,-2.15 2.890005,-5.63 3.050005,-8.78 -0.940005,0.04 -1.880005,0.07 -2.830005,0.11 m -43.84,9.63 c -0.42,2.46 -0.8,4.93 -1.12,7.41 0.65,0.02 1.97,0.06 2.62,0.09 0.61,-2.49 1.04,-5 1.34,-7.54 -0.71,0.01 -2.13,0.03 -2.84,0.04 m 41.38,0.83 c -0.89,2.3 -4.13,6.01 -0.51,7.42 1.3,-1.65 2.45,-3.52 2.81,-5.62 0.87,-1.68 -1.15,-4.2 -2.3,-1.8 m -46.28,16.24 c 0.65,0.07 1.96,0.22 2.61,0.29 1.21,-2.52 2.08,-5.19 2.3,-7.99 -3.78,0.5 -4.03,4.78 -4.91,7.7 m 38.64,-0.68 c 0.71,0.04 2.13,0.11 2.84,0.15 1.2,-2.41 4.72,-5.47 1.49,-7.84 -1.83,2.32 -3.36,4.89 -4.33,7.69 m -2.11,1.79 c -1.63,2.06 -3.24,4.24 -3.72,6.9 0.56,0.01 1.69,0.04 2.25,0.05 1.68,-2.02 3.34,-4.15 3.85,-6.8 -0.6,-0.04 -1.78,-0.12 -2.38,-0.15 m -38.24,0.86 c -1.41,2.16 -3.1,4.27 -3.54,6.9 3.82,1.24 5.04,-3.97 6.18,-6.64 -0.66,-0.07 -1.98,-0.2 -2.64,-0.26 m 32.03,7.27 c -1.32,1.65 -2.64,3.32 -3.96,4.98 0.02,0.46 0.04,1.38 0.06,1.84 0.51,0.07 1.54,0.21 2.06,0.28 1.77,-2.01 3.54,-4.13 4.23,-6.78 -0.6,-0.08 -1.79,-0.24 -2.39,-0.32 m -43.55,6.91 c 3.53,1.04 5.98,-2.03 7.87,-4.5 -0.44,-0.42 -1.32,-1.25 -1.76,-1.67 -2.51,1.52 -4.44,3.79 -6.11,6.17 m -8.25,6.090001 c 3.11,0.67 5.57,-1.340001 7.9,-3.040001 -0.03,-0.51 -0.1,-1.53 -0.14,-2.04 -0.59,-0.04 -1.77,-0.11 -2.37,-0.15 -2.01,1.5 -3.92,3.17 -5.39,5.230001 m 42.1,3.05 c 3.86,-0.13 4.42,-4.630001 6.02,-7.280001 -4.46,-1.28 -5.46,4.070001 -6.02,7.280001 m -50.73,0.37 c 0.51,0.86 0.85,1.87 1.71,2.47 2.2,-0.94 4.24,-2.21 6.29,-3.43 -0.24,-0.67 -0.71,-2.01 -0.95,-2.68 -2.35,1.22 -4.69,2.44 -7.05,3.64 m -8.05,7.76 c 2.72,0.82 4.51,-2.19 6.61,-3.41 -0.01,-0.61 -0.02,-1.83 -0.03,-2.45 -2.97,0.57 -6.62,2.36 -6.58,5.86 m 58.63,-6.59 c 0.08,3.79 3.14,6.59 6.83,6.71 0.04,-0.54 0.13,-1.63 0.17,-2.17 -2.17,-1.74 -4.25,-3.76 -7,-4.54 m 29.92,3.21 c -0.01,0.64 -0.04,1.93 -0.05,2.57 2.600005,-0.04 5.250005,-0.02 7.760005,-0.8 0.02,-0.63 0.05,-1.9 0.07,-2.53 -2.62,-0.13 -5.21,0.34 -7.780005,0.76 m -9.19,1.28 c -1.13,0.38 -1.57,1.25 -1.32,2.59 2.84,0.57 5.85,0.14 8.46,-1.1 -0.14,-3.54 -4.86,-1.7 -7.14,-1.49 m -11.75,0.63 c 0.02,0.57 0.05,1.71 0.07,2.28 2.7,0.47 5.45,0.59 8.16,0.14 -0.17,-0.95 -0.34,-1.9 -0.51,-2.84 -2.57,0.09 -5.15,0.21 -7.72,0.42 m 29.010005,0.1 c -0.15,2.87 -0.22,5.73 -0.19,8.6 0.66,-0.22 1.98,-0.66 2.65,-0.89 0.22,-2.74 1.85,-7.73 -2.46,-7.71 m -98.1000045,3.91 c -0.39,2.46 -0.71,4.94 -0.98,7.42 0.95,0.03 1.9099995,0.07 2.8599995,0.11 0.3,-2.41 0.63,-4.81 0.98,-7.21 -0.95,-0.11 -1.91,-0.22 -2.8599995,-0.32 m 81.6999995,7.74 c 1.69,3.49 4.44,6.59 8,8.24 -1.06,-3.39 -3.99,-5.62 -6.14,-8.29 1.99,-2.09 4.06,-4.09 6.2,-6.01 -1.05,1.94 -2.35,3.78 -3.08,5.88 1.6,3.36 4.410005,5.98 7.390005,8.14 0.69,-4.11 -5.180005,-5.4 -5.080005,-9.1 1.890005,-2.44 4.510005,-4.17 6.470005,-6.54 -2.39,-1.46 -3.83,1.85 -5.570005,2.89 0.01,-0.87 0.01,-2.6 0.02,-3.47 -3.12,2.3 -6.56,4.6 -8.21,8.26 m 15.360005,-0.79 c -0.57,2.51 -1.06,5.03 -1.41,7.58 1,-0.14 1.99,-0.28 2.99,-0.41 0.41,-2.34 0.86,-4.67 1.31,-6.99 -0.96,-0.07 -1.93,-0.13 -2.89,-0.18 m -97.9300045,4.54 c 0.32,2.65 0.88,5.74 3.5499995,7.05 1.34,-2.97 -0.51,-6.05 -1.12,-8.96 -0.61,0.48 -1.8199995,1.43 -2.4299995,1.91 m 6.5699995,4.62 c 0.13,0.97 0.26,1.94 0.39,2.91 2.66,-0.2 5.7,0.54 8,-1.19 -1.14,-3.5 -5.65,-1.37 -8.39,-1.72 m 10.21,-0.3 c 0.17,0.94 0.34,1.89 0.61,2.81 2.53,0.35 5.08,0.03 7.61,-0.16 -0.01,-0.64 -0.03,-1.91 -0.05,-2.55 -2.72,-0.1 -5.45,-0.13 -8.17,-0.1 m 10.77,-0.04 c 0.01,0.7 0.03,2.08 0.03,2.78 2.52,0.02 5.04,0 7.56,-0.06 0.01,-0.69 0.03,-2.07 0.04,-2.76 -2.54,-0.08 -5.09,-0.05 -7.63,0.04 m 10.34,0.5 c -0.88,1.09 0.1,2.5 1.47,2.25 2.38,-0.02 6.27,1.16 6.94,-2.1 -2.55,-0.82 -6.22,-1.83 -8.41,-0.15 m 9.22,0.27 c 2.1,2.96 5.83,1.97 8.91,2.02 0.01,-0.66 0.02,-2 0.02,-2.66 -2.99,-0.36 -6.04,-0.34 -8.93,0.64 m 11.14,-0.54 c 0.22,4.68 6.61,3.15 9.45,1.8 -2.53,-2.54 -6.23,-1.82 -9.45,-1.8 m 10.41,0.42 c 0.15,0.65 0.47,1.95 0.62,2.6 2.44,0.74 5.03,0.5 7.55,0.55 0,-0.65 0.01,-1.95 0.02,-2.6 -2.73,-0.26 -5.46,-0.46 -8.19,-0.55 m 10.95,0.66 c 0.02,1.04 0.05,2.09 0.08,3.14 2.45,0.1 4.9,0.19 7.35,0.25 0.05,-0.67 0.16,-2.01 0.21,-2.68 -2.54,-0.29 -5.09,-0.51 -7.64,-0.71 m 10.13,1.08 c 0.02,0.6 0.05,1.8 0.07,2.4 2.510005,-0.08 5.020005,-0.38 7.430005,-1.11 -0.14,-1.05 -0.28,-2.1 -0.42,-3.15 -2.36,0.65 -4.71,1.26 -7.080005,1.86 z"
     id="path4" />
  <path
     fill="#533832"
     stroke="#533832"
     stroke-width="0.09375"
     opacity="1"
     d="m 12.009855,4.8865493 c 2.6,-0.31 5.2,-0.52 7.82,-0.63 -0.27,0.95 -0.57,1.9 -0.91,2.83 -2.27,0.41 -4.57,0.47 -6.87,0.56 -0.01,-0.69 -0.03,-2.07 -0.04,-2.76 z"
     id="path6" />
  <path
     fill="#533832"
     stroke="#533832"
     stroke-width="0.09375"
     opacity="1"
     d="m 21.689855,4.2065493 c 3.23,-0.08 7.14,-1.25 9.49,1.71 -2.68,0.98 -5.56,1.54 -8.4,0.97 -0.4,-0.88 -0.76,-1.77 -1.09,-2.68 z"
     id="path8" />
  <path
     fill="#533832"
     stroke="#533832"
     stroke-width="0.09375"
     opacity="1"
     d="m 32.549855,4.2265493 c 2.58,-0.02 5.17,0.04 7.75,0.15 -0.01,0.98 -0.02,1.96 -0.02,2.95 -2.69,-0.01 -5.38,-0.17 -8.01,-0.75 0.07,-0.58 0.21,-1.76 0.28,-2.35 z"
     id="path10" />
  <path
     fill="#533832"
     stroke="#533832"
     stroke-width="0.09375"
     opacity="1"
     d="m 42.959855,4.7165493 c 2.54,0.09 5.08,0.2 7.61,0.34 0.02,0.75 0.06,2.24 0.08,2.98 -2.53,-0.18 -5.05,-0.4 -7.58,-0.59 -0.02,-0.69 -0.08,-2.05 -0.11,-2.73 z"
     id="path12" />
  <path
     fill="#533832"
     stroke="#533832"
     stroke-width="0.09375"
     opacity="1"
     d="m 4.9298555,13.426549 c 0.72,-2.8 1.49,-7.7899997 5.4199995,-7.0599997 -0.13,2.51 -1.5799995,4.6599997 -2.5199995,6.9199997 -0.97,0.05 -1.93,0.09 -2.9,0.14 z"
     id="path14" />
  <path
     fill="#533832"
     stroke="#533832"
     stroke-width="0.09375"
     opacity="1"
     d="m 53.219855,5.6765493 c 2.84,0.05 5.68,0.36 8.47,0.88 -0.41,0.88 -0.8,1.78 -1.3,2.62 -2.36,-0.01 -4.67,-0.55 -6.98,-0.93 -0.05,-0.64 -0.14,-1.93 -0.19,-2.57 z"
     id="path16" />
  <path
     fill="#533832"
     stroke="#533832"
     stroke-width="0.09375"
     opacity="1"
     d="m 63.499855,7.1765493 c 2.66,0.45 5.27,1.13 7.84,1.93 -0.02,0.62 -0.07,1.8599997 -0.09,2.4799997 -2.65,-0.3 -5.25,-0.9 -7.82,-1.5899997 0.02,-0.94 0.04,-1.88 0.07,-2.82 z"
     id="path18" />
  <path
     fill="#d3d3d3"
     stroke="#d3d3d3"
     stroke-width="0.09375"
     opacity="1"
     d="m 16.119855,9.3465493 c 6.78,-1.04 13.83,-1.39 20.56,0.23 -5.75,2.3199997 -12.22,3.5699997 -16.8,8.0599997 2.68,1.22 5.4,2.37 8.15,3.43 -4.19,0.68 -8.3,2.19 -12.58,2.15 -5.18,-2.34 -5.6599995,-12.67 0.67,-13.8699997 z"
     id="path20" />
  <path
     fill="#fd8888"
     stroke="#fd8888"
     stroke-width="0.09375"
     opacity="1"
     d="m 36.679855,9.5765493 c 0.44,-0.16 1.3,-0.47 1.74,-0.63 l 0.07,0.49 c 0.31,2.2199997 0.66,4.4299997 0.83,6.6699997 0.03,0.72 0.08,2.16 0.11,2.88 0,0.95 0,2.85 0,3.81 l -0.01,1.34 c -3.93,-0.45 -7.73,-1.59 -11.39,-3.07 -2.75,-1.06 -5.47,-2.21 -8.15,-3.43 4.58,-4.49 11.05,-5.74 16.8,-8.0599997 z"
     id="path22" />
  <path
     fill="#d3d3d3"
     stroke="#d3d3d3"
     stroke-width="0.09375"
     opacity="1"
     d="m 38.489855,9.4365493 c 6.47,0.15 13.11,0.6399997 19.16,3.1299997 -2.43,1.58 -4.76,3.3 -7.13,4.96 -3.72,-0.53 -7.45,-1.04 -11.2,-1.42 -0.17,-2.24 -0.52,-4.45 -0.83,-6.6699997 z"
     id="path24" />
  <path
     fill="#533832"
     stroke="#533832"
     stroke-width="0.09375"
     opacity="1"
     d="m 73.609855,10.176549 c 2.28,0.75 4.54,1.57 6.79,2.42 0.05,1.05 0.1,2.1 0.15,3.15 -2.42,-0.82 -4.79,-1.76 -7.14,-2.74 0.07,-0.94 0.13,-1.88 0.2,-2.83 z"
     id="path26" />
  <path
     fill="#87c0c8"
     stroke="#87c0c8"
     stroke-width="0.09375"
     opacity="1"
     d="m 57.649855,12.566549 c 2.69,-1.13 5.4,0.83 7.89,1.65 -2.2,1.82 -4.43,3.61 -6.56,5.51 -0.13,0.11 -0.39,0.34 -0.51,0.46 -0.21,0.45 -0.61,1.35 -0.81,1.8 1.06,0.51 2.13,1.02 3.21,1.51 -0.44,-0.13 -1.33,-0.4 -1.77,-0.54 0.61,2.48 1.25,4.95 1.88,7.42 -2.1,-0.43 -4.47,-0.25 -6.36,-1.37 -2.31,-3.05 -3.1,-7.3 -6.58,-9.39 0.53,0.06 1.6,0.16 2.13,0.22 0.12,-0.77 0.23,-1.54 0.35,-2.31 2.37,-1.66 4.7,-3.38 7.13,-4.96 z"
     id="path28" />
  <path
     fill="#d3d3d3"
     stroke="#d3d3d3"
     stroke-width="0.09375"
     opacity="1"
     d="m 65.539855,14.216549 0.46,-0.38 c 5.76,1.93 12.11,4.03 15.61,9.38 -4.99,0.19 -10.04,0.89 -15.01,0.05 -2.52,-1.22 -5,-2.54 -7.62,-3.54 2.13,-1.9 4.36,-3.69 6.56,-5.51 z"
     id="path30" />
  <path
     fill="#533832"
     stroke="#533832"
     stroke-width="0.09375"
     opacity="1"
     d="m 82.599855,15.476549 c 0.56,-0.07 1.68,-0.2 2.24,-0.26 2.08,1.72 4.87,3.24 4.87,6.33 -2.78,-0.82 -5.16,-2.47 -7.4,-4.26 0.07,-0.45 0.22,-1.36 0.29,-1.81 z"
     id="path32" />
  <path
     fill="#533832"
     stroke="#533832"
     stroke-width="0.09375"
     opacity="1"
     d="m 4.3898555,16.236549 c 0.98,-0.03 1.95,-0.05 2.92,-0.07 0.13,2.65 0.24,5.3 0.3,7.95 -4.35,0.16 -2.86,-5.06 -3.22,-7.88 z"
     id="path34" />
  <path
     fill="#446691"
     stroke="#446691"
     stroke-width="0.09375"
     opacity="1"
     d="m 39.319855,16.106549 c 3.75,0.38 7.48,0.89 11.2,1.42 -0.12,0.77 -0.23,1.54 -0.35,2.31 -0.53,-0.06 -1.6,-0.16 -2.13,-0.22 -2.86,-0.3 -5.74,-0.46 -8.61,-0.63 -0.03,-0.72 -0.08,-2.16 -0.11,-2.88 z"
     id="path36" />
  <path
     fill="#d3d3d3"
     stroke="#d3d3d3"
     stroke-width="0.09375"
     opacity="1"
     d="m 39.429855,18.986549 c 2.87,0.17 5.75,0.33 8.61,0.63 3.48,2.09 4.27,6.34 6.58,9.39 1.89,1.12 4.26,0.94 6.36,1.37 -0.63,-2.47 -1.27,-4.94 -1.88,-7.42 0.44,0.14 1.33,0.41 1.77,0.54 1.77,0.75 3.53,1.55 5.28,2.36 -0.8,5.08 -1.03,10.24 -0.84,15.38 0.59,-0.4 1.78,-1.2 2.38,-1.6 0.71,-3.99 0.6,-8.08 0.74,-12.13 1.1,1.14 2.25,2.22 3.4,3.31 -1.02,4.65 -1.57,9.39 -1.87,14.13 4.4,-1.85 2.93,-7.65 4.15,-11.37 1.8,3.4 3.12,7.01 4.17,10.71 -3.94,3.67 -6.84,8.28 -9.72,12.79 2.86,0.49 5.72,0.97 8.59,1.36 l -0.22,0.62 c 4.19,-0.55 8.4,-0.71 12.62,-0.86 -2.31,-5.57 -6.2,-10.23 -9.12,-15.45 -1.03,-3.97 -2.22,-7.95 -4.57,-11.36 4.01,-0.43 8.06,-1.13 11.73,-2.89 4.86,8.5 7.44,18.61 5.38,28.34 -2.41,12.3 -9.69,22.97 -18.21,31.89 -4.45,5.55 -10.48,9.8 -14.1,15.990001 -1.4,2.1 -0.64,4.66 -0.47,6.98 -0.4,0.25 -1.18,0.74 -1.57,0.99 -2.37,1.44 -4.5,3.23 -6.59,5.04 -3.22,-0.58 -9.78,-0.99 -8.81,-5.65 2.74,-6.02 7.96,-10.43 11.94,-15.610001 1.15,2.44 2.14,4.950001 3.2,7.430001 2.86,-5.610001 4.74,-11.640001 6.15,-17.770001 3.64,-4.18 6.89,-8.68 10.06,-13.22 0.71,2.5 1.42,5.01 2.11,7.53 0.42,-0.03 1.26,-0.1 1.68,-0.13 1.34,-2.15 2.67,-4.31 3.98,-6.48 -1.4,-3.63 -2.77,-7.31 -3.26,-11.18 -4.09,0.53 -8.43,0.45 -12.22,2.26 -2.47,1.87 -3.11,5.17 -4.35,7.86 3.3,-0.49 6.57,-1.15 9.87,-1.6 -3.6,5.21 -7.18,10.49 -11.65,14.99 -3.34,1.08 -6.67,2.21 -9.9,3.57 9.41,-11.64 13.15,-27.27 11.02,-41.98 -0.94,-6.26 -3.39,-12.55 -8.15,-16.9 -3.92,-3.96 -9.18,-6.04 -14.27,-8.05 0,-0.96 0,-2.86 0,-3.81 z"
     id="path38" />
  <path
     fill="#446691"
     stroke="#446691"
     stroke-width="0.09375"
     opacity="1"
     d="m 58.469855,20.186549 c 0.12,-0.12 0.38,-0.35 0.51,-0.46 2.62,1 5.1,2.32 7.62,3.54 -0.11,0.65 -0.34,1.94 -0.45,2.59 -1.75,-0.81 -3.51,-1.61 -5.28,-2.36 -1.08,-0.49 -2.15,-1 -3.21,-1.51 0.2,-0.45 0.6,-1.35 0.81,-1.8 z"
     id="path40" />
  <path
     fill="#533832"
     stroke="#533832"
     stroke-width="0.09375"
     opacity="1"
     d="m 90.389855,22.816549 c 0.5,-0.34 1.48,-1.01 1.97,-1.35 1.48,2.51 5.91,5.45 2.7,8.4 -1.57,-2.26 -4.32,-4.17 -4.67,-7.05 z"
     id="path42" />
  <path
     fill="#b9980e"
     stroke="#b9980e"
     stroke-width="0.09375"
     opacity="1"
     d="m 66.599855,23.266549 c 4.97,0.84 10.02,0.14 15.01,-0.05 0.19,-0.01 0.55,-0.03 0.73,-0.04 0.07,0.62 0.22,1.88 0.29,2.51 -3.82,0.24 -7.65,0.51 -11.47,0.69 -0.93,0.05 -1.85,0.1 -2.77,0.15 l 0.04,0.98 c -0.14,4.05 -0.03,8.14 -0.74,12.13 -0.6,0.4 -1.79,1.2 -2.38,1.6 -0.19,-5.14 0.04,-10.3 0.84,-15.38 0.11,-0.65 0.34,-1.94 0.45,-2.59 z"
     id="path44" />
  <path
     fill="#533832"
     stroke="#533832"
     stroke-width="0.09375"
     opacity="1"
     d="m 16.299855,26.166549 c 2.73,-0.4 5.47,-0.71 8.23,-0.78 -0.05,4.44 -5.38,2.94 -8.32,3.26 0.03,-0.62 0.07,-1.86 0.09,-2.48 z"
     id="path46" />
  <path
     fill="#533832"
     stroke="#533832"
     stroke-width="0.09375"
     opacity="1"
     d="m 26.259855,26.816549 c 1.37,-3.24 5.58,-0.86 8.23,-0.9 -0.02,0.66 -0.05,2 -0.07,2.66 -2.69,-0.45 -6.26,0.69 -8.16,-1.76 z"
     id="path48" />
  <path
     fill="#533832"
     stroke="#533832"
     stroke-width="0.09375"
     opacity="1"
     d="m 6.2298555,26.546549 c 2.47,-0.56 4.9499995,0.36 7.3999995,0.64 0,0.61 0,1.85 0,2.47 -2.76,0.55 -7.7399995,1.1 -7.3999995,-3.11 z"
     id="path50" />
  <path
     fill="#446691"
     stroke="#446691"
     stroke-width="0.09375"
     opacity="1"
     d="m 68.389855,26.526549 c 0.92,-0.05 1.84,-0.1 2.77,-0.15 0.36,0.41 1.07,1.24 1.43,1.65 l -0.27,0.98 c -0.12,0.45 -0.36,1.36 -0.49,1.81 -1.15,-1.09 -2.3,-2.17 -3.4,-3.31 z"
     id="path52" />
  <path
     fill="#533832"
     stroke="#533832"
     stroke-width="0.09375"
     opacity="1"
     d="m 36.819855,26.846549 c 2.57,0.94 6.34,1.17 7.52,3.99 -0.21,0.39 -0.62,1.18 -0.82,1.57 -2.82,-0.86 -6.96,-1.8 -6.7,-5.56 z"
     id="path54" />
  <path
     fill="#b9980e"
     stroke="#b9980e"
     stroke-width="0.09375"
     opacity="1"
     d="m 72.319855,29.006549 c 4.21,-0.35 8.38,-1.15 12.61,-1.29 1.02,-0.17 1.91,0.09 2.66,0.78 -3.67,1.76 -7.72,2.46 -11.73,2.89 -0.37,0.02 -1.1,0.06 -1.47,0.08 -0.07,0.53 -0.21,1.58 -0.28,2.11 -1.22,3.72 0.25,9.52 -4.15,11.37 0.3,-4.74 0.85,-9.48 1.87,-14.13 0.13,-0.45 0.37,-1.36 0.49,-1.81 z"
     id="path56" />
  <path
     fill="#533832"
     stroke="#533832"
     stroke-width="0.09375"
     opacity="1"
     d="m 95.839855,30.596549 c 4.1,0.15 4.01,4.65 4.730005,7.67 -0.980005,0.01 -1.960005,0.03 -2.950005,0.04 -0.67,-2.55 -1.35,-5.1 -1.78,-7.71 z"
     id="path58" />
  <path
     fill="#533832"
     stroke="#533832"
     stroke-width="0.09375"
     opacity="1"
     d="m 45.949855,31.726549 c 3.1,1.28 5.62,3.6 7.02,6.69 -3.82,0.75 -7.55,-2.87 -7.02,-6.69 z"
     id="path60" />
  <path
     fill="#446691"
     stroke="#446691"
     stroke-width="0.09375"
     opacity="1"
     d="m 74.389855,31.466549 c 0.37,-0.02 1.1,-0.06 1.47,-0.08 2.35,3.41 3.54,7.39 4.57,11.36 -0.54,0.38 -1.61,1.15 -2.15,1.54 -1.05,-3.7 -2.37,-7.31 -4.17,-10.71 0.07,-0.53 0.21,-1.58 0.28,-2.11 z"
     id="path62" />
  <path
     fill="#533832"
     stroke="#533832"
     stroke-width="0.09375"
     opacity="1"
     d="m 52.079855,40.326549 c 0.95,0.03 1.91,0.06 2.86,0.09 0.76,2.32 1.68,4.65 1.65,7.14 -0.47,0.19 -1.42,0.57 -1.9,0.76 -1.44,-2.44 -2.08,-5.23 -2.61,-7.99 z"
     id="path64" />
  <path
     fill="#533832"
     stroke="#533832"
     stroke-width="0.09375"
     opacity="1"
     d="m 98.319855,40.926549 c 0.97,0.12 1.930005,0.24 2.900005,0.36 0.03,2.35 0.05,4.69 0.06,7.04 -1.01,0.13 -2.020005,0.25 -3.030005,0.37 0.01,-2.59 0.03,-5.18 0.07,-7.77 z"
     id="path66" />
  <path
     fill="#533832"
     stroke="#533832"
     stroke-width="0.09375"
     opacity="1"
     d="m 78.279855,44.286549 c 0.54,-0.39 1.61,-1.16 2.15,-1.54 2.92,5.22 6.81,9.88 9.12,15.45 -4.22,0.15 -8.43,0.31 -12.62,0.86 l 0.22,-0.62 c -2.87,-0.39 -5.73,-0.87 -8.59,-1.36 2.88,-4.51 5.78,-9.12 9.72,-12.79 z"
     id="path68" />
  <path
     fill="#533832"
     stroke="#533832"
     stroke-width="0.09375"
     opacity="1"
     d="m 54.509855,50.556549 c 0.94,-0.05 1.88,-0.1 2.82,-0.15 0.05,2.62 0.05,5.24 0.01,7.85 -0.96,-0.02 -1.91,-0.04 -2.87,-0.07 0.01,-2.54 0.02,-5.08 0.04,-7.63 z"
     id="path70" />
  <path
     fill="#533832"
     stroke="#533832"
     stroke-width="0.09375"
     opacity="1"
     d="m 97.719855,51.416549 c 0.95,-0.04 1.89,-0.07 2.830005,-0.11 -0.16,3.15 -0.36,6.63 -3.050005,8.78 -1.03,-2.86 -0.3,-5.81 0.22,-8.67 z"
     id="path72" />
  <path
     fill="#533832"
     stroke="#533832"
     stroke-width="0.09375"
     opacity="1"
     d="m 53.879855,61.046549 c 0.71,-0.01 2.13,-0.03 2.84,-0.04 -0.3,2.54 -0.73,5.05 -1.34,7.54 -0.65,-0.03 -1.97,-0.07 -2.62,-0.09 0.32,-2.48 0.7,-4.95 1.12,-7.41 z"
     id="path74" />
  <path
     fill="#533832"
     stroke="#533832"
     stroke-width="0.09375"
     opacity="1"
     d="m 95.259855,61.876549 c 1.15,-2.4 3.17,0.12 2.3,1.8 -0.36,2.1 -1.51,3.97 -2.81,5.62 -3.62,-1.41 -0.38,-5.12 0.51,-7.42 z"
     id="path76" />
  <path
     fill="#b9980e"
     stroke="#b9980e"
     stroke-width="0.09375"
     opacity="1"
     d="m 66.859855,64.906549 c 3.79,-1.81 8.13,-1.73 12.22,-2.26 0.49,3.87 1.86,7.55 3.26,11.18 -1.31,2.17 -2.64,4.33 -3.98,6.48 -0.42,0.03 -1.26,0.1 -1.68,0.13 -0.69,-2.52 -1.4,-5.03 -2.11,-7.53 -0.13,-0.49 -0.41,-1.47 -0.54,-1.95 -0.42,0.05 -1.24,0.16 -1.65,0.21 -3.3,0.45 -6.57,1.11 -9.87,1.6 1.24,-2.69 1.88,-5.99 4.35,-7.86 z"
     id="path78" />
  <path
     fill="#533832"
     stroke="#533832"
     stroke-width="0.09375"
     opacity="1"
     d="m 48.979855,78.116549 c 0.88,-2.92 1.13,-7.2 4.91,-7.7 -0.22,2.8 -1.09,5.47 -2.3,7.99 -0.65,-0.07 -1.96,-0.22 -2.61,-0.29 z"
     id="path80" />
  <path
     fill="#446691"
     stroke="#446691"
     stroke-width="0.09375"
     opacity="1"
     d="m 72.379855,71.166549 c 0.41,-0.05 1.23,-0.16 1.65,-0.21 0.13,0.48 0.41,1.46 0.54,1.95 -3.17,4.54 -6.42,9.04 -10.06,13.22 -0.95,0.01 -2.84,0.02 -3.78,0.03 4.47,-4.5 8.05,-9.78 11.65,-14.99 z"
     id="path82" />
  <path
     fill="#533832"
     stroke="#533832"
     stroke-width="0.09375"
     opacity="1"
     d="m 87.619855,77.436549 c 0.97,-2.8 2.5,-5.37 4.33,-7.69 3.23,2.37 -0.29,5.43 -1.49,7.84 -0.71,-0.04 -2.13,-0.11 -2.84,-0.15 z"
     id="path84" />
  <path
     fill="#533832"
     stroke="#533832"
     stroke-width="0.09375"
     opacity="1"
     d="m 85.509855,79.226549 c 0.6,0.03 1.78,0.11 2.38,0.15 -0.51,2.65 -2.17,4.78 -3.85,6.8 -0.56,-0.01 -1.69,-0.04 -2.25,-0.05 0.48,-2.66 2.09,-4.84 3.72,-6.9 z"
     id="path86" />
  <path
     fill="#533832"
     stroke="#533832"
     stroke-width="0.09375"
     opacity="1"
     d="m 47.269855,80.086549 c 0.66,0.06 1.98,0.19 2.64,0.26 -1.14,2.67 -2.36,7.88 -6.18,6.64 0.44,-2.63 2.13,-4.74 3.54,-6.9 z"
     id="path88" />
  <path
     fill="#fd8888"
     stroke="#fd8888"
     stroke-width="0.09375"
     opacity="1"
     d="m 50.829855,89.726549 c 3.23,-1.36 6.56,-2.49 9.9,-3.57 0.94,-0.01 2.83,-0.02 3.78,-0.03 -1.41,6.13 -3.29,12.16 -6.15,17.770001 -1.06,-2.48 -2.05,-4.990001 -3.2,-7.430001 -0.63,-0.61 -1.29,-1.18 -1.99,-1.71 -2.31,-0.35 -4.64,-0.57 -6.96,-0.83 -0.4,-0.04 -1.19,-0.13 -1.59,-0.17 1.92,-1.55 3.9,-3.1 6.21,-4.03 z"
     id="path90" />
  <path
     fill="#533832"
     stroke="#533832"
     stroke-width="0.09375"
     opacity="1"
     d="m 79.299855,87.356549 c 0.6,0.08 1.79,0.24 2.39,0.32 -0.69,2.65 -2.46,4.77 -4.23,6.78 -0.52,-0.07 -1.55,-0.21 -2.06,-0.28 -0.02,-0.46 -0.04,-1.38 -0.06,-1.84 1.32,-1.66 2.64,-3.33 3.96,-4.98 z"
     id="path92" />
  <path
     fill="#533832"
     stroke="#533832"
     stroke-width="0.09375"
     opacity="1"
     d="m 35.749855,94.266549 c 1.67,-2.38 3.6,-4.65 6.11,-6.17 0.44,0.42 1.32,1.25 1.76,1.67 -1.89,2.47 -4.34,5.54 -7.87,4.5 z"
     id="path94" />
  <path
     fill="#533832"
     stroke="#533832"
     stroke-width="0.09375"
     opacity="1"
     d="m 27.499855,100.35655 c 1.47,-2.060001 3.38,-3.730001 5.39,-5.230001 0.6,0.04 1.78,0.11 2.37,0.15 0.04,0.51 0.11,1.53 0.14,2.04 -2.33,1.7 -4.79,3.710001 -7.9,3.040001 z"
     id="path96" />
  <path
     fill="#d3d3d3"
     stroke="#d3d3d3"
     stroke-width="0.09375"
     opacity="1"
     d="m 21.419855,109.48655 c 8.79,-4.26 17.46,-9.01 24.79,-15.560001 2.32,0.26 4.65,0.48 6.96,0.83 -3.84,4.63 -8.22,8.880001 -11.38,14.030001 -1.13,1.99 -2.38,4.65 -0.95,6.8 2.35,3.56 6.96,4.08 10.76,5.03 1.03,1.15 2.05,2.31 3.08,3.47 -5.73,2.09 -11.9,0.82 -17.84,1.13 -5.92,-0.28 -12.02,0.84 -17.8,-0.66 -5.41,-3.59 -3.2,-12.7 2.38,-15.07 z"
     id="path98" />
  <path
     fill="#446691"
     stroke="#446691"
     stroke-width="0.09375"
     opacity="1"
     d="m 53.169855,94.756549 c 0.7,0.53 1.36,1.1 1.99,1.71 -3.98,5.180001 -9.2,9.590001 -11.94,15.610001 -0.97,4.66 5.59,5.07 8.81,5.65 2.09,-1.81 4.22,-3.6 6.59,-5.04 3.2,-0.43 6.42,0.14 9.53,0.89 -1.59,1.78 -3.18,3.56 -4.75,5.35 4,0.15 8,0.26 12,0.29 -0.05,0.76 -0.09,1.53 -0.13,2.3 -4.12,-0.04 -8.24,-0.11 -12.36,-0.15 1.86,1.59 3.72,3.18 5.57,4.78 -3.88,1.23 -7.94,0.73 -11.88,0.12 -0.64,-0.73 -1.28,-1.46 -1.92,-2.18 -1.03,-1.16 -2.05,-2.32 -3.08,-3.47 -3.8,-0.95 -8.41,-1.47 -10.76,-5.03 -1.43,-2.15 -0.18,-4.81 0.95,-6.8 3.16,-5.15 7.54,-9.400001 11.38,-14.030001 z"
     id="path100" />
  <path
     fill="#533832"
     stroke="#533832"
     stroke-width="0.09375"
     opacity="1"
     d="m 69.599855,103.40655 c 0.56,-3.21 1.56,-8.560001 6.02,-7.280001 -1.6,2.65 -2.16,7.150001 -6.02,7.280001 z"
     id="path102" />
  <path
     fill="#533832"
     stroke="#533832"
     stroke-width="0.09375"
     opacity="1"
     d="m 18.869855,103.77655 c 2.36,-1.2 4.7,-2.42 7.05,-3.64 0.24,0.67 0.71,2.01 0.95,2.68 -2.05,1.22 -4.09,2.49 -6.29,3.43 -0.86,-0.6 -1.2,-1.61 -1.71,-2.47 z"
     id="path104" />
  <path
     fill="#533832"
     stroke="#533832"
     stroke-width="0.09375"
     opacity="1"
     d="m 10.819855,111.53655 c -0.04,-3.5 3.61,-5.29 6.58,-5.86 0.01,0.62 0.02,1.84 0.03,2.45 -2.1,1.22 -3.89,4.23 -6.61,3.41 z"
     id="path106" />
  <path
     fill="#533832"
     stroke="#533832"
     stroke-width="0.09375"
     opacity="1"
     d="m 69.449855,104.94655 c 2.75,0.78 4.83,2.8 7,4.54 -0.04,0.54 -0.13,1.63 -0.17,2.17 -3.69,-0.12 -6.75,-2.92 -6.83,-6.71 z"
     id="path108" />
  <path
     fill="#533832"
     stroke="#533832"
     stroke-width="0.09375"
     opacity="1"
     d="m 99.369855,108.15655 c 2.570005,-0.42 5.160005,-0.89 7.780005,-0.76 -0.02,0.63 -0.05,1.9 -0.07,2.53 -2.51,0.78 -5.16,0.76 -7.760005,0.8 0.01,-0.64 0.04,-1.93 0.05,-2.57 z"
     id="path110" />
  <path
     fill="#533832"
     stroke="#533832"
     stroke-width="0.09375"
     opacity="1"
     d="m 90.179855,109.43655 c 2.28,-0.21 7,-2.05 7.14,1.49 -2.61,1.24 -5.62,1.67 -8.46,1.1 -0.25,-1.34 0.19,-2.21 1.32,-2.59 z"
     id="path112" />
  <path
     fill="#533832"
     stroke="#533832"
     stroke-width="0.09375"
     opacity="1"
     d="m 78.429855,110.06655 c 2.57,-0.21 5.15,-0.33 7.72,-0.42 0.17,0.94 0.34,1.89 0.51,2.84 -2.71,0.45 -5.46,0.33 -8.16,-0.14 -0.02,-0.57 -0.05,-1.71 -0.07,-2.28 z"
     id="path114" />
  <path
     fill="#533832"
     stroke="#533832"
     stroke-width="0.09375"
     opacity="1"
     d="m 107.43986,110.16655 c 4.31,-0.02 2.68,4.97 2.46,7.71 -0.67,0.23 -1.99,0.67 -2.65,0.89 -0.03,-2.87 0.04,-5.73 0.19,-8.6 z"
     id="path116" />
  <path
     fill="#533832"
     stroke="#533832"
     stroke-width="0.09375"
     opacity="1"
     d="m 9.3398555,114.07655 c 0.9499995,0.1 1.9099995,0.21 2.8599995,0.32 -0.35,2.4 -0.68,4.8 -0.98,7.21 -0.95,-0.04 -1.9099995,-0.08 -2.8599995,-0.11 0.27,-2.48 0.59,-4.96 0.98,-7.42 z"
     id="path118" />
  <path
     fill="#d3d3d3"
     stroke="#d3d3d3"
     stroke-width="0.09375"
     opacity="1"
     d="m 68.149855,113.57655 c 3.93,0.64 7.9,1.12 11.74,2.2 -1.53,1.1 -3.01,2.27 -4.49,3.44 -4,-0.03 -8,-0.14 -12,-0.29 1.57,-1.79 3.16,-3.57 4.75,-5.35 z"
     id="path120" />
  <path
     fill="#533832"
     stroke="#533832"
     stroke-width="0.09375"
     opacity="1"
     d="m 79.889855,115.77655 c 1.6,-1.1 3.46,-1.71 5.3,-2.27 -1.3,2.37 -3.68,3.72 -5.71,5.37 -0.33,0.16 -1,0.46 -1.34,0.61 -0.01,0.92 -0.01,1.85 0.06,2.77 1.24,2.34 2.79,4.5 4.02,6.86 -2.35,-0.6 -3.86,-2.5 -5.03,-4.48 -0.63,-1.05 -1.28,-2.08 -1.92,-3.12 0.04,-0.77 0.08,-1.54 0.13,-2.3 1.48,-1.17 2.96,-2.34 4.49,-3.44 z"
     id="path122" />
  <path
     fill="#533832"
     stroke="#533832"
     stroke-width="0.09375"
     opacity="1"
     d="m 80.529855,119.80655 c 2.94,-2.3 5.88,-4.79 9.45,-6.05 0.48,2.88 -3.12,3.81 -4.94,5.23 -1.37,0.33 -2.8,1.99 -1.54,3.27 1.42,2.43 2.91,4.83 4.06,7.41 -3.5,-1.42 -5.42,-4.95 -6.52,-8.35 -0.13,-0.38 -0.38,-1.13 -0.51,-1.51 z"
     id="path124" />
  <path
     fill="#533832"
     stroke="#533832"
     stroke-width="0.09375"
     opacity="1"
     d="m 85.589855,119.59655 c 2.89,-2.25 5.92,-4.33 9.19,-5.99 -0.77,3.87 -5.29,4.97 -7.59,7.8 1.91,2.66 3.94,5.22 5.87,7.86 -4.24,0.45 -5.65,-4.91 -7.81,-7.62 0.09,-0.52 0.26,-1.54 0.34,-2.05 z"
     id="path126" />
  <path
     fill="#533832"
     stroke="#533832"
     stroke-width="0.09375"
     opacity="1"
     d="m 91.039855,121.81655 c 1.65,-3.66 5.09,-5.96 8.21,-8.26 -0.01,0.87 -0.01,2.6 -0.02,3.47 1.740005,-1.04 3.180005,-4.35 5.570005,-2.89 -1.96,2.37 -4.58,4.1 -6.470005,6.54 -0.1,3.7 5.770005,4.99 5.080005,9.1 -2.98,-2.16 -5.790005,-4.78 -7.390005,-8.14 0.73,-2.1 2.03,-3.94 3.08,-5.88 -2.14,1.92 -4.21,3.92 -6.2,6.01 2.15,2.67 5.08,4.9 6.14,8.29 -3.56,-1.65 -6.31,-4.75 -8,-8.24 z"
     id="path128" />
  <path
     fill="#446691"
     stroke="#446691"
     stroke-width="0.09375"
     opacity="1"
     d="m 78.139855,119.48655 c 0.34,-0.15 1.01,-0.45 1.34,-0.61 l 0.64,0.35 0.41,0.58 c 0.13,0.38 0.38,1.13 0.51,1.51 -0.71,0.24 -2.13,0.71 -2.84,0.94 -0.07,-0.92 -0.07,-1.85 -0.06,-2.77 z"
     id="path130" />
  <path
     fill="#446691"
     stroke="#446691"
     stroke-width="0.09375"
     opacity="1"
     d="m 83.499855,122.25655 c -1.26,-1.28 0.17,-2.94 1.54,-3.27 l 0.55,0.61 c -0.08,0.51 -0.25,1.53 -0.34,2.05 -0.44,0.15 -1.31,0.46 -1.75,0.61 z"
     id="path132" />
  <path
     fill="#533832"
     stroke="#533832"
     stroke-width="0.09375"
     opacity="1"
     d="m 106.39986,121.02655 c 0.96,0.05 1.93,0.11 2.89,0.18 -0.45,2.32 -0.9,4.65 -1.31,6.99 -1,0.13 -1.99,0.27 -2.99,0.41 0.35,-2.55 0.84,-5.07 1.41,-7.58 z"
     id="path134" />
  <path
     fill="#d3d3d3"
     stroke="#d3d3d3"
     stroke-width="0.09375"
     opacity="1"
     d="m 62.909855,121.36655 c 4.12,0.04 8.24,0.11 12.36,0.15 0.64,1.04 1.29,2.07 1.92,3.12 -0.16,0.39 -0.49,1.18 -0.65,1.57 -2.69,0.18 -5.38,-0.05 -8.06,-0.06 -1.85,-1.6 -3.71,-3.19 -5.57,-4.78 z"
     id="path136" />
  <path
     fill="#533832"
     stroke="#533832"
     stroke-width="0.09375"
     opacity="1"
     d="m 8.4698555,125.56655 c 0.61,-0.48 1.8199995,-1.43 2.4299995,-1.91 0.61,2.91 2.46,5.99 1.12,8.96 -2.6699995,-1.31 -3.2299995,-4.4 -3.5499995,-7.05 z"
     id="path138" />
  <path
     fill="#533832"
     stroke="#533832"
     stroke-width="0.09375"
     opacity="1"
     d="m 15.039855,130.18655 c 2.74,0.35 7.25,-1.78 8.39,1.72 -2.3,1.73 -5.34,0.99 -8,1.19 -0.13,-0.97 -0.26,-1.94 -0.39,-2.91 z"
     id="path140" />
  <path
     fill="#533832"
     stroke="#533832"
     stroke-width="0.09375"
     opacity="1"
     d="m 25.249855,129.88655 c 2.72,-0.03 5.45,0 8.17,0.1 0.02,0.64 0.04,1.91 0.05,2.55 -2.53,0.19 -5.08,0.51 -7.61,0.16 -0.27,-0.92 -0.44,-1.87 -0.61,-2.81 z"
     id="path142" />
  <path
     fill="#533832"
     stroke="#533832"
     stroke-width="0.09375"
     opacity="1"
     d="m 36.019855,129.84655 c 2.54,-0.09 5.09,-0.12 7.63,-0.04 -0.01,0.69 -0.03,2.07 -0.04,2.76 -2.52,0.06 -5.04,0.08 -7.56,0.06 0,-0.7 -0.02,-2.08 -0.03,-2.78 z"
     id="path144" />
  <path
     fill="#533832"
     stroke="#533832"
     stroke-width="0.09375"
     opacity="1"
     d="m 46.359855,130.34655 c 2.19,-1.68 5.86,-0.67 8.41,0.15 -0.67,3.26 -4.56,2.08 -6.94,2.1 -1.37,0.25 -2.35,-1.16 -1.47,-2.25 z"
     id="path146" />
  <path
     fill="#533832"
     stroke="#533832"
     stroke-width="0.09375"
     opacity="1"
     d="m 55.579855,130.61655 c 2.89,-0.98 5.94,-1 8.93,-0.64 0,0.66 -0.01,2 -0.02,2.66 -3.08,-0.05 -6.81,0.94 -8.91,-2.02 z"
     id="path148" />
  <path
     fill="#533832"
     stroke="#533832"
     stroke-width="0.09375"
     opacity="1"
     d="m 66.719855,130.07655 c 3.22,-0.02 6.92,-0.74 9.45,1.8 -2.84,1.35 -9.23,2.88 -9.45,-1.8 z"
     id="path150" />
  <path
     fill="#533832"
     stroke="#533832"
     stroke-width="0.09375"
     opacity="1"
     d="m 77.129855,130.49655 c 2.73,0.09 5.46,0.29 8.19,0.55 -0.01,0.65 -0.02,1.95 -0.02,2.6 -2.52,-0.05 -5.11,0.19 -7.55,-0.55 -0.15,-0.65 -0.47,-1.95 -0.62,-2.6 z"
     id="path152" />
  <path
     fill="#533832"
     stroke="#533832"
     stroke-width="0.09375"
     opacity="1"
     d="m 88.079855,131.15655 c 2.55,0.2 5.1,0.42 7.64,0.71 -0.05,0.67 -0.16,2.01 -0.21,2.68 -2.45,-0.06 -4.9,-0.15 -7.35,-0.25 -0.03,-1.05 -0.06,-2.1 -0.08,-3.14 z"
     id="path154" />
  <path
     fill="#533832"
     stroke="#533832"
     stroke-width="0.09375"
     opacity="1"
     d="m 98.209855,132.23655 c 2.370005,-0.6 4.720005,-1.21 7.080005,-1.86 0.14,1.05 0.28,2.1 0.42,3.15 -2.41,0.73 -4.92,1.03 -7.430005,1.11 -0.02,-0.6 -0.05,-1.8 -0.07,-2.4 z"
     id="path156" />
</svg>
