<?xml version="1.0" encoding="UTF-8" standalone="no"?>
<svg
   xmlns:dc="http://purl.org/dc/elements/1.1/"
   xmlns:cc="http://creativecommons.org/ns#"
   xmlns:rdf="http://www.w3.org/1999/02/22-rdf-syntax-ns#"
   xmlns:svg="http://www.w3.org/2000/svg"
   xmlns="http://www.w3.org/2000/svg"
   width="103.84304pt"
   height="145.57782pt"
   viewBox="0 0 103.84304 145.57782"
   version="1.1"
   id="svg110">
  <metadata
     id="metadata116">
    <rdf:RDF>
      <cc:Work
         rdf:about="">
        <dc:format>image/svg+xml</dc:format>
        <dc:type
           rdf:resource="http://purl.org/dc/dcmitype/StillImage" />
        <dc:title></dc:title>
      </cc:Work>
    </rdf:RDF>
  </metadata>
  <defs
     id="defs114" />
  <path
     fill="#b18e09"
     stroke="#b18e09"
     stroke-width="0.09375"
     opacity="1"
     d="m 9.4908677,6.3053452 c 9.4600003,-3.15 19.2900003,-5.17 29.2200003,-6.02999999 8.24,-0.45 16.91,-0.58 24.56,2.99999999 8.56,4.02 16.63,9.6499998 22.25,17.3499998 3.87,5.74 6.98,12.23 7.43,19.23 0.66,6.84 -1.17,14.16 -6.1,19.13 -3.08,3.3 -7.46,5.19 -10.14,8.88 0.55,1.88 2.41,2.9 3.93,3.93 5.85,3.05 12.05,6.26 15.81,11.91 4.020002,9.59 4.280002,20.480005 1.64,30.470005 -2.39,8.75 -8.08,16.75 -16.14,21.11 -7.78,4.1 -16.67,5.38 -25.34,6.02 -15.32,0.63 -31.03,-0.35 -45.58,-5.56 -3.9100003,-2.15 -5.2700003,-6.8 -6.2700003,-10.85 -1.71,-8.05 -2.18,-16.49 -0.27,-24.55 12.2100003,-0.370005 24.4300003,5.67 36.5700003,1.82 5.17,-1.48 9.96,-7.010005 7.79,-12.580005 -4,-5.48 -10.67,-8.26 -17.2,-9.27 -4.76,-0.66 -9.27,1.32 -13.74,2.6 -1.75,-7.08 -0.03,-14.32 1.36,-21.3 2.93,-2.38 6.89,-2.15 10.42,-2.66 4.99,-0.79 10.25,-1.65 14.43,-4.71 2.08,-1.53 2.75,-4.29 2.05,-6.71 -4.01,-5.4 -10.99,-7.54 -17.48,-7.3 -8.49,-0.24 -16.55,2.73 -24.8100003,4.13 -0.89,0.12 -1.77,0.23 -2.66,0.33 -1.74999996,-5.58 -1.17999996,-11.53 -0.59999996,-17.25 0.81999996,-5.91 1.68999996,-11.96 4.23999996,-17.4 0.79,-1.9899998 2.65,-3.1699998 4.63,-3.7399998 m 24.2400003,-1.51 c 0.04,0.72 0.11,2.18 0.15,2.9 2.8,-0.41 6.85,1.1 8.47,-1.96 -1.91,-2.74 -5.82,-0.77 -8.62,-0.94 m 10.82,-0.23 c -0.28,0.9 -0.53,1.81 -0.75,2.73 2.95,0.17 5.91,0.25 8.86,0.17 -0.47,-3.92 -5.24,-3.44 -8.11,-2.9 m -21.75,3.44 c 2.5,1.68 5.55,0.48 8.29,0.33 0.11,-1.03 0.22,-2.06 0.33,-3.08 -2.91,0.5 -7.28,-0.64 -8.62,2.75 m 31.6,-2.47 c -1.09,3.05 2.51,3.43 4.52,4.15 1.16,0.5299998 4.43,0.5199998 3.27,-1.46 -1.64,-2.33 -5.12,-2.63 -7.79,-2.69 m -44.29,4.8099998 c -2.1400003,1.3 -2.4200003,4.04 -3.3000003,6.15 3.2900003,0.45 4.5600003,-2.89 6.2800003,-4.99 2.89,-0.97 8.64,0.21 8.18,-4.3099998 -3.95,-0.18 -7.78,1.22 -11.16,3.1499998 m 53.67,-1.3499998 c -0.1,3.7299998 3.88,4.8899998 6.33,6.7699998 0.44,-0.98 1.72,-2 0.82,-3.1 -1.78,-2.14 -4.59,-2.8999998 -7.15,-3.6699998 m 7.98,7.6799998 c 2.32,2.16 4.36,6.35 8.19,4.68 -1.53,-2.18 -3.19,-4.25 -4.88,-6.3 -1.21,0.32 -2.33,0.85 -3.31,1.62 m -65.7400003,1.58 c -0.65,2.21 -1.39,4.42 -1.63,6.73 0.04,1.58 1.76,1.49 2.84,1.97 0.62,-2.84 1.11,-5.72 1.32,-8.63 -0.63,-0.02 -1.9,-0.05 -2.53,-0.07 m 73.1900003,6.01 c 0.6,2.99 2.25,6.12 5.48,6.82 -0.32,-2.67 -0.86,-5.51 -2.81,-7.5 -1.06,-0.5 -2.27,-0.74 -2.67,0.68 m -75.2000003,6.55 c -0.38,2.92 1.13,6.19 4.5,6 -0.49,-2.51 -0.92,-5.06 -1.81,-7.47 -0.85,-1.86 -3.29,-0.09 -2.69,1.47 m 17.1500003,1.43 c -0.06,1.04 -0.12,2.08 -0.18,3.13 2.2,0.01 4.42,0.12 6.61,-0.12 1.46,-0.11 2.36,-2.1 0.69,-2.85 -2.36,-0.36 -4.75,-0.19 -7.12,-0.16 m -10.75,1.37 c 0.12,0.75 0.37,2.24 0.5,2.99 2.61,-0.29 5.21,-0.62 7.79,-1.05 -0.06,-1.08 -0.41,-2.05 -1.03,-2.9 -2.45,0.09 -4.85,0.57 -7.26,0.96 m 20.67,-0.21 c 0.22,3.77 5.49,2.78 8.19,3.27 -0.04,-0.61 -0.1,-1.83 -0.13,-2.44 -2.61,-0.45 -5.68,-2.72 -8.06,-0.83 m 53.91,7.09 c 0.65,0 1.95,0.01 2.59,0.02 -0.04,-3.33 0.13,-7.2 -3.32,-9 -0.54,3.02 -0.16,6.07 0.73,8.98 m -43.77,-4.7 c -0.07,0.69 -0.22,2.08 -0.29,2.78 2.04,1.28 5.48,5.97 7.28,2.28 -1.36,-2.78 -4.27,-4.03 -6.99,-5.06 m 6.91,8.96 c 0.56,2.52 1.71,4.87 2.62,7.28 3.77,-1.64 1.74,-5.87 -0.06,-8.29 -1.03,-1 -2.37,-0.31 -2.56,1.01 m 37.13,-1.61 c -0.28,2.34 -0.6,4.67 -0.95,6.99 0.68,0.22 2.04,0.67 2.71,0.89 0.74,-2.68 1.08,-5.44 1.11,-8.21 -0.72,0.09 -2.15,0.25 -2.87,0.33 m -34.99,10.14 c -1,2.34 -4.86,4.67 -3.05,7.29 3.58,0.01 5.08,-4.15 5.29,-7.16 -0.56,-0.03 -1.68,-0.09 -2.24,-0.13 m 28.56,6.51 c 2.57,-0.71 4.91,-2.28 6.07,-4.74 0.74,-1.28 0.02,-2.37 -1.24,-2.91 -2.57,1.78 -4.58,4.43 -4.83,7.65 m -41.62,0.53 c -0.09,1.11 -0.17,2.21 -0.25,3.32 2.73,-0.2 5.45,-0.61 8.12,-1.26 -0.02,-0.56 -0.05,-1.69 -0.07,-2.25 -2.6,-0.01 -5.2,0.07 -7.8,0.19 m -10.96,1.95 c -0.01,0.58 -0.02,1.75 -0.03,2.34 2.6,-0.14 5.2,-0.33 7.8,-0.51 0.15,-1.04 0.29,-2.09 0.43,-3.14 -2.79,0.01 -5.57,0.35 -8.2,1.31 m 46.8,-1.03 c -1.39,1.04 -4.37,2.54 -1.92,4.2 3.23,0.23 5.63,-2.9 7.58,-5.11 -1.91,-0.08 -4.06,-0.42 -5.66,0.91 m -8.42,5.98 c 0.96,1.82 2.02,3.58 3.16,5.3 0.69,-0.05 2.06,-0.13 2.75,-0.18 -0.54,-2.26 -1.22,-4.5 -2.08,-6.66 -1.46,-0.9 -2.63,1.01 -3.83,1.54 m -42.7,6.12 c 0.62,0.05 1.84,0.14 2.45,0.18 0.64,-2.87 1.13,-5.77 1.49,-8.69 -4.42,0.59 -4.01,5.17 -3.94,8.51 m 50.41,-0.82 c -0.22,0.59 -0.65,1.76 -0.86,2.34 2.5,1.49 5.07,2.86 7.77,3.95 0.86,-3.37 -2.64,-4.65 -4.79,-6.28 -0.53,-0.01 -1.59,-0.01 -2.12,-0.01 m -38.25,1.04 c -0.18,0.59 -0.55,1.76 -0.73,2.35 2.55,0.75 5.2,1.13 7.82,1.56 0.08,-1.12 0.15,-2.24 0.22,-3.36 -2.41,-0.4 -4.86,-0.8 -7.31,-0.55 m -10.9,1.95 c 0.08,0.93 0.17,1.86 0.25,2.79 2.6,-0.14 5.19,-0.49 7.74,-1.03 0.05,-1.06 0.1,-2.12 0.14,-3.18 -2.73,0.37 -5.43,0.88 -8.13,1.42 m 20.79,2.98 c 1.86,1.66 4.01,2.96 6.13,4.28 1.51,-3.35 -1.81,-5.64 -4.55,-6.63 -1.36,-0.31 -3.63,1.27 -1.58,2.35 m 36.58,-0.8 c 0.31,4.01 4.52,6.81 8.35,5.61 -2.07,-2.77 -4.82,-5.1 -8.35,-5.61 m -29.69,5.25 c 0.71,2.78 1.59,5.51 2.45,8.24 0.89,-0.43 1.76,-0.88 2.63,-1.35 -0.35,-2.92 -1.13,-7.45 -5.08,-6.89 m 38.16,2.19 c -0.37,2.86 1.62,5.54 3.48,7.54 3.08,-1.22 0.69,-4.55 -0.31,-6.42 -0.51,-0.83 -3.1,-3.49 -3.17,-1.12 m -35.28,7.46 c -1.44,2.4 -2.23,5.11 -3.03,7.770005 0.74,0.08 2.24,0.26 2.99,0.35 0.8,-2.410005 3.74,-6.940005 0.04,-8.120005 m 38.55,1.85 c 0.35,3.08 -0.83,7.800005 3.51,8.340005 -0.04,-2.860005 -0.24,-5.710005 -0.56,-8.540005 -0.98,0.06 -1.96,0.13 -2.95,0.2 m -49.13,13.350005 c 3.35,0.58 7.59,-1.5 7.97,-5.11 -3.35,-1.6 -6.53,2.4 -7.97,5.11 m 49.87,-3.51 c -0.77,2.7 -1.28,5.46 -1.51,8.25 0.71,0 2.14,0.01 2.85,0.01 0.67,-2.69 1.11,-5.42 1.07,-8.2 -0.6,-0.01 -1.8,-0.04 -2.41,-0.06 m -79.71,1.12 c 0.01,0.62 0.02,1.86 0.03,2.48 2.6,0.76 6.04,2.1 8.18,-0.34 2.7,3.06 6.89,2.87 10.63,2.67 -0.88,-4.84 -6.92,-2.85 -10.39,-3.34 -2.68,-1.03 -5.53,-1.99 -8.45,-1.47 m -5.2200003,9.86 c 0.93,-0.05 1.85,-0.1 2.7800003,-0.15 0.46,-2.88 0.88,-5.76 1.08,-8.67 -4.4400003,0.5 -3.6700003,5.58 -3.8600003,8.82 m 25.3200003,-4.75 c 3.02,-0.08 6.23,0.08 8.92,-1.53 -0.63,-3.25 -4.47,-2.03 -6.69,-1.59 -1.64,0.14 -1.75,1.91 -2.23,3.12 m 55.17,12.54 c 1.47,-1.97 3.42,-3.82 3.92,-6.32 0.47,-1.62 -0.16,-2.41 -1.87,-2.37 -1.66,2.49 -4.65,5.8 -2.05,8.69 m -80.7000003,-5.86 c 0.12,2.77 0.38,5.52 0.86,8.25 0.7,-0.03 2.0900003,-0.08 2.7800003,-0.1 -0.16,-2.58 -0.37,-5.15 -0.59,-7.73 -1.0200003,-0.14 -2.0300003,-0.28 -3.0500003,-0.42 m 71.8300003,12.5 c 3.46,-0.57 6.85,-2.7 7.68,-6.33 -3.6,-0.27 -7.24,2.72 -7.68,6.33 m -68.97,0.02 c 1.34,2.46 3.92,3.59 6.52,4.18 -0.02,-0.64 -0.07,-1.91 -0.09,-2.54 -1.58,-1.39 -3.13,-2.81 -4.64,-4.27 -0.77,0.6 -3.7500003,1.28 -1.79,2.63 m 59.74,1.6 c 0.45,1.1 0.34,2.9 2.01,2.77 2.46,-0.44 4.71,-1.69 6.62,-3.26 -1.63,-3.64 -5.95,0.05 -8.63,0.49 m -50.79,1.2 c -0.29,0.81 -0.55,1.62 -0.79,2.44 2.55,0.54 5.11,1.14 7.73,1.22 0.38,-0.92 0.73,-1.85 1.08,-2.79 -2.65,-0.43 -5.32,-1.28 -8.02,-0.87 m 39.74,2.33 c 2.55,2.44 6,0.98 9.01,0.65 -0.01,-1.11 -0.03,-2.22 -0.05,-3.33 -3.1,0.43 -6.23,1.05 -8.96,2.68 m -29.56,-0.74 c 0,0.62 -0.01,1.85 -0.01,2.46 2.76,0.72 6.67,2.03 8.62,-0.85 -2.31,-2.02 -5.74,-2.12 -8.61,-1.61 m 20.01,1.75 c 1.5,3.05 5.49,1.09 8.18,1.38 0.11,-1.07 0.22,-2.13 0.32,-3.2 -2.84,0.38 -6.27,-0.42 -8.5,1.82 m -9.91,-1 c 0.03,0.67 0.1,2.02 0.14,2.69 2.67,-0.32 9.03,1.95 7.84,-2.75 -2.66,-0.34 -5.33,-0.13 -7.98,0.06 z"
     id="path4"
     style="stroke:#b18e09;stroke-opacity:1;stroke-width:0.31875001;stroke-miterlimit:4;stroke-dasharray:none" />
  <path
     fill="#b2b3b1"
     stroke="#b2b3b1"
     stroke-width="0.09375"
     opacity="1"
     d="m 33.730868,4.7953452 c 2.8,0.17 6.71,-1.8 8.62,0.94 -1.62,3.06 -5.67,1.55 -8.47,1.96 -0.04,-0.72 -0.11,-2.18 -0.15,-2.9 z"
     id="path6" />
  <path
     fill="#b2b3b1"
     stroke="#b2b3b1"
     stroke-width="0.09375"
     opacity="1"
     d="m 44.550868,4.5653452 c 2.87,-0.54 7.64,-1.02 8.11,2.9 -2.95,0.08 -5.91,0 -8.86,-0.17 0.22,-0.92 0.47,-1.83 0.75,-2.73 z"
     id="path8" />
  <path
     fill="#b2b3b1"
     stroke="#b2b3b1"
     stroke-width="0.09375"
     opacity="1"
     d="m 22.800868,8.0053452 c 1.34,-3.39 5.71,-2.25 8.62,-2.75 -0.11,1.02 -0.22,2.05 -0.33,3.08 -2.74,0.15 -5.79,1.35 -8.29,-0.33 z"
     id="path10" />
  <path
     fill="#b2b3b1"
     stroke="#b2b3b1"
     stroke-width="0.09375"
     opacity="1"
     d="m 54.400868,5.5353452 c 2.67,0.06 6.15,0.36 7.79,2.69 1.16,1.9799998 -2.11,1.9899998 -3.27,1.46 -2.01,-0.72 -5.61,-1.1 -4.52,-4.15 z"
     id="path12" />
  <path
     fill="#b2b3b1"
     stroke="#b2b3b1"
     stroke-width="0.09375"
     opacity="1"
     d="m 10.110868,10.345345 c 3.38,-1.9299998 7.21,-3.3299998 11.16,-3.1499998 0.46,4.5199998 -5.29,3.3399998 -8.18,4.3099998 -1.72,2.1 -2.99,5.44 -6.2800003,4.99 0.88,-2.11 1.16,-4.85 3.3000003,-6.15 z"
     id="path14" />
  <path
     fill="#b2b3b1"
     stroke="#b2b3b1"
     stroke-width="0.09375"
     opacity="1"
     d="m 63.780868,8.9953452 c 2.56,0.77 5.37,1.5299998 7.15,3.6699998 0.9,1.1 -0.38,2.12 -0.82,3.1 -2.45,-1.88 -6.43,-3.04 -6.33,-6.7699998 z"
     id="path16" />
  <path
     fill="#b2b3b1"
     stroke="#b2b3b1"
     stroke-width="0.09375"
     opacity="1"
     d="m 71.760868,16.675345 c 0.98,-0.77 2.1,-1.3 3.31,-1.62 1.69,2.05 3.35,4.12 4.88,6.3 -3.83,1.67 -5.87,-2.52 -8.19,-4.68 z"
     id="path18" />
  <path
     fill="#b2b3b1"
     stroke="#b2b3b1"
     stroke-width="0.09375"
     opacity="1"
     d="m 6.0208677,18.255345 c 0.63,0.02 1.9,0.05 2.53,0.07 -0.21,2.91 -0.7,5.79 -1.32,8.63 -1.08,-0.48 -2.8,-0.39 -2.84,-1.97 0.24,-2.31 0.98,-4.52 1.63,-6.73 z"
     id="path20" />
  <path
     fill="#b2b3b1"
     stroke="#b2b3b1"
     stroke-width="0.09375"
     opacity="1"
     d="m 85.520868,20.625345 c 4.83,4.35 8.02,10.29 10.05,16.39 2.22,7.42 2.26,16.03 -2.09,22.71 -3.16,5.12 -8.81,7.77 -12.84,12.07 -1.52,-1.03 -3.38,-2.05 -3.93,-3.93 2.68,-3.69 7.06,-5.58 10.14,-8.88 4.93,-4.97 6.76,-12.29 6.1,-19.13 -0.45,-7 -3.56,-13.49 -7.43,-19.23 z"
     id="path22" />
  <path
     fill="#b2b3b1"
     stroke="#b2b3b1"
     stroke-width="0.09375"
     opacity="1"
     d="m 79.210868,24.265345 c 0.4,-1.42 1.61,-1.18 2.67,-0.68 1.95,1.99 2.49,4.83 2.81,7.5 -3.23,-0.7 -4.88,-3.83 -5.48,-6.82 z"
     id="path24" />
  <path
     fill="#b2b3b1"
     stroke="#b2b3b1"
     stroke-width="0.09375"
     opacity="1"
     d="m 4.0108677,30.815345 c -0.6,-1.56 1.84,-3.33 2.69,-1.47 0.89,2.41 1.32,4.96 1.81,7.47 -3.37,0.19 -4.88,-3.08 -4.5,-6 z"
     id="path26" />
  <path
     fill="#b2b3b1"
     stroke="#b2b3b1"
     stroke-width="0.09375"
     opacity="1"
     d="m 21.160868,32.245345 c 2.37,-0.03 4.76,-0.2 7.12,0.16 1.67,0.75 0.77,2.74 -0.69,2.85 -2.19,0.24 -4.41,0.13 -6.61,0.12 0.06,-1.05 0.12,-2.09 0.18,-3.13 z"
     id="path28" />
  <path
     fill="#b2b3b1"
     stroke="#b2b3b1"
     stroke-width="0.09375"
     opacity="1"
     d="m 10.410868,33.615345 c 2.41,-0.39 4.81,-0.87 7.26,-0.96 0.62,0.85 0.97,1.82 1.03,2.9 -2.58,0.43 -5.18,0.76 -7.79,1.05 -0.13,-0.75 -0.38,-2.24 -0.5,-2.99 z"
     id="path30" />
  <path
     fill="#b2b3b1"
     stroke="#b2b3b1"
     stroke-width="0.09375"
     opacity="1"
     d="m 31.080868,33.405345 c 2.38,-1.89 5.45,0.38 8.06,0.83 0.03,0.61 0.09,1.83 0.13,2.44 -2.7,-0.49 -7.97,0.5 -8.19,-3.27 z"
     id="path32" />
  <path
     fill="#b2b3b1"
     stroke="#b2b3b1"
     stroke-width="0.09375"
     opacity="1"
     d="m 84.990868,40.495345 c -0.89,-2.91 -1.27,-5.96 -0.73,-8.98 3.45,1.8 3.28,5.67 3.32,9 -0.64,-0.01 -1.94,-0.02 -2.59,-0.02 z"
     id="path34" />
  <path
     fill="#b2b3b1"
     stroke="#b2b3b1"
     stroke-width="0.09375"
     opacity="1"
     d="m 41.220868,35.795345 c 2.72,1.03 5.63,2.28 6.99,5.06 -1.8,3.69 -5.24,-1 -7.28,-2.28 0.07,-0.7 0.22,-2.09 0.29,-2.78 z"
     id="path36" />
  <path
     fill="#b2b3b1"
     stroke="#b2b3b1"
     stroke-width="0.09375"
     opacity="1"
     d="m 3.8808677,44.365345 c 8.2600003,-1.4 16.3200003,-4.37 24.8100003,-4.13 6.49,-0.24 13.47,1.9 17.48,7.3 -5.49,-2.33 -11.44,-3.79 -17.43,-2.98 -7.87,0.48 -15.29,3.6 -23.1200003,4.24 -0.71,-1.42 -1.19,-2.95 -1.74,-4.43 z"
     id="path38" />
  <path
     fill="#b2b3b1"
     stroke="#b2b3b1"
     stroke-width="0.09375"
     opacity="1"
     d="m 48.130868,44.755345 c 0.19,-1.32 1.53,-2.01 2.56,-1.01 1.8,2.42 3.83,6.65 0.06,8.29 -0.91,-2.41 -2.06,-4.76 -2.62,-7.28 z"
     id="path40" />
  <path
     fill="#b2b3b1"
     stroke="#b2b3b1"
     stroke-width="0.09375"
     opacity="1"
     d="m 85.260868,43.145345 c 0.72,-0.08 2.15,-0.24 2.87,-0.33 -0.03,2.77 -0.37,5.53 -1.11,8.21 -0.67,-0.22 -2.03,-0.67 -2.71,-0.89 0.35,-2.32 0.67,-4.65 0.95,-6.99 z"
     id="path42" />
  <path
     fill="#b2b3b1"
     stroke="#b2b3b1"
     stroke-width="0.09375"
     opacity="1"
     d="m 50.270868,53.285345 c 0.56,0.04 1.68,0.1 2.24,0.13 -0.21,3.01 -1.71,7.17 -5.29,7.16 -1.81,-2.62 2.05,-4.95 3.05,-7.29 z"
     id="path44" />
  <path
     fill="#b2b3b1"
     stroke="#b2b3b1"
     stroke-width="0.09375"
     opacity="1"
     d="m 78.830868,59.795345 c 0.25,-3.22 2.26,-5.87 4.83,-7.65 1.26,0.54 1.98,1.63 1.24,2.91 -1.16,2.46 -3.5,4.03 -6.07,4.74 z"
     id="path46" />
  <path
     fill="#b2b3b1"
     stroke="#b2b3b1"
     stroke-width="0.09375"
     opacity="1"
     d="m 37.210868,60.325345 c 2.6,-0.12 5.2,-0.2 7.8,-0.19 0.02,0.56 0.05,1.69 0.07,2.25 -2.67,0.65 -5.39,1.06 -8.12,1.26 0.08,-1.11 0.16,-2.21 0.25,-3.32 z"
     id="path48" />
  <path
     fill="#b2b3b1"
     stroke="#b2b3b1"
     stroke-width="0.09375"
     opacity="1"
     d="m 26.250868,62.275345 c 2.63,-0.96 5.41,-1.3 8.2,-1.31 -0.14,1.05 -0.28,2.1 -0.43,3.14 -2.6,0.18 -5.2,0.37 -7.8,0.51 0.01,-0.59 0.02,-1.76 0.03,-2.34 z"
     id="path50" />
  <path
     fill="#b2b3b1"
     stroke="#b2b3b1"
     stroke-width="0.09375"
     opacity="1"
     d="m 73.050868,61.245345 c 1.6,-1.33 3.75,-0.99 5.66,-0.91 -1.95,2.21 -4.35,5.34 -7.58,5.11 -2.45,-1.66 0.53,-3.16 1.92,-4.2 z"
     id="path52" />
  <path
     fill="#b2b3b1"
     stroke="#b2b3b1"
     stroke-width="0.09375"
     opacity="1"
     d="m 17.230868,82.985345 c -0.14,-7.1 -1.29,-14.79 2.04,-21.37 -1.39,6.98 -3.11,14.22 -1.36,21.3 4.47,-1.28 8.98,-3.26 13.74,-2.6 6.53,1.01 13.2,3.79 17.2,9.27 -6.34,-3.66 -14.28,-7.19 -21.52,-4.07 -1.9,0.85 -3.95,1.16 -6.02,1.14 -0.13,-0.81 -0.39,-2.43 -0.51,-3.24 -1.19,-0.14 -2.38,-0.28 -3.57,-0.43 z"
     id="path54" />
  <path
     fill="#b2b3b1"
     stroke="#b2b3b1"
     stroke-width="0.09375"
     opacity="1"
     d="m 64.630868,67.225345 c 1.2,-0.53 2.37,-2.44 3.83,-1.54 0.86,2.16 1.54,4.4 2.08,6.66 -0.69,0.05 -2.06,0.13 -2.75,0.18 -1.14,-1.72 -2.2,-3.48 -3.16,-5.3 z"
     id="path56" />
  <path
     fill="#b2b3b1"
     stroke="#b2b3b1"
     stroke-width="0.09375"
     opacity="1"
     d="m 21.930868,73.345345 c -0.07,-3.34 -0.48,-7.92 3.94,-8.51 -0.36,2.92 -0.85,5.82 -1.49,8.69 -0.61,-0.04 -1.83,-0.13 -2.45,-0.18 z"
     id="path58" />
  <path
     fill="#b2b3b1"
     stroke="#b2b3b1"
     stroke-width="0.09375"
     opacity="1"
     d="m 72.340868,72.525345 c 0.53,0 1.59,0 2.12,0.01 2.15,1.63 5.65,2.91 4.79,6.28 -2.7,-1.09 -5.27,-2.46 -7.77,-3.95 0.21,-0.58 0.64,-1.75 0.86,-2.34 z"
     id="path60" />
  <path
     fill="#b2b3b1"
     stroke="#b2b3b1"
     stroke-width="0.09375"
     opacity="1"
     d="m 34.090868,73.565345 c 2.45,-0.25 4.9,0.15 7.31,0.55 -0.07,1.12 -0.14,2.24 -0.22,3.36 -2.62,-0.43 -5.27,-0.81 -7.82,-1.56 0.18,-0.59 0.55,-1.76 0.73,-2.35 z"
     id="path62" />
  <path
     fill="#b2b3b1"
     stroke="#b2b3b1"
     stroke-width="0.09375"
     opacity="1"
     d="m 23.190868,75.515345 c 2.7,-0.54 5.4,-1.05 8.13,-1.42 -0.04,1.06 -0.09,2.12 -0.14,3.18 -2.55,0.54 -5.14,0.89 -7.74,1.03 -0.08,-0.93 -0.17,-1.86 -0.25,-2.79 z"
     id="path64" />
  <path
     fill="#b2b3b1"
     stroke="#b2b3b1"
     stroke-width="0.09375"
     opacity="1"
     d="m 43.980868,78.495345 c -2.05,-1.08 0.22,-2.66 1.58,-2.35 2.74,0.99 6.06,3.28 4.55,6.63 -2.12,-1.32 -4.27,-2.62 -6.13,-4.28 z"
     id="path66" />
  <path
     fill="#b2b3b1"
     stroke="#b2b3b1"
     stroke-width="0.09375"
     opacity="1"
     d="m 80.560868,77.695345 c 3.53,0.51 6.28,2.84 8.35,5.61 -3.83,1.2 -8.04,-1.6 -8.35,-5.61 z"
     id="path68" />
  <path
     fill="#b2b3b1"
     stroke="#b2b3b1"
     stroke-width="0.09375"
     opacity="1"
     d="m 50.870868,82.945345 c 3.95,-0.56 4.73,3.97 5.08,6.89 -0.87,0.47 -1.74,0.92 -2.63,1.35 -0.86,-2.73 -1.74,-5.46 -2.45,-8.24 z"
     id="path70" />
  <path
     fill="#b2b3b1"
     stroke="#b2b3b1"
     stroke-width="0.09375"
     opacity="1"
     d="m 96.450868,83.705345 c 4.960002,3.77 6.280002,10.29 7.040002,16.12 1.36,12.380005 -1.74,26.000005 -11.000002,34.830005 -7.49,7.02 -17.93,9.43 -27.84,10.46 -15.58,1.01 -31.47,0.37 -46.53,-4.06 -2.99,-0.76 -5.48,-2.69 -7.09,-5.31 14.55,5.21 30.26,6.19 45.58,5.56 8.67,-0.64 17.56,-1.92 25.34,-6.02 8.06,-4.36 13.75,-12.36 16.14,-21.11 2.640002,-9.99 2.380002,-20.880005 -1.64,-30.470005 z"
     id="path72" />
  <path
     fill="#b2b3b1"
     stroke="#b2b3b1"
     stroke-width="0.09375"
     opacity="1"
     d="m 89.030868,85.135345 c 0.07,-2.37 2.66,0.29 3.17,1.12 1,1.87 3.39,5.2 0.31,6.42 -1.86,-2 -3.85,-4.68 -3.48,-7.54 z"
     id="path74" />
  <path
     fill="#b2b3b1"
     stroke="#b2b3b1"
     stroke-width="0.09375"
     opacity="1"
     d="m 53.750868,92.595345 c 3.7,1.18 0.76,5.71 -0.04,8.120005 -0.75,-0.09 -2.25,-0.27 -2.99,-0.35 0.8,-2.660005 1.59,-5.370005 3.03,-7.770005 z"
     id="path76" />
  <path
     fill="#b2b3b1"
     stroke="#b2b3b1"
     stroke-width="0.09375"
     opacity="1"
     d="m 92.300868,94.445345 c 0.99,-0.07 1.97,-0.14 2.95,-0.2 0.32,2.83 0.52,5.68 0.56,8.540005 -4.34,-0.54 -3.16,-5.260005 -3.51,-8.340005 z"
     id="path78" />
  <path
     fill="#b2b3b1"
     stroke="#b2b3b1"
     stroke-width="0.09375"
     opacity="1"
     d="m 43.170868,107.79535 c 1.44,-2.71 4.62,-6.71 7.97,-5.11 -0.38,3.61 -4.62,5.69 -7.97,5.11 z"
     id="path80" />
  <path
     fill="#b2b3b1"
     stroke="#b2b3b1"
     stroke-width="0.09375"
     opacity="1"
     d="m 93.040868,104.28535 c 0.61,0.02 1.81,0.05 2.41,0.06 0.04,2.78 -0.4,5.51 -1.07,8.2 -0.71,0 -2.14,-0.01 -2.85,-0.01 0.23,-2.79 0.74,-5.55 1.51,-8.25 z"
     id="path82" />
  <path
     fill="#b2b3b1"
     stroke="#b2b3b1"
     stroke-width="0.09375"
     opacity="1"
     d="m 13.330868,105.40535 c 2.92,-0.52 5.77,0.44 8.45,1.47 3.47,0.49 9.51,-1.5 10.39,3.34 -3.74,0.2 -7.93,0.39 -10.63,-2.67 -2.14,2.44 -5.58,1.1 -8.18,0.34 -0.01,-0.62 -0.02,-1.86 -0.03,-2.48 z"
     id="path84" />
  <path
     fill="#b2b3b1"
     stroke="#b2b3b1"
     stroke-width="0.09375"
     opacity="1"
     d="m 8.1108677,115.26535 c 0.19,-3.24 -0.58,-8.32 3.8600003,-8.82 -0.2,2.91 -0.62,5.79 -1.08,8.67 -0.9300003,0.05 -1.8500003,0.1 -2.7800003,0.15 z"
     id="path86" />
  <path
     fill="#b2b3b1"
     stroke="#b2b3b1"
     stroke-width="0.09375"
     opacity="1"
     d="m 33.430868,110.51535 c 0.48,-1.21 0.59,-2.98 2.23,-3.12 2.22,-0.44 6.06,-1.66 6.69,1.59 -2.69,1.61 -5.9,1.45 -8.92,1.53 z"
     id="path88" />
  <path
     fill="#b2b3b1"
     stroke="#b2b3b1"
     stroke-width="0.09375"
     opacity="1"
     d="m 88.600868,123.05535 c -2.6,-2.89 0.39,-6.2 2.05,-8.69 1.71,-0.04 2.34,0.75 1.87,2.37 -0.5,2.5 -2.45,4.35 -3.92,6.32 z"
     id="path90" />
  <path
     fill="#b2b3b1"
     stroke="#b2b3b1"
     stroke-width="0.09375"
     opacity="1"
     d="m 7.9008677,117.19535 c 1.02,0.14 2.03,0.28 3.0500003,0.42 0.22,2.58 0.43,5.15 0.59,7.73 -0.69,0.02 -2.0800003,0.07 -2.7800003,0.1 -0.48,-2.73 -0.74,-5.48 -0.86,-8.25 z"
     id="path92" />
  <path
     fill="#b2b3b1"
     stroke="#b2b3b1"
     stroke-width="0.09375"
     opacity="1"
     d="m 79.730868,129.69535 c 0.44,-3.61 4.08,-6.6 7.68,-6.33 -0.83,3.63 -4.22,5.76 -7.68,6.33 z"
     id="path94" />
  <path
     fill="#b2b3b1"
     stroke="#b2b3b1"
     stroke-width="0.09375"
     opacity="1"
     d="m 10.760868,129.71535 c -1.9600003,-1.35 1.02,-2.03 1.79,-2.63 1.51,1.46 3.06,2.88 4.64,4.27 0.02,0.63 0.07,1.9 0.09,2.54 -2.6,-0.59 -5.18,-1.72 -6.52,-4.18 z"
     id="path96" />
  <path
     fill="#b2b3b1"
     stroke="#b2b3b1"
     stroke-width="0.09375"
     opacity="1"
     d="m 70.500868,131.31535 c 2.68,-0.44 7,-4.13 8.63,-0.49 -1.91,1.57 -4.16,2.82 -6.62,3.26 -1.67,0.13 -1.56,-1.67 -2.01,-2.77 z"
     id="path98" />
  <path
     fill="#b2b3b1"
     stroke="#b2b3b1"
     stroke-width="0.09375"
     opacity="1"
     d="m 19.710868,132.51535 c 2.7,-0.41 5.37,0.44 8.02,0.87 -0.35,0.94 -0.7,1.87 -1.08,2.79 -2.62,-0.08 -5.18,-0.68 -7.73,-1.22 0.24,-0.82 0.5,-1.63 0.79,-2.44 z"
     id="path100" />
  <path
     fill="#b2b3b1"
     stroke="#b2b3b1"
     stroke-width="0.09375"
     opacity="1"
     d="m 59.450868,134.84535 c 2.73,-1.63 5.86,-2.25 8.96,-2.68 0.02,1.11 0.04,2.22 0.05,3.33 -3.01,0.33 -6.46,1.79 -9.01,-0.65 z"
     id="path102" />
  <path
     fill="#b2b3b1"
     stroke="#b2b3b1"
     stroke-width="0.09375"
     opacity="1"
     d="m 29.890868,134.10535 c 2.87,-0.51 6.3,-0.41 8.61,1.61 -1.95,2.88 -5.86,1.57 -8.62,0.85 0,-0.61 0.01,-1.84 0.01,-2.46 z"
     id="path104" />
  <path
     fill="#b2b3b1"
     stroke="#b2b3b1"
     stroke-width="0.09375"
     opacity="1"
     d="m 49.900868,135.85535 c 2.23,-2.24 5.66,-1.44 8.5,-1.82 -0.1,1.07 -0.21,2.13 -0.32,3.2 -2.69,-0.29 -6.68,1.67 -8.18,-1.38 z"
     id="path106" />
  <path
     fill="#b2b3b1"
     stroke="#b2b3b1"
     stroke-width="0.09375"
     opacity="1"
     d="m 39.990868,134.85535 c 2.65,-0.19 5.32,-0.4 7.98,-0.06 1.19,4.7 -5.17,2.43 -7.84,2.75 -0.04,-0.67 -0.11,-2.02 -0.14,-2.69 z"
     id="path108" />
</svg>
