<?xml version="1.0" encoding="UTF-8" standalone="no"?>
<svg
   xmlns:dc="http://purl.org/dc/elements/1.1/"
   xmlns:cc="http://creativecommons.org/ns#"
   xmlns:rdf="http://www.w3.org/1999/02/22-rdf-syntax-ns#"
   xmlns:svg="http://www.w3.org/2000/svg"
   xmlns="http://www.w3.org/2000/svg"
   width="142.54071pt"
   height="144.28526pt"
   viewBox="0 0 142.54071 144.28526"
   version="1.1"
   id="svg142">
  <metadata
     id="metadata148">
    <rdf:RDF>
      <cc:Work
         rdf:about="">
        <dc:format>image/svg+xml</dc:format>
        <dc:type
           rdf:resource="http://purl.org/dc/dcmitype/StillImage" />
        <dc:title></dc:title>
      </cc:Work>
    </rdf:RDF>
  </metadata>
  <defs
     id="defs146" />
  <path
     fill="#34517a"
     stroke="#34517a"
     stroke-width="0.09375"
     opacity="1"
     d="m 74.869888,1.5257527 c 1.54,-0.59000003 3.09,-1.27000003 4.76,-1.33000003 7.79,-0.53 15.6,0.41 23.230002,1.95000003 3.15,0.68 6.47,1.39 8.98,3.56 1.27,13.1900003 -2.07,26.2400003 -2.56,39.3900003 1.3,0.43 2.6,0.88 3.92,1.24 7.58,0.56 15.11,-1.17 22.68,-0.83 1.8,0.33 2.3,2.24 2.3,3.8 0.45,6.83 0.46,13.71 -0.27,20.51 -0.41,2.51 -0.58,5.27 -2.25,7.33 -6.81,1.5 -13.52,-1.72 -20.38,-0.95 -1.93,7.79 -0.27,15.75 -0.19,23.62 -0.05,11.719997 1.82,23.419997 0.76,35.129997 -0.48,2.84 -3.86,3.09 -6.11,3.66 -13.870002,1.93 -28.110002,2.37 -41.920002,-0.29 -1.16,-0.36 -2.25,-0.88 -3.37,-1.33 -2.1,-5.31 -1.05,-11.23 -1.07,-16.8 1.16,-9.84 1.59,-19.75 2.67,-29.599997 0.37,-5.43 1.34,-10.91 0.33,-16.33 -4.53,-0.83 -9.13,-0.62 -13.69,-0.17 -15.37,0.45 -30.71,2.02 -46.0999999,1.28 -1.65,0.08 -3.19,-1.12 -3.49,-2.75 -2.14999999,-7.42 -1.75,-15.21 -2.74999999,-22.8 -0.08,-15.76 -1.1,-31.63 1.11999999,-47.2900003 5.87,-1.97000003 12.1699999,-0.93 18.2399999,-1 10.01,0.69 20.16,0.97 29.95,3.3 1.89,0.2 2.54,2.13 2.8,3.73 1.88,10.0100003 0.29,20.2500003 0.99,30.3400003 -0.07,2.02 2.31,2.3 3.79,2.58 6.54,1.07 13.18,0.55 19.68,-0.54 0.34,-1.36 0.84,-2.7 0.84,-4.12 -0.23,-11.82 -2.58,-23.48 -2.89,-35.2900003 m 5.11,8.9800003 c 0.63,0.03 1.88,0.1 2.51,0.13 0.2,-0.62 0.59,-1.8500003 0.79,-2.4600003 1.06,-0.74 3.12,-0.7 3.03,-2.44 -3.03,-3 -7.76,1.03 -6.33,4.7700003 m 8.13,-5.4200003 c 0.05,0.54 0.15,1.6 0.2,2.14 2.21,0.42 4.42,0.93 6.68,1.02 1.56,0.09 0.93,-1.86 1.3,-2.77 -2.7,-0.46 -5.47,-1.25 -8.18,-0.39 m -81.7599999,2.19 c -1.24,2.1 -1.09,4.6200003 -1.26,6.9600003 0.94,0.04 1.87,0.07 2.8,0.11 0.26,-1.7 0.53,-3.4 0.8,-5.0900003 1.9099999,-0.3 3.8299999,-0.6 5.7399999,-0.9 0.02,-0.57 0.05,-1.72 0.07,-2.29 -2.69,-0.04 -5.9399999,-0.74 -8.1499999,1.21 m 10.5599999,-1.18 c 0.02,0.57 0.06,1.7 0.08,2.27 2.28,0.32 4.56,0.72 6.87,0.69 0.51,-0.84 0.79,-1.78 0.85,-2.8 -2.58,-0.38 -5.21,-0.74 -7.8,-0.16 m 10.37,0.37 c -0.02,0.92 -0.04,1.83 -0.06,2.75 2.66,0.33 5.35,0.46 8.04,0.28 -0.02,-0.55 -0.06,-1.66 -0.07,-2.21 -2.58,-0.7 -5.25,-0.86 -7.91,-0.82 m 70.55,1.47 c 2.01,1.66 4.470002,2.6600003 6.990002,3.2600003 1.68,0.47 2.08,-2.5100003 0.53,-2.8700003 -2.33,-0.98 -5.660002,-3.23 -7.520002,-0.39 m -60.61,0.94 c 1.36,2.9800003 5.47,2.1800003 8.16,2.6400003 -0.11,-0.94 -0.22,-1.8800003 -0.33,-2.8200003 -2.59,-0.03 -5.97,-2.42 -7.83,0.18 m -24.32,6.9600003 c -1.98,8.65 -0.65,17.6 -0.39,26.35 0.28,0.35 0.86,1.05 1.14,1.4 -1.21,3.39 0.44,6.84 1.26,10.12 0.99,3.14 2.41,7.03 6.07,7.75 6.93,1.32 13.96,-0.41 20.92,-0.69 0.42,0.47 1.26,1.4 1.68,1.87 0.26,-0.62 0.79,-1.88 1.05,-2.51 8.31,0.5 16.96,-1.27 24.95,1.79 3.73,1.3 5.19,5.42 6.11,8.9 2.18,11.11 0.15,22.45 0.3,33.629997 -0.33,0.34 -1,1.01 -1.33,1.34 0.25,0.06 0.76,0.17 1.01,0.23 -1.14,4.51 -0.79,9.2 -1.08,13.81 0.07,2.34 -0.15,5.49 2.38,6.69 3.95,2.06 8.6,2.05 12.95,2.02 5.28,-0.25 10.500002,-1.14 15.750002,-1.62 -0.68,-0.66 -1.37,-1.32 -2.09,-1.94 1.47,-5.28 0.8,-10.81 0.5,-16.2 -0.46,-5.74 -0.53,-11.519997 -1.27,-17.239997 0.46,0.05 1.37,0.15 1.83,0.2 -0.83,-2.2 -1.58,-4.42 -2.46,-6.59 0.67,-5.67 -0.11,-11.45 1.04,-17.07 0.4,-2.15 2.32,-3.85 4.51,-3.98 4.5,-0.43 8.98,0.65 13.49,0.6 1.29,1.01 2.56,2.04 3.8,3.11 1.13,-3.6 2.36,-7.21 2.62,-11 -1.18,0.29 -2.37,0.52 -3.51,0.96 -2.03,-0.36 -4.09,-0.15 -6.07,0.41 -4.93,1.33 -10.11,1.95 -15.2,1.33 -2.85,-0.17 -3.690002,-3.46 -3.790002,-5.82 -0.19,-10.34 2.030002,-20.54 2.550002,-30.84 -0.11,-2.4 0.41,-5.5 -1.770002,-7.16 -2.85,-1.85 -6.43,-3.28 -9.86,-2.48 -2.38,0.72 -2.37,3.58 -2.48,5.61 0.33,7.66 1.49,15.31 1.33,22.99 -0.29,2.76 -0.03,6.65 -3.21,7.82 -11.78,4.6 -24.83,4.57 -37.26,3.59 -0.63,-0.65 -1.28,-1.28 -1.96,-1.88 -2.54,1.57 -5.84,-0.03 -6.38,-2.87 -1.98,-9.44 2.5,-18.84 1.32,-28.32 -0.74,-3.44 -4.72,-4.35 -7.53,-5.49 -3.49,-0.94 -7.22,-3.02 -10.81,-1.3 -0.2,-0.12 -0.61,-0.37 -0.82,-0.49 -3.15,-0.78 -8.42,-1.16 -9.29,2.97 m 33.46,4.53 c 0.92,-0.04 1.83,-0.08 2.75,-0.13 -0.06,-2.13 -0.15,-4.25 -0.26,-6.38 -0.56,-0.47 -1.69,-1.4 -2.25,-1.86 -2.26,2.33 -0.23,5.58 -0.24,8.37 m 34.51,-7.2 c -0.01,2.77 -0.31,6.05 1.78,8.22 3.46,-1.17 0.9,-5.65 0.62,-8.22 -0.6,0 -1.8,0 -2.4,0 m 24.510002,-0.03 c 0,2.41 -0.01,4.81 -0.03,7.22 0.98,0.03 1.96,0.07 2.93,0.11 0.08,-2.47 0.08,-4.94 0.03,-7.41 -0.98,0.03 -1.96,0.05 -2.93,0.08 m -100.3400019,3.97 c -0.05,2.57 -0.06,5.14 0,7.7 4.44,0.43 2.65,-5.07 2.56,-7.77 -0.64,0.01 -1.92,0.05 -2.56,0.07 m 41.2399999,6.07 c -0.01,2.4 -0.02,4.8 -0.04,7.2 0.98,0.09 1.97,0.19 2.95,0.28 0.05,-2.55 0.05,-5.09 0,-7.63 -0.97,0.05 -1.94,0.1 -2.91,0.15 m 36.02,0.24 c 0.05,2.68 0.53,5.32 1.11,7.94 0.91,-0.07 1.81,-0.13 2.72,-0.19 -0.09,-2.63 -0.57,-5.23 -1.15,-7.79 -0.9,0.01 -1.79,0.02 -2.68,0.04 m 22.840002,0.62 c -0.25,2.41 -1.54,5.42 0.44,7.4 3.23,-0.8 1.93,-5.44 2.61,-7.95 -0.94,-0.02 -2.96,-1.13 -3.05,0.55 m -100.0200019,3.16 c -0.17,2.7 -0.13,5.39 0.12,8.08 0.91,-0.05 1.81,-0.11 2.71,-0.16 0.04,-2.55 0.02,-5.09 -0.06,-7.63 -0.92,-0.1 -1.85,-0.19 -2.77,-0.29 m 41.1899999,6.24 c -0.1,2.57 -0.1,5.14 0.01,7.7 0.91,0 1.83,0 2.75,0 0.09,-2.59 0.1,-5.18 0.05,-7.77 -0.94,0.02 -1.87,0.04 -2.81,0.07 m 58.050002,-0.07 c -0.42,2.5 -0.89,5.01 -0.8,7.56 0.63,0.16 1.91,0.49 2.55,0.66 0.62,-2.63 0.98,-5.32 0.9,-8.03 -0.88,-0.07 -1.76,-0.13 -2.65,-0.19 m -20.010002,8.07 c 0.96,-0.03 1.91,-0.06 2.87,-0.09 0.01,-2.83 0.18,-5.81 -1.4,-8.32 -3.43,1.36 -1.26,5.64 -1.47,8.41 m -79.0099999,-3.93 c -0.08,2.55 -0.02,5.11 0.14,7.67 0.98,0.14 1.96,0.3 2.94,0.45 0.15,-2.73 -0.03,-5.47 -0.43,-8.17 -0.88,0.01 -1.77,0.03 -2.65,0.05 m 70.9499999,6.07 c 0.06,0.87 0.11,1.75 0.17,2.63 2.78,-0.52 8.71,0.42 7.89,-4.04 -2.73,0.15 -5.41,0.73 -8.06,1.41 m -28.12,4.59 c 1.65,0.55 3.41,0.25 5.1,0.17 -0.07,-0.9 -0.15,-1.81 -0.22,-2.72 -0.65,-0.06 -1.96,-0.19 -2.61,-0.26 -0.89,-0.72 -1.8,-1.4 -2.73,-2.06 -2.47,0.69 -1.56,4.24 0.46,4.87 m 17.83,-3.1 c 0.05,0.6 0.15,1.8 0.21,2.39 2.73,-0.13 5.84,0.34 8.14,-1.46 -0.87,-3.69 -5.73,-1.34 -8.35,-0.93 m 37.470002,-1.49 c -0.65,2.62 -0.61,5.32 -0.43,8 1.01,-0.08 2.03,-0.17 3.05,-0.25 -0.5,-2.68 1.67,-7.64 -2.62,-7.75 m -48.030002,4.31 c 2.6,1.06 5.44,0.24 8.11,-0.07 -0.04,-0.67 -0.12,-2.03 -0.16,-2.71 -2.65,0.46 -7.95,-1.36 -7.95,2.78 m -49.3799999,0.24 c 0.04,2.4 0.16,4.81 0.36,7.2 1.03,0.13 2.06,0.25 3.09,0.37 -0.04,-2.59 -0.33,-5.16 -0.8,-7.71 -0.66,0.04 -1.99,0.11 -2.65,0.14 m 102.0600019,2.38 c 0.03,0.97 0.06,1.94 0.09,2.91 2.46,0.02 4.92,-0.05 7.37,-0.23 -0.03,-0.68 -0.11,-2.05 -0.14,-2.73 -2.44,0 -4.88,0.02 -7.32,0.05 m 10.02,0.12 c -0.39,4.22 5.6,1.87 8.11,1.68 0.03,-0.55 0.09,-1.65 0.12,-2.2 -2.73,-0.13 -5.63,-0.57 -8.23,0.52 m 10.53,1.18 c 0.79,0.61 1.59,1.22 2.39,1.82 0.1,0.66 0.31,1.98 0.41,2.64 0.92,-0.01 1.84,-0.03 2.77,-0.04 -0.04,-1.96 -0.51,-3.87 -1.31,-5.65 -1.17,-0.43 -2.33,-0.87 -3.49,-1.31 -0.19,0.64 -0.58,1.91 -0.77,2.54 m -121.4500019,6.55 c 0.01,2.63 0.28,5.31 1.36,7.74 0.57,-0.02 1.7299999,-0.06 2.3099999,-0.08 0.39,-2.59 -0.51,-5.13 -0.9299999,-7.66 -0.91,0 -1.83,0 -2.74,0 m 124.1600019,0.83 c -0.14,2.13 -0.37,4.26 -0.31,6.4 -0.21,1.85 1.98,0.72 2.92,0.58 0.12,-2.37 0.23,-4.74 0.3,-7.11 -0.97,0.04 -1.94,0.09 -2.91,0.13 m -90.570002,8.57 c 1.67,2.61 4.93,1.55 7.45,1.33 1.62,-0.02 1,-1.93 1.25,-2.95 -2.96,0.07 -6.24,-0.42 -8.7,1.62 m 11.02,0.78 c 2.28,0.13 4.58,0.34 6.85,0.04 1.87,0.24 2.2,-2.92 0.17,-2.91 -2.49,0.03 -7.54,-1.13 -7.02,2.87 m 10.49,-0.48 c 2.54,1.11 5.35,1.23 8.08,1.42 -0.24,-1.19 0.09,-3.14 -1.67,-3.13 -2.09,-0.46 -7,-1.98 -6.41,1.71 m -31.13,-0.53 c 0.05,0.91 0.11,1.82 0.15,2.74 2.71,0.07 5.43,-0.15 8.06,-0.82 -0.02,-0.58 -0.07,-1.74 -0.09,-2.32 -2.72,-0.34 -5.44,-0.07 -8.12,0.4 m -20.69,0.38 c -0.8799999,4.35 5.32,3.29 8,3.08 -0.06,-0.67 -0.17,-2.01 -0.22,-2.68 -2.59,-0.19 -5.18,-0.32 -7.78,-0.4 m 10.44,0.34 c 0.15,0.98 0.31,1.95 0.46,2.93 2.55,-0.25 5.31,0.05 7.64,-1.2 -0.02,-0.46 -0.08,-1.38 -0.1,-1.84 -2.63,-0.77 -5.36,-0.19 -8,0.11 m 87.190002,2.83 c -0.1,1.96 -1.28,5.41 1.74,5.52 0.7,-2.54 1.69,-4.98 2.65,-7.43 -1.64,-0.22 -4.19,-0.31 -4.39,1.91 m 5.61,-0.19 c 2.61,1.63 5.68,1.76 8.66,1.72 0,-0.61 0,-1.82 -0.01,-2.42 -2.79,-0.32 -6.82,-2.53 -8.65,0.7 m 11.13,-0.06 c 0.04,0.64 0.14,1.94 0.19,2.58 3.11,0.41 7.79,-0.24 7.46,-4.38 -2.68,-0.04 -5,1.59 -7.65,1.8 m -55.530002,0.6 c 0.03,2.78 -0.29,5.73 1.28,8.21 3.28,-1.48 1.42,-5.75 1.68,-8.55 -0.99,0.12 -1.97,0.23 -2.96,0.34 m 38.180002,14.69 c 0.93,0.18 1.88,0.37 2.82,0.57 0.19,-2.91 0.23,-5.85 -0.39,-8.71 -3.85,1.02 -2.17,5.29 -2.43,8.14 m -38.050002,-4.59 c -0.15,2.55 -0.22,5.1 -0.21,7.65 0.93,0.05 1.86,0.09 2.79,0.14 0.21,-2.69 0.27,-5.39 0.14,-8.08 -0.91,0.1 -1.82,0.19 -2.72,0.29 m 38.590002,7.46 c -0.03,2.56 0.02,5.13 0.14,7.69 0.99,-0.1 1.97,-0.21 2.96,-0.31 -0.33,-2.56 1.12,-8.04 -3.1,-7.38 m -38.850002,2.96 c 0.05,2.51 -1.47,5.28 -0.05,7.58 0.9,-0.08 1.8,-0.19 2.69,-0.33 0.05,-2.32 0.11,-4.65 0.18,-6.97 -0.94,-0.09 -1.88,-0.19 -2.82,-0.28 m 39.320002,7.71 c -0.43,2.449997 -0.13,4.949997 -0.06,7.419997 0.92,0.1 1.84,0.19 2.77,0.28 0.11,-2.68 0.08,-5.36 -0.09,-8.039997 -0.89,0 -1.77,0.12 -2.62,0.34 m -40.230002,2.639997 c -0.11,2.44 -0.31,4.88 -0.14,7.32 1.05,0.81 1.98,0.7 2.79,-0.35 0.3,-2.35 0.17,-4.72 0.18,-7.07 -0.95,0.03 -1.89,0.06 -2.83,0.1 m 40.620002,7.54 c -0.02,2.61 0.04,5.23 0.19,7.84 0.99,-0.18 1.98,-0.36 2.98,-0.53 -0.3,-2.44 1.01,-8.26 -3.17,-7.31 m -41.490002,3.68 c -0.03,2.21 -0.04,4.42 -0.03,6.63 0.92,0.11 1.85,0.22 2.78,0.32 0.21,-2.79 0.51,-5.64 -0.18,-8.39 -0.64,0.36 -1.93,1.08 -2.57,1.44 m 41.760002,6.69 c -0.14,2.73 -0.35,5.49 0.33,8.17 0.64,-0.26 1.93,-0.79 2.58,-1.06 0,-2.31 -0.01,-4.62 -0.05,-6.93 -0.95,-0.06 -1.91,-0.12 -2.86,-0.18 m -41.870002,3.08 c 0.05,2.28 0.12,4.56 0.18,6.84 1.09,0.24 2.61,1.17 3.37,-0.21 -0.17,-2.3 -0.52,-4.58 -0.76,-6.88 -0.93,0.08 -1.86,0.16 -2.79,0.25 m 35.330002,10.79 c 2.66,1.15 5.29,-0.56 7.76,-1.43 -0.03,-0.67 -0.09,-2.01 -0.12,-2.68 -2.63,0.93 -7.75,0.37 -7.64,4.11 m -30.720002,-3.06 c -1.11,4.37 4.4,3.5 7.06,4.33 0.19,-0.63 0.58,-1.89 0.77,-2.52 -2.39,-1.3 -5.2,-1.35 -7.83,-1.81 m 23.22,1.47 c -1.53,0.04 -4.12,0.78 -2.71,2.75 2.45,0.53 5.03,0.37 7.47,-0.17 2.080002,-3.32 -2.73,-3 -4.76,-2.58 m -13.19,0.43 c 0.03,0.61 0.08,1.84 0.11,2.45 2.82,-0.17 7.31,1.75 8.56,-1.82 -2.77,-1.13 -5.77,-1.15 -8.67,-0.63 z"
     id="path4" />
  <path
     fill="#b4bbc2"
     stroke="#b4bbc2"
     stroke-width="0.09375"
     opacity="1"
     d="m 79.979888,10.505753 c -1.43,-3.7400003 3.3,-7.7700003 6.33,-4.7700003 0.09,1.74 -1.97,1.7 -3.03,2.44 -0.2,0.61 -0.59,1.8400003 -0.79,2.4600003 -0.63,-0.03 -1.88,-0.1 -2.51,-0.13 z"
     id="path6" />
  <path
     fill="#b6bcbd"
     stroke="#b6bcbd"
     stroke-width="0.09375"
     opacity="1"
     d="m 88.109888,5.0857527 c 2.71,-0.86 5.48,-0.07 8.18,0.39 -0.37,0.91 0.26,2.86 -1.3,2.77 -2.26,-0.09 -4.47,-0.6 -6.68,-1.02 -0.05,-0.54 -0.15,-1.6 -0.2,-2.14 z"
     id="path8" />
  <path
     fill="#b9bcbe"
     stroke="#b9bcbe"
     stroke-width="0.09375"
     opacity="1"
     d="m 6.3498881,7.2757527 c 2.21,-1.95 5.4599999,-1.25 8.1499999,-1.21 -0.02,0.57 -0.05,1.72 -0.07,2.29 -1.91,0.3 -3.83,0.6 -5.7399999,0.9 -0.27,1.6900003 -0.54,3.3900003 -0.8,5.0900003 -0.93,-0.04 -1.86,-0.07 -2.8,-0.11 0.17,-2.34 0.02,-4.8600003 1.26,-6.9600003 z"
     id="path10" />
  <path
     fill="#babebf"
     stroke="#babebf"
     stroke-width="0.09375"
     opacity="1"
     d="m 16.909888,6.0957527 c 2.59,-0.58 5.22,-0.22 7.8,0.16 -0.06,1.02 -0.34,1.96 -0.85,2.8 -2.31,0.03 -4.59,-0.37 -6.87,-0.69 -0.02,-0.57 -0.06,-1.7 -0.08,-2.27 z"
     id="path12" />
  <path
     fill="#b6bec2"
     stroke="#b6bec2"
     stroke-width="0.09375"
     opacity="1"
     d="m 27.279888,6.4657527 c 2.66,-0.04 5.33,0.12 7.91,0.82 0.01,0.55 0.05,1.66 0.07,2.21 -2.69,0.18 -5.38,0.05 -8.04,-0.28 0.02,-0.92 0.04,-1.83 0.06,-2.75 z"
     id="path14" />
  <path
     fill="#b2b2b2"
     stroke="#b2b2b2"
     stroke-width="0.09375"
     opacity="1"
     d="m 111.83989,5.7057527 c 0.7,2.22 3.09,3.15 4.08,5.1200003 0.8,6.7 -0.56,13.36 -0.97,20.02 -0.84,5.14 -0.73,10.38 -1.75,15.49 -1.32,-0.36 -2.62,-0.81 -3.92,-1.24 0.49,-13.15 3.83,-26.2 2.56,-39.3900003 z"
     id="path16" />
  <path
     fill="#babcbb"
     stroke="#babcbb"
     stroke-width="0.09375"
     opacity="1"
     d="m 97.829888,7.9357527 c 1.86,-2.84 5.190002,-0.59 7.520002,0.39 1.55,0.36 1.15,3.3400003 -0.53,2.8700003 -2.52,-0.6 -4.980002,-1.6000003 -6.990002,-3.2600003 z"
     id="path18" />
  <path
     fill="#babbbe"
     stroke="#babbbe"
     stroke-width="0.09375"
     opacity="1"
     d="m 37.219888,8.8757527 c 1.86,-2.6 5.24,-0.21 7.83,-0.18 0.11,0.94 0.22,1.8800003 0.33,2.8200003 -2.69,-0.46 -6.8,0.34 -8.16,-2.6400003 z"
     id="path20" />
  <path
     fill="#b2b2b1"
     stroke="#b2b2b1"
     stroke-width="0.09375"
     opacity="1"
     d="m 52.459888,8.5557527 c 0.67,0.22 2.01,0.66 2.67,0.88 1,2.1500003 1.71,4.4300003 1.89,6.8000003 0.8,8.39 0.18,16.83 0.22,25.24 -1.48,-0.28 -3.86,-0.56 -3.79,-2.58 -0.7,-10.09 0.89,-20.33 -0.99,-30.3400003 z"
     id="path22" />
  <path
     fill="#456691"
     stroke="#456691"
     stroke-width="0.09375"
     opacity="1"
     d="m 12.899888,15.835753 c 0.87,-4.13 6.14,-3.75 9.29,-2.97 -0.02,3.94 0,7.88 0.07,11.83 4.42,-1 8.71,-2.48 12.91,-4.18 -3.35,-3.43 -8.26,-4.51 -12.16,-7.16 3.59,-1.72 7.32,0.36 10.81,1.3 2.81,1.14 6.79,2.05 7.53,5.49 1.18,9.48 -3.3,18.88 -1.32,28.32 0.54,2.84 3.84,4.44 6.38,2.87 0.68,0.6 1.33,1.23 1.96,1.88 12.43,0.98 25.48,1.01 37.26,-3.59 3.18,-1.17 2.92,-5.06 3.21,-7.82 0.16,-7.68 -1,-15.33 -1.33,-22.99 0.11,-2.03 0.1,-4.89 2.48,-5.61 3.43,-0.8 7.01,0.63 9.86,2.48 2.180002,1.66 1.660002,4.76 1.770002,7.16 -0.52,10.3 -2.740002,20.5 -2.550002,30.84 0.1,2.36 0.940002,5.65 3.790002,5.82 5.09,0.62 10.27,0 15.2,-1.33 1.98,-0.56 4.04,-0.77 6.07,-0.41 -2.23,0.96 -4.45,1.94 -6.69,2.87 0.96,1.61 2.27,2.96 3.78,4.06 -4.51,0.05 -8.99,-1.03 -13.49,-0.6 -2.19,0.13 -4.11,1.83 -4.51,3.98 -1.15,5.62 -0.37,11.4 -1.04,17.07 -0.56,-1.35 -1.16,-2.67 -1.77,-3.99 -2.230002,3.05 -4.540002,6.04 -6.800002,9.07 3.06,0.5 6.12,0.99 9.200002,1.31 0.74,5.72 0.81,11.499997 1.27,17.239997 0.3,5.39 0.97,10.92 -0.5,16.2 -1.28,-1.1 -2.58,-2.18 -3.850002,-3.29 -1.62,-1.47 -3.49,-2.64 -5.69,-2.96 -1.3,3.3 -2.68,6.56 -4.12,9.81 -4.35,0.03 -9,0.04 -12.95,-2.02 -2.53,-1.2 -2.31,-4.35 -2.38,-6.69 0.29,-4.61 -0.06,-9.3 1.08,-13.81 3.33,0.73 6.66,1.42 10,2.09 -0.63,-3.58 -1.59,-7.09 -2.73,-10.529997 -1.81,1.55 -3.55,3.149997 -5.25,4.809997 l 0.43,0.37 c -0.54,0.42 -1.6,1.27 -2.13,1.69 -0.15,-11.179997 1.88,-22.519997 -0.3,-33.629997 -0.92,-3.48 -2.38,-7.6 -6.11,-8.9 -7.99,-3.06 -16.64,-1.29 -24.95,-1.79 0.87,-2.05 1.79,-4.08 2.73,-6.1 -0.64,-0.55 -1.3,-1.1 -1.95,-1.64 -2.74,0.56 -5.51,0.86 -8.3,1.02 1.54,2.49 3,5.03 4.79,7.36 -6.96,0.28 -13.99,2.01 -20.92,0.69 -3.66,-0.72 -5.08,-4.61 -6.07,-7.75 -0.82,-3.28 -2.47,-6.73 -1.26,-10.12 2.15,2.5 4.22,5.07 6.3,7.63 1.32,-3.55 3.02,-7.01 4.08,-10.62 l -0.29,-0.28 -0.4,-0.13 c -3.47,1.3 -7.24,1.25 -10.83,2 -0.26,-8.75 -1.59,-17.7 0.39,-26.35 m 77.19,3.23 c 0.61,3.96 1.13,7.96 2.36,11.79 2.51,-3.38 5.55,-6.31 8.330002,-9.46 -3.510002,-1 -7.090002,-1.71 -10.690002,-2.33 m -13.27,41.82 c 3.44,2.38 6.97,4.65 10.51,6.87 -0.2,-4.35 -1.07,-8.64 -1.72,-12.94 -3.16,1.68 -5.95,3.92 -8.79,6.07 z"
     id="path24"
     style="stroke-width:3;stroke-miterlimit:4;stroke-dasharray:none" />
  <path
     fill="#f48683"
     stroke="#f48683"
     stroke-width="0.09375"
     opacity="1"
     d="m 22.189888,12.865753 c 0.21,0.12 0.62,0.37 0.82,0.49 3.9,2.65 8.81,3.73 12.16,7.16 -4.2,1.7 -8.49,3.18 -12.91,4.18 -0.07,-3.95 -0.09,-7.89 -0.07,-11.83 z"
     id="path26" />
  <path
     fill="#b6bcbd"
     stroke="#b6bcbd"
     stroke-width="0.09375"
     opacity="1"
     d="m 46.359888,20.365753 c 0.01,-2.79 -2.02,-6.04 0.24,-8.37 0.56,0.46 1.69,1.39 2.25,1.86 0.11,2.13 0.2,4.25 0.26,6.38 -0.92,0.05 -1.83,0.09 -2.75,0.13 z"
     id="path28" />
  <path
     fill="#b3bbc1"
     stroke="#b3bbc1"
     stroke-width="0.09375"
     opacity="1"
     d="m 80.869888,13.165753 c 0.6,0 1.8,0 2.4,0 0.28,2.57 2.84,7.05 -0.62,8.22 -2.09,-2.17 -1.79,-5.45 -1.78,-8.22 z"
     id="path30" />
  <path
     fill="#b5bbc4"
     stroke="#b5bbc4"
     stroke-width="0.09375"
     opacity="1"
     d="m 105.37989,13.135753 c 0.97,-0.03 1.95,-0.05 2.93,-0.08 0.05,2.47 0.05,4.94 -0.03,7.41 -0.97,-0.04 -1.95,-0.08 -2.93,-0.11 0.02,-2.41 0.03,-4.81 0.03,-7.22 z"
     id="path32" />
  <path
     fill="#bbbec0"
     stroke="#bbbec0"
     stroke-width="0.09375"
     opacity="1"
     d="m 5.0398881,17.105753 c 0.64,-0.02 1.92,-0.06 2.56,-0.07 0.09,2.7 1.88,8.2 -2.56,7.77 -0.06,-2.56 -0.05,-5.13 0,-7.7 z"
     id="path34" />
  <path
     fill="#f58681"
     stroke="#f58681"
     stroke-width="0.09375"
     opacity="1"
     d="m 90.089888,19.065753 c 3.6,0.62 7.18,1.33 10.690002,2.33 -2.780002,3.15 -5.820002,6.08 -8.330002,9.46 -1.23,-3.83 -1.75,-7.83 -2.36,-11.79 z"
     id="path36" />
  <path
     fill="#b7bbc2"
     stroke="#b7bbc2"
     stroke-width="0.09375"
     opacity="1"
     d="m 46.279888,23.175753 c 0.97,-0.05 1.94,-0.1 2.91,-0.15 0.05,2.54 0.05,5.08 0,7.63 -0.98,-0.09 -1.97,-0.19 -2.95,-0.28 0.02,-2.4 0.03,-4.8 0.04,-7.2 z"
     id="path38" />
  <path
     fill="#b6beba"
     stroke="#b6beba"
     stroke-width="0.09375"
     opacity="1"
     d="m 82.299888,23.415753 c 0.89,-0.02 1.78,-0.03 2.68,-0.04 0.58,2.56 1.06,5.16 1.15,7.79 -0.91,0.06 -1.81,0.12 -2.72,0.19 -0.58,-2.62 -1.06,-5.26 -1.11,-7.94 z"
     id="path40" />
  <path
     fill="#b5bfbd"
     stroke="#b5bfbd"
     stroke-width="0.09375"
     opacity="1"
     d="m 105.13989,24.035753 c 0.09,-1.68 2.11,-0.57 3.05,-0.55 -0.68,2.51 0.62,7.15 -2.61,7.95 -1.98,-1.98 -0.69,-4.99 -0.44,-7.4 z"
     id="path42" />
  <path
     fill="#b6bcc0"
     stroke="#b6bcc0"
     stroke-width="0.09375"
     opacity="1"
     d="m 5.1198881,27.195753 c 0.92,0.1 1.85,0.19 2.77,0.29 0.08,2.54 0.1,5.08 0.06,7.63 -0.9,0.05 -1.8,0.11 -2.71,0.16 -0.25,-2.69 -0.29,-5.38 -0.12,-8.08 z"
     id="path44" />
  <path
     fill="#babdc0"
     stroke="#babdc0"
     stroke-width="0.09375"
     opacity="1"
     d="m 46.309888,33.435753 c 0.94,-0.03 1.87,-0.05 2.81,-0.07 0.05,2.59 0.04,5.18 -0.05,7.77 -0.92,0 -1.84,0 -2.75,0 -0.11,-2.56 -0.11,-5.13 -0.01,-7.7 z"
     id="path46" />
  <path
     fill="#babbb9"
     stroke="#babbb9"
     stroke-width="0.09375"
     opacity="1"
     d="m 104.35989,33.365753 c 0.89,0.06 1.77,0.12 2.65,0.19 0.08,2.71 -0.28,5.4 -0.9,8.03 -0.64,-0.17 -1.92,-0.5 -2.55,-0.66 -0.09,-2.55 0.38,-5.06 0.8,-7.56 z"
     id="path48" />
  <path
     fill="#b3bcbc"
     stroke="#b3bcbc"
     stroke-width="0.09375"
     opacity="1"
     d="m 84.349888,41.435753 c 0.21,-2.77 -1.96,-7.05 1.47,-8.41 1.58,2.51 1.41,5.49 1.4,8.32 -0.96,0.03 -1.91,0.06 -2.87,0.09 z"
     id="path50" />
  <path
     fill="#b0babf"
     stroke="#b0babf"
     stroke-width="0.09375"
     opacity="1"
     d="m 5.3398881,37.505753 c 0.88,-0.02 1.77,-0.04 2.65,-0.05 0.4,2.7 0.58,5.44 0.43,8.17 -0.98,-0.15 -1.96,-0.31 -2.94,-0.45 -0.16,-2.56 -0.22,-5.12 -0.14,-7.67 z"
     id="path52" />
  <path
     fill="#f68483"
     stroke="#f68483"
     stroke-width="0.09375"
     opacity="1"
     d="m 12.509888,42.185753 c 3.59,-0.75 7.36,-0.7 10.83,-2 l 0.4,0.13 0.29,0.28 c -1.06,3.61 -2.76,7.07 -4.08,10.62 -2.08,-2.56 -4.15,-5.13 -6.3,-7.63 -0.28,-0.35 -0.86,-1.05 -1.14,-1.4 z"
     id="path54" />
  <path
     fill="#b8bdba"
     stroke="#b8bdba"
     stroke-width="0.09375"
     opacity="1"
     d="m 76.289888,43.575753 c 2.65,-0.68 5.33,-1.26 8.06,-1.41 0.82,4.46 -5.11,3.52 -7.89,4.04 -0.06,-0.88 -0.11,-1.76 -0.17,-2.63 z"
     id="path56" />
  <path
     fill="#b5bbb9"
     stroke="#b5bbb9"
     stroke-width="0.09375"
     opacity="1"
     d="m 48.169888,48.165753 c -2.02,-0.63 -2.93,-4.18 -0.46,-4.87 0.93,0.66 1.84,1.34 2.73,2.06 0.65,0.07 1.96,0.2 2.61,0.26 0.07,0.91 0.15,1.82 0.22,2.72 -1.69,0.08 -3.45,0.38 -5.1,-0.17 z"
     id="path58" />
  <path
     fill="#b6beba"
     stroke="#b6beba"
     stroke-width="0.09375"
     opacity="1"
     d="m 65.999888,45.065753 c 2.62,-0.41 7.48,-2.76 8.35,0.93 -2.3,1.8 -5.41,1.33 -8.14,1.46 -0.06,-0.59 -0.16,-1.79 -0.21,-2.39 z"
     id="path60" />
  <path
     fill="#b6bcbc"
     stroke="#b6bcbc"
     stroke-width="0.09375"
     opacity="1"
     d="m 103.46989,43.575753 c 4.29,0.11 2.12,5.07 2.62,7.75 -1.02,0.08 -2.04,0.17 -3.05,0.25 -0.18,-2.68 -0.22,-5.38 0.43,-8 z"
     id="path62" />
  <path
     fill="#b7bbbd"
     stroke="#b7bbbd"
     stroke-width="0.09375"
     opacity="1"
     d="m 55.439888,47.885753 c 0,-4.14 5.3,-2.32 7.95,-2.78 0.04,0.68 0.12,2.04 0.16,2.71 -2.67,0.31 -5.51,1.13 -8.11,0.07 z"
     id="path64" />
  <path
     fill="#b1b8bb"
     stroke="#b1b8bb"
     stroke-width="0.09375"
     opacity="1"
     d="m 6.0598881,48.125753 c 0.66,-0.03 1.99,-0.1 2.65,-0.14 0.47,2.55 0.76,5.12 0.8,7.71 -1.03,-0.12 -2.06,-0.24 -3.09,-0.37 -0.2,-2.39 -0.32,-4.8 -0.36,-7.2 z"
     id="path66" />
  <path
     fill="#bbbfc2"
     stroke="#bbbfc2"
     stroke-width="0.09375"
     opacity="1"
     d="m 108.11989,50.505753 c 2.44,-0.03 4.88,-0.05 7.32,-0.05 0.03,0.68 0.11,2.05 0.14,2.73 -2.45,0.18 -4.91,0.25 -7.37,0.23 -0.03,-0.97 -0.06,-1.94 -0.09,-2.91 z"
     id="path68" />
  <path
     fill="#b9bcc1"
     stroke="#b9bcc1"
     stroke-width="0.09375"
     opacity="1"
     d="m 118.13989,50.625753 c 2.6,-1.09 5.5,-0.65 8.23,-0.52 -0.03,0.55 -0.09,1.65 -0.12,2.2 -2.51,0.19 -8.5,2.54 -8.11,-1.68 z"
     id="path70" />
  <path
     fill="#b7bec3"
     stroke="#b7bec3"
     stroke-width="0.09375"
     opacity="1"
     d="m 128.66989,51.805753 c 0.19,-0.63 0.58,-1.9 0.77,-2.54 1.16,0.44 2.32,0.88 3.49,1.31 0.8,1.78 1.27,3.69 1.31,5.65 -0.93,0.01 -1.85,0.03 -2.77,0.04 -0.1,-0.66 -0.31,-1.98 -0.41,-2.64 -0.8,-0.6 -1.6,-1.21 -2.39,-1.82 z"
     id="path72" />
  <path
     fill="#b2b1b1"
     stroke="#b2b1b1"
     stroke-width="0.09375"
     opacity="1"
     d="m 138.17989,49.305753 c 3.64,-0.1 3.95,3.74 4.13,6.46 0.39,7.63 0.25,15.36 -1.31,22.85 -0.29,2.43 -3.07,3.67 -5.26,3.4 -5.46,-0.58 -10.82,-2.23 -16.36,-1.82 -2.35,8.94 -0.19,18.22 -0.29,27.309997 -0.03,11.19 2.27,22.56 0.05,33.64 -5.89,2.23 -12.24,2.36 -18.43,3.01 -10.830002,-0.01 -22.130002,0.89 -32.450002,-3.03 -0.11,-0.7 -0.33,-2.11 -0.44,-2.81 13.81,2.66 28.05,2.22 41.920002,0.29 2.25,-0.57 5.63,-0.82 6.11,-3.66 1.06,-11.71 -0.81,-23.41 -0.76,-35.129997 -0.08,-7.87 -1.74,-15.83 0.19,-23.62 6.86,-0.77 13.57,2.45 20.38,0.95 1.67,-2.06 1.84,-4.82 2.25,-7.33 0.73,-6.8 0.72,-13.68 0.27,-20.51 z"
     id="path74" />
  <path
     fill="#f68581"
     stroke="#f68581"
     stroke-width="0.09375"
     opacity="1"
     d="m 37.109888,53.405753 c 2.79,-0.16 5.56,-0.46 8.3,-1.02 0.65,0.54 1.31,1.09 1.95,1.64 -0.94,2.02 -1.86,4.05 -2.73,6.1 -0.26,0.63 -0.79,1.89 -1.05,2.51 -0.42,-0.47 -1.26,-1.4 -1.68,-1.87 -1.79,-2.33 -3.25,-4.87 -4.79,-7.36 z"
     id="path76" />
  <path
     fill="#f58683"
     stroke="#f58683"
     stroke-width="0.09375"
     opacity="1"
     d="m 76.819888,60.885753 c 2.84,-2.15 5.63,-4.39 8.79,-6.07 0.65,4.3 1.52,8.59 1.72,12.94 -3.54,-2.22 -7.07,-4.49 -10.51,-6.87 z"
     id="path78" />
  <path
     fill="#f58681"
     stroke="#f58681"
     stroke-width="0.09375"
     opacity="1"
     d="m 124.12989,57.765753 c 1.14,-0.44 2.33,-0.67 3.51,-0.96 -0.26,3.79 -1.49,7.4 -2.62,11 -1.24,-1.07 -2.51,-2.1 -3.8,-3.11 -1.51,-1.1 -2.82,-2.45 -3.78,-4.06 2.24,-0.93 4.46,-1.91 6.69,-2.87 z"
     id="path80" />
  <path
     fill="#b6bcba"
     stroke="#b6bcba"
     stroke-width="0.09375"
     opacity="1"
     d="m 7.2198881,58.355753 c 0.91,0 1.83,0 2.74,0 0.4199999,2.53 1.3199999,5.07 0.9299999,7.66 -0.58,0.02 -1.7399999,0.06 -2.3099999,0.08 -1.08,-2.43 -1.35,-5.11 -1.36,-7.74 z"
     id="path82" />
  <path
     fill="#b7bcbb"
     stroke="#b7bcbb"
     stroke-width="0.09375"
     opacity="1"
     d="m 131.37989,59.185753 c 0.97,-0.04 1.94,-0.09 2.91,-0.13 -0.07,2.37 -0.18,4.74 -0.3,7.11 -0.94,0.14 -3.13,1.27 -2.92,-0.58 -0.06,-2.14 0.17,-4.27 0.31,-6.4 z"
     id="path84" />
  <path
     fill="#b7bac1"
     stroke="#b7bac1"
     stroke-width="0.09375"
     opacity="1"
     d="m 40.809888,67.755753 c 2.46,-2.04 5.74,-1.55 8.7,-1.62 -0.25,1.02 0.37,2.93 -1.25,2.95 -2.52,0.22 -5.78,1.28 -7.45,-1.33 z"
     id="path86" />
  <path
     fill="#b8bdb9"
     stroke="#b8bdb9"
     stroke-width="0.09375"
     opacity="1"
     d="m 51.829888,68.535753 c -0.52,-4 4.53,-2.84 7.02,-2.87 2.03,-0.01 1.7,3.15 -0.17,2.91 -2.27,0.3 -4.57,0.09 -6.85,-0.04 z"
     id="path88" />
  <path
     fill="#b5bfba"
     stroke="#b5bfba"
     stroke-width="0.09375"
     opacity="1"
     d="m 62.319888,68.055753 c -0.59,-3.69 4.32,-2.17 6.41,-1.71 1.76,-0.01 1.43,1.94 1.67,3.13 -2.73,-0.19 -5.54,-0.31 -8.08,-1.42 z"
     id="path90" />
  <path
     fill="#b2bcbb"
     stroke="#b2bcbb"
     stroke-width="0.09375"
     opacity="1"
     d="m 31.189888,67.525753 c 2.68,-0.47 5.4,-0.74 8.12,-0.4 0.02,0.58 0.07,1.74 0.09,2.32 -2.63,0.67 -5.35,0.89 -8.06,0.82 -0.04,-0.92 -0.1,-1.83 -0.15,-2.74 z"
     id="path92" />
  <path
     fill="#bbbeba"
     stroke="#bbbeba"
     stroke-width="0.09375"
     opacity="1"
     d="m 10.499888,67.905753 c 2.6,0.08 5.19,0.21 7.78,0.4 0.05,0.67 0.16,2.01 0.22,2.68 -2.68,0.21 -8.8799999,1.27 -8,-3.08 z"
     id="path94" />
  <path
     fill="#bbbabc"
     stroke="#bbbabc"
     stroke-width="0.09375"
     opacity="1"
     d="m 20.939888,68.245753 c 2.64,-0.3 5.37,-0.88 8,-0.11 0.02,0.46 0.08,1.38 0.1,1.84 -2.33,1.25 -5.09,0.95 -7.64,1.2 -0.15,-0.98 -0.31,-1.95 -0.46,-2.93 z"
     id="path96" />
  <path
     fill="#bebbc3"
     stroke="#bebbc3"
     stroke-width="0.09375"
     opacity="1"
     d="m 108.12989,71.075753 c 0.2,-2.22 2.75,-2.13 4.39,-1.91 -0.96,2.45 -1.95,4.89 -2.65,7.43 -3.02,-0.11 -1.84,-3.56 -1.74,-5.52 z"
     id="path98" />
  <path
     fill="#babdbe"
     stroke="#babdbe"
     stroke-width="0.09375"
     opacity="1"
     d="m 113.73989,70.885753 c 1.83,-3.23 5.86,-1.02 8.65,-0.7 0.01,0.6 0.01,1.81 0.01,2.42 -2.98,0.04 -6.05,-0.09 -8.66,-1.72 z"
     id="path100" />
  <path
     fill="#b0babe"
     stroke="#b0babe"
     stroke-width="0.09375"
     opacity="1"
     d="m 124.86989,70.825753 c 2.65,-0.21 4.97,-1.84 7.65,-1.8 0.33,4.14 -4.35,4.79 -7.46,4.38 -0.05,-0.64 -0.15,-1.94 -0.19,-2.58 z"
     id="path102" />
  <path
     fill="#b3bcbc"
     stroke="#b3bcbc"
     stroke-width="0.09375"
     opacity="1"
     d="m 69.339888,71.425753 c 0.99,-0.11 1.97,-0.22 2.96,-0.34 -0.26,2.8 1.6,7.07 -1.68,8.55 -1.57,-2.48 -1.25,-5.43 -1.28,-8.21 z"
     id="path104" />
  <path
     fill="#b2b1b1"
     stroke="#b2b1b1"
     stroke-width="0.09375"
     opacity="1"
     d="m 6.5898881,75.365753 c 15.3899999,0.74 30.7299999,-0.83 46.0999999,-1.28 4.56,-0.45 9.16,-0.66 13.69,0.17 1.01,5.42 0.04,10.9 -0.33,16.33 -1.08,9.849997 -1.51,19.759997 -2.67,29.599997 -0.73,-5.81 0.45,-11.58 0.74,-17.37 0.35,-8.229997 1.66,-16.399997 1.88,-24.639997 -18.76,-0.29 -37.46,2.29 -56.2299999,1.13 -2.2,0.19 -2.65,-2.37 -3.18,-3.94 z"
     id="path106" />
  <path
     fill="#b2bdbe"
     stroke="#b2bdbe"
     stroke-width="0.09375"
     opacity="1"
     d="m 107.51989,86.115753 c 0.26,-2.85 -1.42,-7.12 2.43,-8.14 0.62,2.86 0.58,5.8 0.39,8.71 -0.94,-0.2 -1.89,-0.39 -2.82,-0.57 z"
     id="path108" />
  <path
     fill="#b9bcc1"
     stroke="#b9bcc1"
     stroke-width="0.09375"
     opacity="1"
     d="m 69.469888,81.525753 c 0.9,-0.1 1.81,-0.19 2.72,-0.29 0.13,2.69 0.07,5.39 -0.14,8.08 -0.93,-0.05 -1.86,-0.09 -2.79,-0.14 -0.01,-2.55 0.06,-5.1 0.21,-7.65 z"
     id="path110" />
  <path
     fill="#f68483"
     stroke="#f68483"
     stroke-width="0.09375"
     opacity="1"
     d="m 100.40989,81.155753 c 0.61,1.32 1.21,2.64 1.77,3.99 0.88,2.17 1.63,4.39 2.46,6.59 -0.46,-0.05 -1.37,-0.15 -1.83,-0.2 -3.080002,-0.32 -6.140002,-0.81 -9.200002,-1.31 2.26,-3.03 4.57,-6.02 6.800002,-9.07 z"
     id="path112" />
  <path
     fill="#babec2"
     stroke="#babec2"
     stroke-width="0.09375"
     opacity="1"
     d="m 108.05989,88.985753 c 4.22,-0.66 2.77,4.82 3.1,7.38 -0.99,0.1 -1.97,0.21 -2.96,0.31 -0.12,-2.56 -0.17,-5.13 -0.14,-7.69 z"
     id="path114" />
  <path
     fill="#b4bbbf"
     stroke="#b4bbbf"
     stroke-width="0.09375"
     opacity="1"
     d="m 69.209888,91.945753 c 0.94,0.09 1.88,0.19 2.82,0.28 -0.07,2.32 -0.13,4.65 -0.18,6.97 -0.89,0.14 -1.79,0.25 -2.69,0.33 -1.42,-2.3 0.1,-5.07 0.05,-7.58 z"
     id="path116" />
  <path
     fill="#f68682"
     stroke="#f68682"
     stroke-width="0.09375"
     opacity="1"
     d="m 77.689888,102.38575 c 1.7,-1.66 3.44,-3.259997 5.25,-4.809997 1.14,3.439997 2.1,6.949997 2.73,10.529997 -3.34,-0.67 -6.67,-1.36 -10,-2.09 -0.25,-0.06 -0.76,-0.17 -1.01,-0.23 0.33,-0.33 1,-1 1.33,-1.34 0.53,-0.42 1.59,-1.27 2.13,-1.69 z"
     id="path118" />
  <path
     fill="#b4bdbf"
     stroke="#b4bdbf"
     stroke-width="0.09375"
     opacity="1"
     d="m 108.52989,99.655753 c 0.85,-0.22 1.73,-0.34 2.62,-0.34 0.17,2.679997 0.2,5.359997 0.09,8.039997 -0.93,-0.09 -1.85,-0.18 -2.77,-0.28 -0.07,-2.47 -0.37,-4.97 0.06,-7.419997 z"
     id="path120" />
  <path
     fill="#b6bcbf"
     stroke="#b6bcbf"
     stroke-width="0.09375"
     opacity="1"
     d="m 68.299888,102.29575 c 0.94,-0.04 1.88,-0.07 2.83,-0.1 -0.01,2.35 0.12,4.72 -0.18,7.07 -0.81,1.05 -1.74,1.16 -2.79,0.35 -0.17,-2.44 0.03,-4.88 0.14,-7.32 z"
     id="path122" />
  <path
     fill="#b7bbc2"
     stroke="#b7bbc2"
     stroke-width="0.09375"
     opacity="1"
     d="m 108.91989,109.83575 c 4.18,-0.95 2.87,4.87 3.17,7.31 -1,0.17 -1.99,0.35 -2.98,0.53 -0.15,-2.61 -0.21,-5.23 -0.19,-7.84 z"
     id="path124" />
  <path
     fill="#b8babe"
     stroke="#b8babe"
     stroke-width="0.09375"
     opacity="1"
     d="m 67.429888,113.51575 c 0.64,-0.36 1.93,-1.08 2.57,-1.44 0.69,2.75 0.39,5.6 0.18,8.39 -0.93,-0.1 -1.86,-0.21 -2.78,-0.32 -0.01,-2.21 0,-4.42 0.03,-6.63 z"
     id="path126" />
  <path
     fill="#f48781"
     stroke="#f48781"
     stroke-width="0.09375"
     opacity="1"
     d="m 94.039888,118.72575 c 2.2,0.32 4.07,1.49 5.69,2.96 1.270002,1.11 2.570002,2.19 3.850002,3.29 0.72,0.62 1.41,1.28 2.09,1.94 -5.25,0.48 -10.470002,1.37 -15.750002,1.62 1.44,-3.25 2.82,-6.51 4.12,-9.81 z"
     id="path128" />
  <path
     fill="#b5bbbe"
     stroke="#b5bbbe"
     stroke-width="0.09375"
     opacity="1"
     d="m 109.18989,120.20575 c 0.95,0.06 1.91,0.12 2.86,0.18 0.04,2.31 0.05,4.62 0.05,6.93 -0.65,0.27 -1.94,0.8 -2.58,1.06 -0.68,-2.68 -0.47,-5.44 -0.33,-8.17 z"
     id="path130" />
  <path
     fill="#b9bdbe"
     stroke="#b9bdbe"
     stroke-width="0.09375"
     opacity="1"
     d="m 67.319888,123.28575 c 0.93,-0.09 1.86,-0.17 2.79,-0.25 0.24,2.3 0.59,4.58 0.76,6.88 -0.76,1.38 -2.28,0.45 -3.37,0.21 -0.06,-2.28 -0.13,-4.56 -0.18,-6.84 z"
     id="path132" />
  <path
     fill="#b8bcbf"
     stroke="#b8bcbf"
     stroke-width="0.09375"
     opacity="1"
     d="m 102.64989,134.07575 c -0.11,-3.74 5.01,-3.18 7.64,-4.11 0.03,0.67 0.09,2.01 0.12,2.68 -2.47,0.87 -5.1,2.58 -7.76,1.43 z"
     id="path134" />
  <path
     fill="#b8bdbf"
     stroke="#b8bdbf"
     stroke-width="0.09375"
     opacity="1"
     d="m 71.929888,131.01575 c 2.63,0.46 5.44,0.51 7.83,1.81 -0.19,0.63 -0.58,1.89 -0.77,2.52 -2.66,-0.83 -8.17,0.04 -7.06,-4.33 z"
     id="path136" />
  <path
     fill="#b6bbbe"
     stroke="#b6bbbe"
     stroke-width="0.09375"
     opacity="1"
     d="m 95.149888,132.48575 c 2.03,-0.42 6.840002,-0.74 4.76,2.58 -2.44,0.54 -5.02,0.7 -7.47,0.17 -1.41,-1.97 1.18,-2.71 2.71,-2.75 z"
     id="path138" />
  <path
     fill="#babcba"
     stroke="#babcba"
     stroke-width="0.09375"
     opacity="1"
     d="m 81.959888,132.91575 c 2.9,-0.52 5.9,-0.5 8.67,0.63 -1.25,3.57 -5.74,1.65 -8.56,1.82 -0.03,-0.61 -0.08,-1.84 -0.11,-2.45 z"
     id="path140" />
</svg>
