<?xml version="1.0" encoding="UTF-8" standalone="no"?>
<svg
   xmlns:dc="http://purl.org/dc/elements/1.1/"
   xmlns:cc="http://creativecommons.org/ns#"
   xmlns:rdf="http://www.w3.org/1999/02/22-rdf-syntax-ns#"
   xmlns:svg="http://www.w3.org/2000/svg"
   xmlns="http://www.w3.org/2000/svg"
   width="119.82019pt"
   height="153.25473pt"
   viewBox="0 0 119.82019 153.25473"
   version="1.1"
   id="svg182">
  <metadata
     id="metadata188">
    <rdf:RDF>
      <cc:Work
         rdf:about="">
        <dc:format>image/svg+xml</dc:format>
        <dc:type
           rdf:resource="http://purl.org/dc/dcmitype/StillImage" />
        <dc:title></dc:title>
      </cc:Work>
    </rdf:RDF>
  </metadata>
  <defs
     id="defs186" />
  <path
     fill="#edbb58"
     stroke="#edbb58"
     stroke-width="0.09375"
     opacity="1"
     d="m 9.1068328,3.230455 c 8.9100002,-1.97 18.0700002,-2.37999999 27.1800002,-2.43999999 13.87,-1.11 27.83,-0.88 41.71,0.05 6.52,0 13.04,0.67999999 19.34,2.39999999 0.47,1.07 0.98,2.13 1.4,3.23 2.589997,7.74 3.439997,16 2.989997,24.12 -0.24,2.83 -0.7,6.36 -3.559997,7.76 -2.5,1.02 -5.29,0.79 -7.93,0.91 -7.95,-0.09 -15.92,0.1 -23.84,-0.73 -7.18,-0.72 -14.36,-1.46 -21.57,-1.81 -0.78,3.87 -1.71,7.85 -1.03,11.81 0.19,2.03 2.22,2.97 3.72,3.94 8.96,0.5 18.02,-0.1 26.89,1.67 11.54,1.96 24.5,4.44 32.409997,13.89 5.1,8.46 6.78,18.4 8.22,28.03 1.72,14.320005 1.72,30.270005 -6.69,42.660005 -4.28,6.73 -12.539997,9.19 -20.039997,10.04 -11.93,1.01 -23.93,-0.05 -35.71,-1.99 -16.42,-2.72 -32.73,-6.53 -48.2900002,-12.49 -1.48,-0.68 -2.97,-1.73 -3.34999997,-3.42 -1.27,-4.95 -0.96,-10.13 -0.56,-15.18 0.78999997,-9.15 1.92999997,-18.340005 4.59999997,-27.150005 0.58,-2.25 2.03,-4.09 3.67,-5.68 17.1800002,3.22 33.5900002,9.41 49.9400002,15.43 3.56,1.23 6.89,3.390005 10.7,3.700005 4.91,-0.81 8.43,-6.970005 5.76,-11.460005 -2.59,-3.42 -6.67,-5.11 -10.66,-6.28 -16.87,-4.88 -34.27,-7.55 -51.38,-11.37 -0.97,-0.31 -1.93,-0.64 -2.88,-0.99 -3.8300002,-12.11 -3.3400002,-24.91 -4.0800002,-37.43 1.05,-10.4 -0.33,-21.13 3.04,-31.22 m 15.7800002,1.88 c -0.07,1.06 -0.16,2.12 -0.26,3.18 2.73,-0.09 5.45,-0.25 8.17,-0.43 0,-1.01 0,-2.02 0,-3.03 -2.64,0.06 -5.27,0.16 -7.91,0.28 m 9.04,1.56 c 2.67,0.66 5.56,1.66 8.3,0.69 1.6,-0.39 1.86,-1.32 0.76,-2.78 -3.15,-0.83 -6.84,-0.59 -9.06,2.09 m 12.15,-2.55 c -0.18,0.72 -0.53,2.16 -0.7,2.88 2.84,0.28 5.71,0.33 8.57,0.21 -0.12,-1.04 -0.21,-2.08 -0.28,-3.12 -2.53,0 -5.06,0 -7.59,0.03 m 8.79,1.31 c 2.55,2.36 6.07,1.89 9.24,1.93 0.1,-0.81 0.29,-2.44 0.38,-3.25 -3.27,-0.21 -6.64,-0.27 -9.62,1.32 m 11.58,-1.21 c -0.23,4.66 5.43,3.08 8.36,3.55 -0.03,-0.87 -0.07,-2.62 -0.1,-3.49 -2.75,-0.04 -5.51,-0.07 -8.26,-0.06 m 9.47,2.32 c 2.37,0.81 4.82,1.9 7.39,1.6 1.95,0.15 2.64,-0.78 2.07,-2.78 -3.15,-0.94 -6.93,-1.4 -9.46,1.18 m 12.39,-1.26 c -0.27,0.92 -0.55,1.83 -0.83,2.75 1.81,0.67 3.67,1.24 5.36,2.18 1.53,1.66 2.33,3.83 3.4,5.78 0.71,-0.34 2.12,-1.02 2.82,-1.36 -1.14,-2.4 -1.96,-5.06 -3.82,-7.02 -1.98,-1.52 -4.6,-1.68 -6.93,-2.33 m -73.9,4.3 c 3.18,0.24 7.88,0.17 8.73,-3.74 -2.28,0.04 -4.6,-0.03 -6.83,0.53 -1.37,0.11 -3.35,1.87 -1.9,3.21 m 21.05,0.63 -0.01,0.27 c -6.28,0.83 -15.12,0.36 -18.02,7.32 -3.2,8.93 -3.2,18.63 -3.07,28 l -0.2,0.95 c 0.44,2.96 0.81,5.93 1.2,8.9 0.43,-0.32 1.29,-0.94 1.72,-1.25 0.15,0.86 0.43,2.59 0.57,3.45 l -1.32,0.57 c 3.37,4.99 9.29,6.96 14.91,8.13 8.29,1.7 16.43,4.49 24.96,4.77 2.3,1.24 5.15,3.39 7.77,1.99 4.72,1.93 9.95,3.09 13.88,6.53 2.21,1.87 3.59,4.45 4.87,6.99 -0.13,3.6 -0.39,7.52 1.69,10.68 -1.34,3.720005 -2.79,7.590005 -5.73,10.370005 -2.99,2.85 -7.08,3.97 -10.93,5.14 -3.08,-0.89 -6.3,-1.08 -9.48,-1.36 -4.44,-0.42 -8.49,-2.39 -12.66,-3.81 -4.35,-1.81 -8.69,-3.64 -13.08,-5.35 -0.35,0.32 -1.05,0.95 -1.4,1.27 -0.24,-0.64 -0.7,-1.92 -0.93,-2.56 -2.17,0.81 -4.26,1.83 -6.26,3.02 0.23,-3.53 0.19,-7.290005 -2.45,-10.000005 -1.07,0.85 -2.1,1.75 -3.09,2.7 l 0.12,-1.38 c -1.41,0.43 -2.83,0.87 -4.24,1.31 0.35,1.43 0.08,3.210005 1.29,4.280005 -1.05,-0.02 -3.15,-0.05 -4.2,-0.07 0.11,3.14 2.57,5.38 5.51,6.05 -4.6,1.31 -6.69,6.78 -5.41,11.12 1.67,5.9 6.27,11.23 12.42,12.61 4.1,1.37 8.27,2.6 12.57,3.18 12.8,1.87 25.64,4.49 38.64,3.97 1.91,0.98 3.82,2.23 6.06,2.25 -0.09,0.97 -0.27,2.92 -0.36,3.9 2.74,-0.28 5.47,-0.62 8.2,-1 0,-0.75 0.01,-2.24 0.01,-2.99 -0.64,0.02 -1.93,0.06 -2.57,0.08 3.97,-1.5 8.35,-3.12 10.87,-6.74 -0.24,-0.45 -0.72,-1.36 -0.96,-1.81 3.829997,-3.05 7.369997,-6.85 8.439997,-11.8 2.11,-10.11 1.6,-20.670005 -0.77,-30.690005 -0.11,-2.78 -1.96,-5.03 -3.32,-7.31 -0.799997,-0.01 -2.409997,-0.01 -3.219997,-0.01 1.73,-1.55 3.429997,-3.14 5.079997,-4.77 -1.77,-0.41 -3.679997,-1.22 -5.449997,-0.28 0.79,-0.78 1.57,-1.55 2.35,-2.33 -3.33,-4.71 -8.36,-7.78 -13.54,-10.1 2.13,0.29 4.09,-0.48 5.63,-1.94 -2.75,-1.15 -5.6,-2 -8.51,-2.65 -0.3,0.73 -0.89,2.18 -1.19,2.91 1.25,0.56 2.5,1.15 3.79,1.63 -4.73,0.01 -9.42,-0.59 -14.15,-0.65 -6.3,-1.9 -12.91,-1.97 -19.38,-1.02 -5.82,-0.06 -11.06,-2.54 -16.34,-4.64 0.01,-1.3 0.1,-2.6 -0.04,-3.89 -1.45,-1.21 -3.15,-2.06 -4.76,-3.03 3.68,-1.57 5.61,-5.45 6.07,-9.25 0.3,0.53 0.89,1.58 1.19,2.1 1.26,-2.68 2.63,-5.41 2.99,-8.39 -0.66,-0.95 -1.53,-1.19 -2.6,-0.73 -1.1,1.68 -1.65,3.64 -2.34,5.51 -1,-1.97 -1.87,-4.02 -3.11,-5.86 2.58,-3.88 6.25,-7.03 11.02,-7.67 0.77,-0.16 2.31,-0.48 3.08,-0.64 6.16,1.11 12.45,0.7 18.64,1.51 5.96,3.97 13.31,2.7 19.99,2.1 2.31,-0.53 5.79,-0.08 6.58,-2.99 1.05,-4.8 0.94,-10.45 -2.02,-14.58 -3.62,-2.47 -8.31,-2.2 -12.48,-2.77 -0.01,0.56 -0.02,1.68 -0.03,2.24 -0.53,-2.66 -3.14,-1.73 -5.04,-1.58 -0.01,-0.34 -0.02,-1.03 -0.02,-1.37 -7,-0.05 -14.03,-0.25 -21,0.58 -5.45,-0.86 -10.94,0.85 -16.43,0.88 m -25.07,8.74 c 1.1,0.06 2.2,0.12 3.3,0.21 0.42,-2.8 0.81,-5.6 1.11,-8.42 -4.54,-0.1 -3.63,5.21 -4.41,8.21 m 86.07,-0.94 c 0.26,2.85 0.65,5.7 1.26,8.5 0.75,-0.46 2.25,-1.38 3.009997,-1.85 -0.42,-2.27 -0.799997,-4.56 -1.199997,-6.84 -1.02,0.09 -2.05,0.15 -3.07,0.19 m -86.6100002,4.06 c -0.04,2.56 -0.08,5.12 -0.08,7.68 0.7600002,-0.09 2.2900002,-0.28 3.0600002,-0.37 0.12,-2.6 0.23,-5.2 0.32,-7.8 -1.1,0.18 -2.2,0.34 -3.3000002,0.49 m 83.6200002,12.59 c 0.74,0.29 2.21,0.88 2.95,1.18 2.13,-2.3 3.619997,-5.11 3.47,-8.35 -3.4,1.01 -4.71,4.44 -6.42,7.17 m -52.09,-3.17 c -0.3,1.59 0.32,2.41 1.84,2.46 2.73,0.23 6.52,0.66 7.43,-2.73 -3.05,-0.4 -6.37,-1.22 -9.27,0.27 m 10.01,-0.23 c 0.79,4.37 6.48,4.03 9.54,2.38 -1.46,-3.74 -6.46,-1.89 -9.54,-2.38 m -41.8400002,9.11 c 1.0100002,-0.18 2.0100002,-0.36 3.0200002,-0.53 0.02,-2.69 0.04,-5.39 0.03,-8.09 -4.8300002,-0.31 -3.1200002,5.62 -3.0500002,8.62 m 52.9000002,-5.95 c 2.85,1.6 6.24,0.88 9.31,0.53 -0.86,-1.84 -2.46,-2.99 -4.52,-2.93 -1.87,-0.15 -5.76,-0.63 -4.79,2.4 m 9.35,0.15 c 3.43,1.62 7.6,2.56 10.81,-0.1 -3.27,-1.96 -7.84,-2.96 -10.81,0.1 m 12.06,1.45 c 2.86,0.78 5.86,0.18 8.75,-0.14 -0.79,-3.54 -4.69,-2.86 -7.41,-2.68 -1.57,-0.01 -2.65,1.62 -1.34,2.82 m -74.4800002,6.51 c -0.02,2.61 0,5.23 0.06,7.84 0.7800002,0.09 2.3500002,0.27 3.1300002,0.36 0.03,-2.6 0.04,-5.2 0.05,-7.8 -1.08,-0.13 -2.16,-0.26 -3.2400002,-0.4 m 27.0500002,2.38 c 0.33,3.22 0.02,8.4 4.59,8.41 -0.47,-2.87 -1.1,-5.7 -1.79,-8.52 -0.7,0.03 -2.1,0.09 -2.8,0.11 m -26.7700002,7.77 c 0.5700002,3.11 -0.83,9.17 4.0900002,8.73 -0.65,-3.07 0.77,-9.04 -4.0900002,-8.73 m 31.3600002,1.46 c -0.65,4.24 4.66,4.95 7.75,5.34 0.02,-0.63 0.08,-1.89 0.1,-2.51 -2.5,-1.22 -5,-2.71 -7.85,-2.83 m 9.53,2.97 c -0.34,4.6 5.15,3.44 8.1,4.05 0.13,-1.11 0.27,-2.22 0.42,-3.33 -2.84,-0.3 -5.68,-0.55 -8.52,-0.72 m 10.83,1.01 c 0.03,0.76 0.09,2.27 0.11,3.03 3.1,0.52 6.32,0.92 9.3,-0.39 -2.24,-3.08 -6.08,-2.63 -9.41,-2.64 m 10.08,0.85 c -0.21,4.55 5.15,3.25 8.08,4.08 0.2,-1.09 0.42,-2.17 0.64,-3.26 -2.9,-0.41 -5.8,-0.7 -8.72,-0.82 m -54.15,11.25 c 0.3,-0.62 0.9,-1.88 1.2,-2.51 -2.01,-1.66 -3.93,-3.42 -5.81,-5.24 -2.7300002,3.72 1.12,7.03 4.61,7.75 m 74.94,-4.76 c 2.48,1.52 5.08,2.86 7.839997,3.79 0.37,-4.22 -3.989997,-5.34 -6.979997,-6.72 -0.21,0.73 -0.64,2.19 -0.86,2.93 m -71.56,2.32 c -2.05,2.32 1.8,2.91 3.43,3.36 1.92,0.18 5.09,1.08 4.85,-1.93 -2.47,-1.47 -5.46,-1.9 -8.28,-1.43 m 9.95,1.69 c 0.02,0.64 0.05,1.93 0.07,2.58 2.68,0.6 5.38,1.16 8.08,1.68 -0.26,-1.18 0.68,-3.21 -1.07,-3.47 -2.24,-0.91 -4.71,-0.69 -7.08,-0.79 m 69.809997,2.26 c 1.39,2.1 1.73,6.11 5,5.72 0.94,-2.66 -1.13,-5.07 -2.02,-7.44 -0.99,0.58 -1.98,1.15 -2.98,1.72 m -59.769997,0.74 c 1.3,2.86 5.03,2.4 7.59,3.31 0.46,-0.65 1.37,-1.94 1.83,-2.59 -2.97,-0.7 -6.83,-3.4 -9.42,-0.72 m 10.83,0.95 c 0,0.73 0,2.21 0.01,2.94 2.56,0.66 5.16,1.85 7.86,1.34 0.06,-0.57 0.18,-1.7 0.24,-2.27 -2.51,-1.29 -5.35,-1.63 -8.11,-2.01 m 10.97,2.94 c -0.43,0.56 -1.28,1.67 -1.71,2.23 3.09,1.08 7.02,4.3 9.84,0.93 -2.56,-1.36 -5.15,-3.03 -8.13,-3.16 m 42.209997,5.05 c 0.54,2.62 1.29,6.69 4.94,5.78 -0.61,-2.71 -1.16,-5.48 -2.42,-7.99 -1.98,-0.45 -2.82,0.28 -2.52,2.21 m -33.889997,-0.37 c 0.19,3.63 3.79,5.77 6.95,6.61 0.03,-0.69 0.09,-2.06 0.12,-2.75 -2.09,-1.71 -3.96,-4.67 -7.07,-3.86 m -62.9200002,11.6 c -0.23,1.52 -1.3,4.5 1.37,3.78 2.1700002,-1.68 2.5100002,-4.8 3.6900002,-7.16 -0.73,-0.25 -2.21,-0.75 -2.9400002,-0.99 -0.76,1.43 -1.63,2.81 -2.12,4.37 m 6.8900002,-4.03 c -0.06,0.73 -0.18,2.19 -0.24,2.93 2.87,0.92 5.81,1.61 8.83,1.76 -0.64,-4.17 -5.33,-4.1 -8.59,-4.69 m 62.9,-0.38 c -0.1,2.84 -0.06,5.72 0.6,8.5 1.58,0.99 2.63,0.61 3.17,-1.12 0.11,-2.89 -0.43,-6.57 -3.77,-7.38 m 31.289997,9.83 c 0.72,-0.34 2.18,-1.02 2.91,-1.36 -0.58,-2.95 -1.33,-5.86 -2.53,-8.62 -3.24,2.67 -1.15,6.7 -0.38,9.98 m -84.689997,-6.2 c 0.4,4.5 5.58,4.6 8.94,5.21 -0.44,-4.49 -5.59,-4.55 -8.94,-5.21 m 9.66,6.36 c 2.09,0.87 4.16,1.840005 6.37,2.390005 1.87,1.28 3.32,-1.950005 1.56,-2.640005 -2.39,-1.33 -6.99,-3.98 -7.93,0.25 m -27.0400002,-0.22 c -0.74,3.050005 -1.15,6.180005 -1.14,9.330005 4.3200002,-0.07 3.34,-5.12 4.15,-8.020005 -0.75,-0.33 -2.25,-0.98 -3.01,-1.31 m 37.1600002,2.500005 c 0.76,3.22 4.75,3.33 7.24,4.56 0.4,-0.68 1.19,-2.05 1.58,-2.74 -2.77,-0.88 -5.97,-3.770005 -8.82,-1.82 m 29.24,6.03 c 4.41,0.1 6.71,-4.08 6.68,-7.990005 -3.7,1.11 -5.58,4.560005 -6.68,7.990005 m 35.879997,-6.850005 c 0.31,3.030005 -1.39,8.840005 3.43,8.540005 -0.1,-2.77 -0.27,-5.54 -0.47,-8.310005 -0.74,-0.06 -2.22,-0.17 -2.96,-0.23 m -56.169997,4.490005 c 2.16,2.72 5.44,4.32 8.94,4.03 0.85,-4.48 -5.88,-4.79 -8.94,-4.03 m 11.34,2.78 c -0.05,0.78 -0.14,2.32 -0.18,3.09 2.76,-0.16 5.5,-0.53 8.21,-1.12 -0.15,-0.78 -0.45,-2.34 -0.59,-3.12 -2.49,0.38 -4.97,0.77 -7.44,1.15 m -59.2000002,8.8 c 0.3,1.8 2.26,1.22 3.55,1.48 0,-2.84 -0.02,-5.69 -0.07,-8.53 -3.95,-0.37 -4,4.32 -3.48,7.05 m 104.0899972,-3.32 c -0.04,2.15 -1.58,7.14 2.2,6 1.3,-2.68 0.97,-5.76 1.17,-8.63 -1.72,0.11 -3.46,0.53 -3.37,2.63 m -103.4699972,6.73 c 0.01,2.49 0.04,4.98 0.08,7.48 0.75,0.43 2.26,1.29 3.01,1.72 0.1,-2.8 0.06,-5.6 -0.05,-8.4 -0.76,-0.2 -2.28,-0.6 -3.04,-0.8 m 102.6799972,0.79 c -0.94,2.59 -1.84,5.19 -2.72,7.8 1.08,0.25 2.16,0.51 3.25,0.77 0.79,-2.26 1.7,-4.51 1.97,-6.91 -0.62,-0.41 -1.88,-1.24 -2.5,-1.66 m -99.9299972,8.74 c -0.03,1.84 0.31,3.74 2.3200002,4.31 1.9,0.78 5.39,2.54 5.99,-0.59 -2.36,-2.01 -5.42,-2.82 -8.3100002,-3.72 m 95.2699972,2.15 c -1.59,1.38 -2.89,3.08 -3.989997,4.88 0.549997,0.94 1.719997,1.89 2.789997,1.1 2.34,-1.49 4.15,-4.01 4.11,-6.89 -0.73,0.23 -2.18,0.68 -2.91,0.91 m -85.659997,2.45 c 0.3,3.85 5.64,3.9 8.59,3.64 -0.07,-0.59 -0.21,-1.76 -0.28,-2.34 -2.56,-1.14 -5.54,-2.41 -8.31,-1.3 m 10.34,1.76 c 0.04,1.78 0.54,3.68 2.65,3.86 2.16,0.42 6.18,2.1 5.88,-1.58 -2.65,-1.37 -5.62,-1.83 -8.53,-2.28 m 10.09,3.3 c 0.59,3.65 5.36,2.64 8.04,3.62 0.23,-1.07 0.47,-2.13 0.72,-3.18 -2.87,-0.38 -6,-2 -8.76,-0.44 m 52.4,3.51 c 3.01,0.53 5.75,-1.07 8.49,-2.04 -0.73,-0.73 -0.54,-3.18 -2.01,-2.56 -2.47,0.74 -7.02,1.06 -6.48,4.6 m -42.11,0.31 c 3.06,0.5 6.16,0.84 9.27,0.92 -0.25,-4.05 -4.92,-3.68 -7.85,-3.77 -0.51,0.93 -0.98,1.88 -1.42,2.85 m 10.68,1.63 c 2.9,0.11 5.81,0.16 8.72,0.11 -0.11,-0.73 -0.34,-2.19 -0.46,-2.92 -2.22,-0.23 -4.45,-0.54 -6.69,-0.47 -1.58,0.3 -1.18,2.15 -1.57,3.28 m 10.48,0.38 c 2.72,0.04 5.53,0.44 8.18,-0.34 0.21,-0.65 0.64,-1.94 0.85,-2.58 -2.62,-0.1 -5.24,-0.28 -7.85,0.01 -0.43,0.95 -0.83,1.92 -1.18,2.91 z"
     id="path4" />
  <path
     fill="#926c50"
     stroke="#926c50"
     stroke-width="0.09375"
     opacity="1"
     d="m 24.886833,5.110455 c 2.64,-0.12 5.27,-0.22 7.91,-0.28 0,1.01 0,2.02 0,3.03 -2.72,0.18 -5.44,0.34 -8.17,0.43 0.1,-1.06 0.19,-2.12 0.26,-3.18 z"
     id="path6" />
  <path
     fill="#926c50"
     stroke="#926c50"
     stroke-width="0.09375"
     opacity="1"
     d="m 33.926833,6.670455 c 2.22,-2.68 5.91,-2.92 9.06,-2.09 1.1,1.46 0.84,2.39 -0.76,2.78 -2.74,0.97 -5.63,-0.03 -8.3,-0.69 z"
     id="path8" />
  <path
     fill="#926c50"
     stroke="#926c50"
     stroke-width="0.09375"
     opacity="1"
     d="m 46.076833,4.120455 c 2.53,-0.03 5.06,-0.03 7.59,-0.03 0.07,1.04 0.16,2.08 0.28,3.12 -2.86,0.12 -5.73,0.07 -8.57,-0.21 0.17,-0.72 0.52,-2.16 0.7,-2.88 z"
     id="path10" />
  <path
     fill="#926c50"
     stroke="#926c50"
     stroke-width="0.09375"
     opacity="1"
     d="m 54.866833,5.430455 c 2.98,-1.59 6.35,-1.53 9.62,-1.32 -0.09,0.81 -0.28,2.44 -0.38,3.25 -3.17,-0.04 -6.69,0.43 -9.24,-1.93 z"
     id="path12" />
  <path
     fill="#926c50"
     stroke="#926c50"
     stroke-width="0.09375"
     opacity="1"
     d="m 66.446833,4.220455 c 2.75,-0.01 5.51,0.02 8.26,0.06 0.03,0.87 0.07,2.62 0.1,3.49 -2.93,-0.47 -8.59,1.11 -8.36,-3.55 z"
     id="path14" />
  <path
     fill="#926c50"
     stroke="#926c50"
     stroke-width="0.09375"
     opacity="1"
     d="m 75.916833,6.540455 c 2.53,-2.58 6.31,-2.12 9.46,-1.18 0.57,2 -0.12,2.93 -2.07,2.78 -2.57,0.3 -5.02,-0.79 -7.39,-1.6 z"
     id="path16" />
  <path
     fill="#926c50"
     stroke="#926c50"
     stroke-width="0.09375"
     opacity="1"
     d="m 88.306833,5.280455 c 2.33,0.65 4.95,0.81 6.93,2.33 1.86,1.96 2.68,4.62 3.82,7.02 -0.7,0.34 -2.11,1.02 -2.82,1.36 -1.07,-1.95 -1.87,-4.12 -3.4,-5.78 -1.69,-0.94 -3.55,-1.51 -5.36,-2.18 0.28,-0.92 0.56,-1.83 0.83,-2.75 z"
     id="path18" />
  <path
     fill="#926c50"
     stroke="#926c50"
     stroke-width="0.09375"
     opacity="1"
     d="m 14.406833,9.580455 c -1.45,-1.34 0.53,-3.1 1.9,-3.21 2.23,-0.56 4.55,-0.49 6.83,-0.53 -0.85,3.91 -5.55,3.98 -8.73,3.74 z"
     id="path20" />
  <path
     fill="#b2b2b1"
     stroke="#b2b2b1"
     stroke-width="0.09375"
     opacity="1"
     d="m 98.736833,6.470455 c 1.629997,1.2 3.449997,2.47 4.019997,4.54 2.66,7.82 3.59,16.26 2.8,24.48 -0.4,2.64 -0.88,6.31 -3.94,7.15 -7.769997,1.88 -15.829997,1.16 -23.709997,0.49 -9.69,-0.3 -19.29,-1.78 -28.96,-2.28 -1.15,3.76 -1.39,7.7 -1.43,11.62 -1.5,-0.97 -3.53,-1.91 -3.72,-3.94 -0.68,-3.96 0.25,-7.94 1.03,-11.81 7.21,0.35 14.39,1.09 21.57,1.81 7.92,0.83 15.89,0.64 23.84,0.73 2.64,-0.12 5.43,0.11 7.93,-0.91 2.859997,-1.4 3.319997,-4.93 3.559997,-7.76 0.45,-8.12 -0.4,-16.38 -2.989997,-24.12 z"
     id="path22" />
  <path
     fill="#ff8989"
     stroke="#ff8989"
     stroke-width="0.09375"
     opacity="1"
     d="m 35.456833,10.210455 c 5.49,-0.03 10.98,-1.74 16.43,-0.88 1.17,0.39 2.31,0.83 3.46,1.27 0.07,6.22 -2.85,12.15 -8.08,15.59 -0.77,0.16 -2.31,0.48 -3.08,0.64 -2.95,-2.44 -6.21,-4.77 -8.08,-8.21 -1.35,-2.5 -0.71,-5.44 -0.66,-8.14 z"
     id="path24" />
  <path
     fill="#f9ca78"
     stroke="#f9ca78"
     stroke-width="0.09375"
     opacity="1"
     d="m 51.886833,9.330455 c 6.97,-0.83 14,-0.63 21,-0.58 0,0.34 0.01,1.03 0.02,1.37 0.02,1.96 0.05,3.91 0.1,5.86 -1.32,-0.57 -2.64,-1.15 -4.02,-1.59 -1.24,0.48 -1.33,2 -1.93,3.01 1.23,0.83 2.45,1.67 3.68,2.5 -1.71,2.54 -3.29,5.16 -4.83,7.8 -6.19,-0.81 -12.48,-0.4 -18.64,-1.51 5.23,-3.44 8.15,-9.37 8.08,-15.59 -1.15,-0.44 -2.29,-0.88 -3.46,-1.27 z"
     id="path26" />
  <path
     fill="#b8980e"
     stroke="#b8980e"
     stroke-width="0.09375"
     opacity="1"
     d="m 72.906833,10.120455 c 1.9,-0.15 4.51,-1.08 5.04,1.58 0.01,1.74 -0.03,3.47 -0.07,5.2 1.99,-0.88 3.98,-1.73 5.99,-2.57 0.04,0.72 0.14,2.18 0.18,2.9 -0.71,0.56 -1.42,1.13 -2.12,1.69 -3.72,0.42 -7.45,0.78 -11.19,0.98 -1.23,-0.83 -2.45,-1.67 -3.68,-2.5 0.6,-1.01 0.69,-2.53 1.93,-3.01 1.38,0.44 2.7,1.02 4.02,1.59 -0.05,-1.95 -0.08,-3.9 -0.1,-5.86 z"
     id="path28" />
  <path
     fill="#f9ca78"
     stroke="#f9ca78"
     stroke-width="0.09375"
     opacity="1"
     d="m 77.976833,9.460455 c 4.17,0.57 8.86,0.3 12.48,2.77 2.96,4.13 3.07,9.78 2.02,14.58 -0.79,2.91 -4.27,2.46 -6.58,2.99 -0.12,-2.19 0.05,-4.46 -0.57,-6.59 -0.89,-1.61 -2.23,-2.9 -3.4,-4.29 0.7,-0.56 1.41,-1.13 2.12,-1.69 -0.04,-0.72 -0.14,-2.18 -0.18,-2.9 -2.01,0.84 -4,1.69 -5.99,2.57 0.04,-1.73 0.08,-3.46 0.07,-5.2 0.01,-0.56 0.02,-1.68 0.03,-2.24 z"
     id="path30" />
  <path
     fill="#f9ca78"
     stroke="#f9ca78"
     stroke-width="0.09375"
     opacity="1"
     d="m 17.426833,17.800455 c 2.9,-6.96 11.74,-6.49 18.02,-7.32 -0.05,2.7 -0.69,5.64 0.66,8.14 1.87,3.44 5.13,5.77 8.08,8.21 -4.77,0.64 -8.44,3.79 -11.02,7.67 -2.23,-2.85 -5.13,-5.04 -8,-7.2 -6.18,4.26 -9.98,11.08 -10.81,18.5 -0.13,-9.37 -0.13,-19.07 3.07,-28 z"
     id="path32" />
  <path
     fill="#926c50"
     stroke="#926c50"
     stroke-width="0.09375"
     opacity="1"
     d="m 10.386833,18.950455 c 0.78,-3 -0.13,-8.31 4.41,-8.21 -0.3,2.82 -0.69,5.62 -1.11,8.42 -1.1,-0.09 -2.2,-0.15 -3.3,-0.21 z"
     id="path34" />
  <path
     fill="#926c50"
     stroke="#926c50"
     stroke-width="0.09375"
     opacity="1"
     d="m 96.456833,18.010455 c 1.02,-0.04 2.05,-0.1 3.07,-0.19 0.4,2.28 0.779997,4.57 1.199997,6.84 -0.759997,0.47 -2.259997,1.39 -3.009997,1.85 -0.61,-2.8 -1,-5.65 -1.26,-8.5 z"
     id="path36" />
  <path
     fill="#ff8989"
     stroke="#ff8989"
     stroke-width="0.09375"
     opacity="1"
     d="m 70.736833,19.900455 c 3.74,-0.2 7.47,-0.56 11.19,-0.98 1.17,1.39 2.51,2.68 3.4,4.29 0.62,2.13 0.45,4.4 0.57,6.59 -6.68,0.6 -14.03,1.87 -19.99,-2.1 1.54,-2.64 3.12,-5.26 4.83,-7.8 z"
     id="path38" />
  <path
     fill="#926c50"
     stroke="#926c50"
     stroke-width="0.09375"
     opacity="1"
     d="m 9.8468328,22.070455 c 1.1000002,-0.15 2.2000002,-0.31 3.3000002,-0.49 -0.09,2.6 -0.2,5.2 -0.32,7.8 -0.77,0.09 -2.3,0.28 -3.0600002,0.37 0,-2.56 0.04,-5.12 0.08,-7.68 z"
     id="path40" />
  <path
     fill="#ff8989"
     stroke="#ff8989"
     stroke-width="0.09375"
     opacity="1"
     d="m 14.356833,45.800455 c 0.83,-7.42 4.63,-14.24 10.81,-18.5 2.87,2.16 5.77,4.35 8,7.2 1.24,1.84 2.11,3.89 3.11,5.86 0.19,0.38 0.57,1.14 0.76,1.51 -0.46,3.8 -2.39,7.68 -6.07,9.25 -3.57,0.74 -7.23,0.85 -10.85,1.09 -2.01,-1.8 -3.99,-3.62 -5.96,-5.46 z"
     id="path42" />
  <path
     fill="#926c50"
     stroke="#926c50"
     stroke-width="0.09375"
     opacity="1"
     d="m 93.466833,34.660455 c 1.71,-2.73 3.02,-6.16 6.42,-7.17 0.149997,3.24 -1.34,6.05 -3.47,8.35 -0.74,-0.3 -2.21,-0.89 -2.95,-1.18 z"
     id="path44" />
  <path
     fill="#926c50"
     stroke="#926c50"
     stroke-width="0.09375"
     opacity="1"
     d="m 41.376833,31.490455 c 2.9,-1.49 6.22,-0.67 9.27,-0.27 -0.91,3.39 -4.7,2.96 -7.43,2.73 -1.52,-0.05 -2.14,-0.87 -1.84,-2.46 z"
     id="path46" />
  <path
     fill="#926c50"
     stroke="#926c50"
     stroke-width="0.09375"
     opacity="1"
     d="m 51.386833,31.260455 c 3.08,0.49 8.08,-1.36 9.54,2.38 -3.06,1.65 -8.75,1.99 -9.54,-2.38 z"
     id="path48" />
  <path
     fill="#926c50"
     stroke="#926c50"
     stroke-width="0.09375"
     opacity="1"
     d="m 9.5468328,40.370455 c -0.07,-3 -1.78,-8.93 3.0500002,-8.62 0.01,2.7 -0.01,5.4 -0.03,8.09 -1.01,0.17 -2.01,0.35 -3.0200002,0.53 z"
     id="path50" />
  <path
     fill="#926c50"
     stroke="#926c50"
     stroke-width="0.09375"
     opacity="1"
     d="m 62.446833,34.420455 c -0.97,-3.03 2.92,-2.55 4.79,-2.4 2.06,-0.06 3.66,1.09 4.52,2.93 -3.07,0.35 -6.46,1.07 -9.31,-0.53 z"
     id="path52" />
  <path
     fill="#926c50"
     stroke="#926c50"
     stroke-width="0.09375"
     opacity="1"
     d="m 71.796833,34.570455 c 2.97,-3.06 7.54,-2.06 10.81,-0.1 -3.21,2.66 -7.38,1.72 -10.81,0.1 z"
     id="path54" />
  <path
     fill="#926c50"
     stroke="#926c50"
     stroke-width="0.09375"
     opacity="1"
     d="m 83.856833,36.020455 c -1.31,-1.2 -0.23,-2.83 1.34,-2.82 2.72,-0.18 6.62,-0.86 7.41,2.68 -2.89,0.32 -5.89,0.92 -8.75,0.14 z"
     id="path56" />
  <path
     fill="#926c50"
     stroke="#926c50"
     stroke-width="0.09375"
     opacity="1"
     d="m 38.616833,34.850455 c 1.07,-0.46 1.94,-0.22 2.6,0.73 -0.36,2.98 -1.73,5.71 -2.99,8.39 -0.3,-0.52 -0.89,-1.57 -1.19,-2.1 -0.19,-0.37 -0.57,-1.13 -0.76,-1.51 0.69,-1.87 1.24,-3.83 2.34,-5.51 z"
     id="path58" />
  <path
     fill="#926c50"
     stroke="#926c50"
     stroke-width="0.09375"
     opacity="1"
     d="m 9.3768328,42.530455 c 1.0800002,0.14 2.1600002,0.27 3.2400002,0.4 -0.01,2.6 -0.02,5.2 -0.05,7.8 -0.78,-0.09 -2.35,-0.27 -3.1300002,-0.36 -0.06,-2.61 -0.08,-5.23 -0.06,-7.84 z"
     id="path60" />
  <path
     fill="#926c50"
     stroke="#926c50"
     stroke-width="0.09375"
     opacity="1"
     d="m 36.426833,44.910455 c 0.7,-0.02 2.1,-0.08 2.8,-0.11 0.69,2.82 1.32,5.65 1.79,8.52 -4.57,-0.01 -4.26,-5.19 -4.59,-8.41 z"
     id="path62" />
  <path
     fill="#f9ca78"
     stroke="#f9ca78"
     stroke-width="0.09375"
     opacity="1"
     d="m 14.156833,46.750455 c 1.97,1.84 3.95,3.66 5.96,5.46 -1.01,0.74 -2.02,1.46 -3.04,2.19 -0.43,0.31 -1.29,0.93 -1.72,1.25 -0.39,-2.97 -0.76,-5.94 -1.2,-8.9 z"
     id="path64" />
  <path
     fill="#b8980e"
     stroke="#b8980e"
     stroke-width="0.09375"
     opacity="1"
     d="m 20.116833,52.210455 c 3.62,-0.24 7.28,-0.35 10.85,-1.09 1.61,0.97 3.31,1.82 4.76,3.03 0.14,1.29 0.05,2.59 0.04,3.89 -2.05,-0.75 -4.06,-1.61 -6.02,-2.56 -0.14,2.85 -0.37,5.7 -0.7,8.54 -1.68,-0.98 -4.72,-1 -4.82,-3.5 -0.32,-1.86 -0.35,-3.74 -0.45,-5.61 -2,1.06 -4.05,2.04 -6.13,2.94 -0.14,-0.86 -0.42,-2.59 -0.57,-3.45 1.02,-0.73 2.03,-1.45 3.04,-2.19 z"
     id="path66" />
  <path
     fill="#926c50"
     stroke="#926c50"
     stroke-width="0.09375"
     opacity="1"
     d="m 9.6568328,52.680455 c 4.8600002,-0.31 3.4400002,5.66 4.0900002,8.73 -4.9200002,0.44 -3.52,-5.62 -4.0900002,-8.73 z"
     id="path68" />
  <path
     fill="#f9ca78"
     stroke="#f9ca78"
     stroke-width="0.09375"
     opacity="1"
     d="m 17.646833,57.850455 c 2.08,-0.9 4.13,-1.88 6.13,-2.94 0.1,1.87 0.13,3.75 0.45,5.61 0.1,2.5 3.14,2.52 4.82,3.5 0.33,-2.84 0.56,-5.69 0.7,-8.54 1.96,0.95 3.97,1.81 6.02,2.56 5.28,2.1 10.52,4.58 16.34,4.64 -0.91,3.59 1.46,6.51 4.09,8.64 -8.53,-0.28 -16.67,-3.07 -24.96,-4.77 -5.62,-1.17 -11.54,-3.14 -14.91,-8.13 z"
     id="path70" />
  <path
     fill="#926c50"
     stroke="#926c50"
     stroke-width="0.09375"
     opacity="1"
     d="m 41.016833,54.140455 c 2.85,0.12 5.35,1.61 7.85,2.83 -0.02,0.62 -0.08,1.88 -0.1,2.51 -3.09,-0.39 -8.4,-1.1 -7.75,-5.34 z"
     id="path72" />
  <path
     fill="#926c50"
     stroke="#926c50"
     stroke-width="0.09375"
     opacity="1"
     d="m 50.546833,57.110455 c 2.84,0.17 5.68,0.42 8.52,0.72 -0.15,1.11 -0.29,2.22 -0.42,3.33 -2.95,-0.61 -8.44,0.55 -8.1,-4.05 z"
     id="path74" />
  <path
     fill="#926c50"
     stroke="#926c50"
     stroke-width="0.09375"
     opacity="1"
     d="m 61.376833,58.120455 c 3.33,0.01 7.17,-0.44 9.41,2.64 -2.98,1.31 -6.2,0.91 -9.3,0.39 -0.02,-0.76 -0.08,-2.27 -0.11,-3.03 z"
     id="path76" />
  <path
     fill="#926c50"
     stroke="#926c50"
     stroke-width="0.09375"
     opacity="1"
     d="m 71.456833,58.970455 c 2.92,0.12 5.82,0.41 8.72,0.82 -0.22,1.09 -0.44,2.17 -0.64,3.26 -2.93,-0.83 -8.29,0.47 -8.08,-4.08 z"
     id="path78" />
  <path
     fill="#926c50"
     stroke="#926c50"
     stroke-width="0.09375"
     opacity="1"
     d="m 81.846833,62.720455 c 0.3,-0.73 0.89,-2.18 1.19,-2.91 2.91,0.65 5.76,1.5 8.51,2.65 -1.54,1.46 -3.5,2.23 -5.63,1.94 l -0.28,-0.05 c -1.29,-0.48 -2.54,-1.07 -3.79,-1.63 z"
     id="path80" />
  <path
     fill="#ff8989"
     stroke="#ff8989"
     stroke-width="0.09375"
     opacity="1"
     d="m 52.106833,62.680455 c 6.47,-0.95 13.08,-0.88 19.38,1.02 -0.95,4.19 -3.84,7.51 -7.52,9.61 -2.62,1.4 -5.47,-0.75 -7.77,-1.99 -2.63,-2.13 -5,-5.05 -4.09,-8.64 z"
     id="path82" />
  <path
     fill="#926c50"
     stroke="#926c50"
     stroke-width="0.09375"
     opacity="1"
     d="m 17.306833,70.220455 c -3.49,-0.72 -7.3400002,-4.03 -4.61,-7.75 1.88,1.82 3.8,3.58 5.81,5.24 -0.3,0.63 -0.9,1.89 -1.2,2.51 z"
     id="path84" />
  <path
     fill="#f9ca78"
     stroke="#f9ca78"
     stroke-width="0.09375"
     opacity="1"
     d="m 71.486833,63.700455 c 4.73,0.06 9.42,0.66 14.15,0.65 l 0.28,0.05 c 5.18,2.32 10.21,5.39 13.54,10.1 -0.78,0.78 -1.56,1.55 -2.35,2.33 -0.73,0.69 -1.45,1.41 -2.17,2.13 -0.04,-3.77 -1.2,-7.38 -3.68,-10.25 -2.57,2.64 -2.97,6.18 -2.41,9.68 -2.37,-1.96 -5.22,-2.35 -8.1,-1.34 1.78,2.16 3.71,4.39 6.48,5.23 -1.48,1.53 -2.99,3.04 -4.51,4.55 -1.28,-2.54 -2.66,-5.12 -4.87,-6.99 -3.93,-3.44 -9.16,-4.6 -13.88,-6.53 3.68,-2.1 6.57,-5.42 7.52,-9.61 z"
     id="path86" />
  <path
     fill="#926c50"
     stroke="#926c50"
     stroke-width="0.09375"
     opacity="1"
     d="m 92.246833,65.460455 c 0.22,-0.74 0.65,-2.2 0.86,-2.93 2.99,1.38 7.349997,2.5 6.979997,6.72 -2.759997,-0.93 -5.359997,-2.27 -7.839997,-3.79 z"
     id="path88" />
  <path
     fill="#926c50"
     stroke="#926c50"
     stroke-width="0.09375"
     opacity="1"
     d="m 20.686833,67.780455 c 2.82,-0.47 5.81,-0.04 8.28,1.43 0.24,3.01 -2.93,2.11 -4.85,1.93 -1.63,-0.45 -5.48,-1.04 -3.43,-3.36 z"
     id="path90" />
  <path
     fill="#b2b2b1"
     stroke="#b2b2b1"
     stroke-width="0.09375"
     opacity="1"
     d="m 106.81683,68.030455 c 3.03,2.77 5.51,6.17 6.89,10.07 4.9,13.16 6.63,27.410005 5.91,41.400005 -0.7,9.22 -2.96,18.93 -9.37,25.94 -5.31,5.69 -13.499997,7.14 -20.929997,7.63 -8.33,0.3 -16.72,0.17 -24.99,-1.01 -17.27,-2.35 -34.41,-5.96 -50.93,-11.56 -3.4900002,-1.24 -7.6800002,-2.32 -9.0900002,-6.22 15.5600002,5.96 31.8700002,9.77 48.2900002,12.49 11.78,1.94 23.78,3 35.71,1.99 7.5,-0.85 15.759997,-3.31 20.039997,-10.04 8.41,-12.39 8.41,-28.34 6.69,-42.660005 -1.44,-9.63 -3.12,-19.57 -8.22,-28.03 z"
     id="path92" />
  <path
     fill="#926c50"
     stroke="#926c50"
     stroke-width="0.09375"
     opacity="1"
     d="m 30.636833,69.470455 c 2.37,0.1 4.84,-0.12 7.08,0.79 1.75,0.26 0.81,2.29 1.07,3.47 -2.7,-0.52 -5.4,-1.08 -8.08,-1.68 -0.02,-0.65 -0.05,-1.94 -0.07,-2.58 z"
     id="path94" />
  <path
     fill="#b8980e"
     stroke="#b8980e"
     stroke-width="0.09375"
     opacity="1"
     d="m 88.846833,78.390455 c -0.56,-3.5 -0.16,-7.04 2.41,-9.68 2.48,2.87 3.64,6.48 3.68,10.25 0.72,-0.72 1.44,-1.44 2.17,-2.13 1.77,-0.94 3.679997,-0.13 5.449997,0.28 -1.65,1.63 -3.349997,3.22 -5.079997,4.77 -3.42,-0.02 -6.83,0.22 -10.25,0.4 -2.77,-0.84 -4.7,-3.07 -6.48,-5.23 2.88,-1.01 5.73,-0.62 8.1,1.34 z"
     id="path96" />
  <path
     fill="#926c50"
     stroke="#926c50"
     stroke-width="0.09375"
     opacity="1"
     d="m 100.44683,71.730455 c 1,-0.57 1.99,-1.14 2.98,-1.72 0.89,2.37 2.96,4.78 2.02,7.44 -3.27,0.39 -3.61,-3.62 -5,-5.72 z"
     id="path98" />
  <path
     fill="#926c50"
     stroke="#926c50"
     stroke-width="0.09375"
     opacity="1"
     d="m 40.676833,72.470455 c 2.59,-2.68 6.45,0.02 9.42,0.72 -0.46,0.65 -1.37,1.94 -1.83,2.59 -2.56,-0.91 -6.29,-0.45 -7.59,-3.31 z"
     id="path100" />
  <path
     fill="#b2b2b1"
     stroke="#b2b2b1"
     stroke-width="0.09375"
     opacity="1"
     d="m 13.026833,72.870455 c 17.11,3.82 34.51,6.49 51.38,11.37 3.99,1.17 8.07,2.86 10.66,6.28 -19.54,-6.52 -40.01,-9.31 -60.08,-13.66 -0.66,-1.33 -1.31,-2.66 -1.96,-3.99 z"
     id="path102" />
  <path
     fill="#926c50"
     stroke="#926c50"
     stroke-width="0.09375"
     opacity="1"
     d="m 51.506833,73.420455 c 2.76,0.38 5.6,0.72 8.11,2.01 -0.06,0.57 -0.18,1.7 -0.24,2.27 -2.7,0.51 -5.3,-0.68 -7.86,-1.34 -0.01,-0.73 -0.01,-2.21 -0.01,-2.94 z"
     id="path104" />
  <path
     fill="#926c50"
     stroke="#926c50"
     stroke-width="0.09375"
     opacity="1"
     d="m 62.476833,76.360455 c 2.98,0.13 5.57,1.8 8.13,3.16 -2.82,3.37 -6.75,0.15 -9.84,-0.93 0.43,-0.56 1.28,-1.67 1.71,-2.23 z"
     id="path106" />
  <path
     fill="#926c50"
     stroke="#926c50"
     stroke-width="0.09375"
     opacity="1"
     d="m 104.68683,81.410455 c -0.3,-1.93 0.54,-2.66 2.52,-2.21 1.26,2.51 1.81,5.28 2.42,7.99 -3.65,0.91 -4.4,-3.16 -4.94,-5.78 z"
     id="path108" />
  <path
     fill="#926c50"
     stroke="#926c50"
     stroke-width="0.09375"
     opacity="1"
     d="m 70.796833,81.040455 c 3.11,-0.81 4.98,2.15 7.07,3.86 -0.03,0.69 -0.09,2.06 -0.12,2.75 -3.16,-0.84 -6.76,-2.98 -6.95,-6.61 z"
     id="path110" />
  <path
     fill="#ff8989"
     stroke="#ff8989"
     stroke-width="0.09375"
     opacity="1"
     d="m 87.226833,82.280455 c 3.42,-0.18 6.83,-0.42 10.25,-0.4 0.81,0 2.42,0 3.219997,0.01 1.36,2.28 3.21,4.53 3.32,7.31 -1.3,5.82 -3.38,12.450005 -8.829997,15.650005 -4.91,1.21 -8.35,-3.83 -10.78,-7.340005 -2.08,-3.16 -1.82,-7.08 -1.69,-10.68 1.52,-1.51 3.03,-3.02 4.51,-4.55 z"
     id="path112" />
  <path
     fill="#926c50"
     stroke="#926c50"
     stroke-width="0.09375"
     opacity="1"
     d="m 7.8768328,92.640455 c 0.49,-1.56 1.36,-2.94 2.12,-4.37 0.7300002,0.24 2.2100002,0.74 2.9400002,0.99 -1.18,2.36 -1.52,5.48 -3.6900002,7.16 -2.67,0.72 -1.6,-2.26 -1.37,-3.78 z"
     id="path114" />
  <path
     fill="#926c50"
     stroke="#926c50"
     stroke-width="0.09375"
     opacity="1"
     d="m 14.766833,88.610455 c 3.26,0.59 7.95,0.52 8.59,4.69 -3.02,-0.15 -5.96,-0.84 -8.83,-1.76 0.06,-0.74 0.18,-2.2 0.24,-2.93 z"
     id="path116" />
  <path
     fill="#926c50"
     stroke="#926c50"
     stroke-width="0.09375"
     opacity="1"
     d="m 77.666833,88.230455 c 3.34,0.81 3.88,4.49 3.77,7.38 -0.54,1.73 -1.59,2.11 -3.17,1.12 -0.66,-2.78 -0.7,-5.66 -0.6,-8.5 z"
     id="path118" />
  <path
     fill="#f9ca78"
     stroke="#f9ca78"
     stroke-width="0.09375"
     opacity="1"
     d="m 95.186833,104.85046 c 5.449997,-3.2 7.529997,-9.830005 8.829997,-15.650005 2.37,10.02 2.88,20.580005 0.77,30.690005 -1.07,4.95 -4.61,8.75 -8.439997,11.8 -1.05,-1.18 -2.16,-2.31 -3.26,-3.44 1.35,-1.75 2.42,-3.68 3.45,-5.62 -2.75,0.53 -5.37,1.55 -7.7,3.1 -0.06,-3.1 0.54,-6.92 -2.39,-8.98 -4.37,-0.26 -3.4,5.18 -3.44,8.05 -2.3,-1.09 -4.72,-1.93 -7.21,-2.46 0.76,2.69 2.37,4.96 4.54,6.72 -2.19,2.7 -3.91,5.73 -5.24,8.94 -13,0.52 -25.84,-2.1 -38.64,-3.97 -4.3,-0.58 -8.47,-1.81 -12.57,-3.18 4.6,-4.74 9.1,-10.47 9.02,-17.43 0.3,-3.22 -3.03,-4.84 -4.96,-6.81 1.04,-0.96 2.11,-1.9 3.18,-2.84 0.35,-0.32 1.05,-0.95 1.4,-1.27 4.39,1.71 8.73,3.54 13.08,5.35 0.11,2.33 0.04,4.71 0.61,6.99 0.87,1.93 2.88,3 4.55,4.17 -1.97,1.77 -3.21,3.98 -2.28,6.68 2,-1.24 3.99,-2.49 5.93,-3.81 -0.18,3.92 0.79,7.76 4.12,10.17 1.38,-2.85 2.02,-5.96 2.2,-9.1 2.15,0.92 4.33,1.79 6.53,2.62 0.06,-3.29 -1.83,-5.89 -4.95,-6.87 1.8,-1.9 3.62,-3.78 5.43,-5.68 3.85,-1.17 7.94,-2.29 10.93,-5.14 2.94,-2.78 4.39,-6.65 5.73,-10.370005 2.43,3.510005 5.87,8.550005 10.78,7.340005 z"
     id="path120" />
  <path
     fill="#926c50"
     stroke="#926c50"
     stroke-width="0.09375"
     opacity="1"
     d="m 108.95683,98.060455 c -0.77,-3.28 -2.86,-7.31 0.38,-9.98 1.2,2.76 1.95,5.67 2.53,8.62 -0.73,0.34 -2.19,1.02 -2.91,1.36 z"
     id="path122" />
  <path
     fill="#926c50"
     stroke="#926c50"
     stroke-width="0.09375"
     opacity="1"
     d="m 24.266833,91.860455 c 3.35,0.66 8.5,0.72 8.94,5.21 -3.36,-0.61 -8.54,-0.71 -8.94,-5.21 z"
     id="path124" />
  <path
     fill="#f9ca78"
     stroke="#f9ca78"
     stroke-width="0.09375"
     opacity="1"
     d="m 14.276833,96.860455 c 1.41,-0.44 2.83,-0.88 4.24,-1.31 l -0.12,1.38 c -0.22,2.22 -0.31,4.440005 -0.44,6.670005 -0.8,-0.82 -1.61,-1.63 -2.39,-2.46 -1.21,-1.07 -0.94,-2.850005 -1.29,-4.280005 z"
     id="path126" />
  <path
     fill="#b8980e"
     stroke="#b8980e"
     stroke-width="0.09375"
     opacity="1"
     d="m 18.396833,96.930455 c 0.99,-0.95 2.02,-1.85 3.09,-2.7 2.64,2.71 2.68,6.470005 2.45,10.000005 2,-1.19 4.09,-2.21 6.26,-3.02 0.23,0.64 0.69,1.92 0.93,2.56 -1.07,0.94 -2.14,1.88 -3.18,2.84 -3.68,0.23 -7.38,0.35 -11.07,0.51 -2.94,-0.67 -5.4,-2.91 -5.51,-6.05 1.05,0.02 3.15,0.05 4.2,0.07 0.78,0.83 1.59,1.64 2.39,2.46 0.13,-2.23 0.22,-4.450005 0.44,-6.670005 z"
     id="path128" />
  <path
     fill="#926c50"
     stroke="#926c50"
     stroke-width="0.09375"
     opacity="1"
     d="m 33.926833,98.220455 c 0.94,-4.23 5.54,-1.58 7.93,-0.25 1.76,0.69 0.31,3.920005 -1.56,2.640005 -2.21,-0.55 -4.28,-1.520005 -6.37,-2.390005 z"
     id="path130" />
  <path
     fill="#926c50"
     stroke="#926c50"
     stroke-width="0.09375"
     opacity="1"
     d="m 6.8868328,98.000455 c 0.76,0.33 2.26,0.98 3.01,1.31 -0.81,2.900005 0.1700002,7.950005 -4.15,8.020005 -0.01,-3.15 0.4,-6.28 1.14,-9.330005 z"
     id="path132" />
  <path
     fill="#926c50"
     stroke="#926c50"
     stroke-width="0.09375"
     opacity="1"
     d="m 44.046833,100.50046 c 2.85,-1.950005 6.05,0.94 8.82,1.82 -0.39,0.69 -1.18,2.06 -1.58,2.74 -2.49,-1.23 -6.48,-1.34 -7.24,-4.56 z"
     id="path134" />
  <path
     fill="#926c50"
     stroke="#926c50"
     stroke-width="0.09375"
     opacity="1"
     d="m 73.286833,106.53046 c 1.1,-3.43 2.98,-6.880005 6.68,-7.990005 0.03,3.910005 -2.27,8.090005 -6.68,7.990005 z"
     id="path136" />
  <path
     fill="#926c50"
     stroke="#926c50"
     stroke-width="0.09375"
     opacity="1"
     d="m 109.16683,99.680455 c 0.74,0.06 2.22,0.17 2.96,0.23 0.2,2.770005 0.37,5.540005 0.47,8.310005 -4.82,0.3 -3.12,-5.51 -3.43,-8.540005 z"
     id="path138" />
  <path
     fill="#926c50"
     stroke="#926c50"
     stroke-width="0.09375"
     opacity="1"
     d="m 52.996833,104.17046 c 3.06,-0.76 9.79,-0.45 8.94,4.03 -3.5,0.29 -6.78,-1.31 -8.94,-4.03 z"
     id="path140" />
  <path
     fill="#926c50"
     stroke="#926c50"
     stroke-width="0.09375"
     opacity="1"
     d="m 64.336833,106.95046 c 2.47,-0.38 4.95,-0.77 7.44,-1.15 0.14,0.78 0.44,2.34 0.59,3.12 -2.71,0.59 -5.45,0.96 -8.21,1.12 0.04,-0.77 0.13,-2.31 0.18,-3.09 z"
     id="path142" />
  <path
     fill="#ff8989"
     stroke="#ff8989"
     stroke-width="0.09375"
     opacity="1"
     d="m 16.876833,107.12046 c 3.69,-0.16 7.39,-0.28 11.07,-0.51 1.93,1.97 5.26,3.59 4.96,6.81 0.08,6.96 -4.42,12.69 -9.02,17.43 -6.15,-1.38 -10.75,-6.71 -12.42,-12.61 -1.28,-4.34 0.81,-9.81 5.41,-11.12 z"
     id="path144" />
  <path
     fill="#ff8989"
     stroke="#ff8989"
     stroke-width="0.09375"
     opacity="1"
     d="m 45.606833,107.85046 c 4.17,1.42 8.22,3.39 12.66,3.81 3.18,0.28 6.4,0.47 9.48,1.36 -1.81,1.9 -3.63,3.78 -5.43,5.68 -3.85,0.17 -7.69,0.58 -11.55,0.31 -1.67,-1.17 -3.68,-2.24 -4.55,-4.17 -0.57,-2.28 -0.5,-4.66 -0.61,-6.99 z"
     id="path146" />
  <path
     fill="#926c50"
     stroke="#926c50"
     stroke-width="0.09375"
     opacity="1"
     d="m 5.1368328,115.75046 c -0.52,-2.73 -0.47,-7.42 3.48,-7.05 0.05,2.84 0.07,5.69 0.07,8.53 -1.29,-0.26 -3.25,0.32 -3.55,-1.48 z"
     id="path148" />
  <path
     fill="#926c50"
     stroke="#926c50"
     stroke-width="0.09375"
     opacity="1"
     d="m 109.22683,112.43046 c -0.09,-2.1 1.65,-2.52 3.37,-2.63 -0.2,2.87 0.13,5.95 -1.17,8.63 -3.78,1.14 -2.24,-3.85 -2.2,-6 z"
     id="path150" />
  <path
     fill="#b8980e"
     stroke="#b8980e"
     stroke-width="0.09375"
     opacity="1"
     d="m 83.006833,124.80046 c 0.04,-2.87 -0.93,-8.31 3.44,-8.05 2.93,2.06 2.33,5.88 2.39,8.98 2.33,-1.55 4.95,-2.57 7.7,-3.1 -1.03,1.94 -2.1,3.87 -3.45,5.62 -4.22,0.61 -8.5,0.61 -12.75,0.81 -2.17,-1.76 -3.78,-4.03 -4.54,-6.72 2.49,0.53 4.91,1.37 7.21,2.46 z"
     id="path152" />
  <path
     fill="#b8980e"
     stroke="#b8980e"
     stroke-width="0.09375"
     opacity="1"
     d="m 50.766833,119.01046 c 3.86,0.27 7.7,-0.14 11.55,-0.31 3.12,0.98 5.01,3.58 4.95,6.87 -2.2,-0.83 -4.38,-1.7 -6.53,-2.62 -0.18,3.14 -0.82,6.25 -2.2,9.1 -3.33,-2.41 -4.3,-6.25 -4.12,-10.17 -1.94,1.32 -3.93,2.57 -5.93,3.81 -0.93,-2.7 0.31,-4.91 2.28,-6.68 z"
     id="path154" />
  <path
     fill="#926c50"
     stroke="#926c50"
     stroke-width="0.09375"
     opacity="1"
     d="m 5.7568328,119.16046 c 0.76,0.2 2.28,0.6 3.04,0.8 0.11,2.8 0.15,5.6 0.05,8.4 -0.75,-0.43 -2.26,-1.29 -3.01,-1.72 -0.04,-2.5 -0.07,-4.99 -0.08,-7.48 z"
     id="path156" />
  <path
     fill="#926c50"
     stroke="#926c50"
     stroke-width="0.09375"
     opacity="1"
     d="m 108.43683,119.95046 c 0.62,0.42 1.88,1.25 2.5,1.66 -0.27,2.4 -1.18,4.65 -1.97,6.91 -1.09,-0.26 -2.17,-0.52 -3.25,-0.77 0.88,-2.61 1.78,-5.21 2.72,-7.8 z"
     id="path158" />
  <path
     fill="#ff8989"
     stroke="#ff8989"
     stroke-width="0.09375"
     opacity="1"
     d="m 80.336833,129.06046 c 4.25,-0.2 8.53,-0.2 12.75,-0.81 1.1,1.13 2.21,2.26 3.26,3.44 0.24,0.45 0.72,1.36 0.96,1.81 -2.52,3.62 -6.9,5.24 -10.87,6.74 -1.76,0.08 -3.52,0.07 -5.28,0.01 -2.24,-0.02 -4.15,-1.27 -6.06,-2.25 1.33,-3.21 3.05,-6.24 5.24,-8.94 z"
     id="path160" />
  <path
     fill="#926c50"
     stroke="#926c50"
     stroke-width="0.09375"
     opacity="1"
     d="m 8.5068328,128.69046 c 2.8900002,0.9 5.9500002,1.71 8.3100002,3.72 -0.6,3.13 -4.09,1.37 -5.99,0.59 -2.0100002,-0.57 -2.3500002,-2.47 -2.3200002,-4.31 z"
     id="path162" />
  <path
     fill="#926c50"
     stroke="#926c50"
     stroke-width="0.09375"
     opacity="1"
     d="m 103.77683,130.84046 c 0.73,-0.23 2.18,-0.68 2.91,-0.91 0.04,2.88 -1.77,5.4 -4.11,6.89 -1.07,0.79 -2.24,-0.16 -2.789997,-1.1 1.099997,-1.8 2.399997,-3.5 3.989997,-4.88 z"
     id="path164" />
  <path
     fill="#926c50"
     stroke="#926c50"
     stroke-width="0.09375"
     opacity="1"
     d="m 18.116833,133.29046 c 2.77,-1.11 5.75,0.16 8.31,1.3 0.07,0.58 0.21,1.75 0.28,2.34 -2.95,0.26 -8.29,0.21 -8.59,-3.64 z"
     id="path166" />
  <path
     fill="#926c50"
     stroke="#926c50"
     stroke-width="0.09375"
     opacity="1"
     d="m 28.456833,135.05046 c 2.91,0.45 5.88,0.91 8.53,2.28 0.3,3.68 -3.72,2 -5.88,1.58 -2.11,-0.18 -2.61,-2.08 -2.65,-3.86 z"
     id="path168" />
  <path
     fill="#926c50"
     stroke="#926c50"
     stroke-width="0.09375"
     opacity="1"
     d="m 38.546833,138.35046 c 2.76,-1.56 5.89,0.06 8.76,0.44 -0.25,1.05 -0.49,2.11 -0.72,3.18 -2.68,-0.98 -7.45,0.03 -8.04,-3.62 z"
     id="path170" />
  <path
     fill="#926c50"
     stroke="#926c50"
     stroke-width="0.09375"
     opacity="1"
     d="m 90.946833,141.86046 c -0.54,-3.54 4.01,-3.86 6.48,-4.6 1.47,-0.62 1.28,1.83 2.01,2.56 -2.74,0.97 -5.48,2.57 -8.49,2.04 z"
     id="path172" />
  <path
     fill="#926c50"
     stroke="#926c50"
     stroke-width="0.09375"
     opacity="1"
     d="m 48.836833,142.17046 c 0.44,-0.97 0.91,-1.92 1.42,-2.85 2.93,0.09 7.6,-0.28 7.85,3.77 -3.11,-0.08 -6.21,-0.42 -9.27,-0.92 z"
     id="path174" />
  <path
     fill="#926c50"
     stroke="#926c50"
     stroke-width="0.09375"
     opacity="1"
     d="m 59.516833,143.80046 c 0.39,-1.13 -0.01,-2.98 1.57,-3.28 2.24,-0.07 4.47,0.24 6.69,0.47 0.12,0.73 0.35,2.19 0.46,2.92 -2.91,0.05 -5.82,0 -8.72,-0.11 z"
     id="path176" />
  <path
     fill="#926c50"
     stroke="#926c50"
     stroke-width="0.09375"
     opacity="1"
     d="m 81.156833,140.25046 c 1.76,0.06 3.52,0.07 5.28,-0.01 0.64,-0.02 1.93,-0.06 2.57,-0.08 0,0.75 -0.01,2.24 -0.01,2.99 -2.73,0.38 -5.46,0.72 -8.2,1 0.09,-0.98 0.27,-2.93 0.36,-3.9 z"
     id="path178" />
  <path
     fill="#926c50"
     stroke="#926c50"
     stroke-width="0.09375"
     opacity="1"
     d="m 69.996833,144.18046 c 0.35,-0.99 0.75,-1.96 1.18,-2.91 2.61,-0.29 5.23,-0.11 7.85,-0.01 -0.21,0.64 -0.64,1.93 -0.85,2.58 -2.65,0.78 -5.46,0.38 -8.18,0.34 z"
     id="path180" />
</svg>
