<?xml version="1.0" encoding="UTF-8" standalone="no"?>
<svg
   xmlns:dc="http://purl.org/dc/elements/1.1/"
   xmlns:cc="http://creativecommons.org/ns#"
   xmlns:rdf="http://www.w3.org/1999/02/22-rdf-syntax-ns#"
   xmlns:svg="http://www.w3.org/2000/svg"
   xmlns="http://www.w3.org/2000/svg"
   width="136.19968pt"
   height="151.93864pt"
   viewBox="0 0 136.19968 151.93864"
   version="1.1"
   id="svg186">
  <metadata
     id="metadata192">
    <rdf:RDF>
      <cc:Work
         rdf:about="">
        <dc:format>image/svg+xml</dc:format>
        <dc:type
           rdf:resource="http://purl.org/dc/dcmitype/StillImage" />
        <dc:title></dc:title>
      </cc:Work>
    </rdf:RDF>
  </metadata>
  <defs
     id="defs190" />
  <path
     fill="#dd390a"
     stroke="#dd390a"
     stroke-width="0.09375"
     opacity="1"
     d="m 77.558045,1.5544269 c 12.96,-2.11999996 26.169995,-1.80999996 39.169995,-0.27 0.69,1.31 1.43,2.6 2.04,3.96 2.37,9.0700001 2.94,18.6500001 1.15,27.8700001 -6.17,1.2 -12.6,0.95 -18.58,3.11 -10.069995,3.43 -19.939995,9.26 -25.749995,18.42 -2.41,3.52 -2.56,9.09 1.84,11.1 0.47,0.3 1.4,0.91 1.87,1.21 3.4,0.56 6.79,1.37 10.26,1.38 7.79,0.32 15.239995,-3.12 23.059995,-2.11 5.74,1.41 11.62,3.97 14.93,9.13 6.73,11.57 4.86,25.640003 2.74,38.230003 -1.65,10.27 -5.28,21.51 -14.85,27.03 -14.13,8.37 -31.209995,6.61 -46.929995,6.55 -18.52,-1.06 -38.02,-4.33 -53.22,-15.74 -8.4200004,-6.86 -14.0900004,-16.98 -15.00000039,-27.86 C -1.2619554,86.314427 4.8980446,69.554427 11.948045,54.124427 c 8.79,-19.16 23.21,-36.45 42.6,-45.4300001 7.26,-3.53 15.09,-5.71 23.01,-7.14 m 2.6,4.38 c -0.02,0.62 -0.08,1.87 -0.11,2.5 2.56,0.01 5.2,0.21 7.66,-0.61 0.27,-0.93 0.53,-1.87 0.77,-2.82 -2.79,0.11 -5.58,0.39 -8.32,0.93 m 10.66,-0.89 c -0.01,0.63 -0.02,1.89 -0.02,2.52 2.55,0.09 5.14,0.35 7.66,-0.24 1.31,-1.59 -0.41,-2.32 -1.57,-3.13 -2.02,0.31 -4.04,0.59 -6.07,0.85 m 10.309995,-0.12 c -0.04,0.64 -0.11,1.9 -0.15,2.53 2.71,0.42 5.45,0.62 8.19,0.73 -0.09,-1 -0.18,-2.01 -0.27,-3.01 -2.59,-0.12 -5.18,-0.21 -7.77,-0.25 m -31.649995,3.31 c 0.61,0.81 0.63,2.3300001 1.82,2.5300001 2.17,-0.24 4.3,-0.72 6.45,-1.1300001 0.16,-0.95 0.33,-1.9 0.49,-2.86 -2.99,-0.01 -5.93,0.56 -8.76,1.46 m 40.559995,0 c 0.99,2.7600001 1.25,6.0500001 3.5,8.1700001 2.89,-2.24 0.12,-5.91 -0.4,-8.7100001 -1.03,0.18 -2.07,0.36 -3.1,0.54 M 59.968045,11.794427 c 0.08,0.62 0.23,1.87 0.31,2.5 2.1,-0.41 4.24,-0.81 6.18,-1.78 1.91,-0.37 1.98,-2.51 0.29,-3.3200001 -2.34,0.63 -4.57,1.6200001 -6.78,2.6000001 m 28.06,-0.43 c -9.46,1.58 -18.96,3.86 -27.61,8.01 -1.7,-0.12 -3.39,-0.22 -5.09,-0.29 -0.09,1.29 -0.18,2.58 -0.26,3.87 -1.39,-0.04 -2.58,0.78 -3.74,1.41 -17.09,10.7 -30.02,28.07 -34.64,47.76 0.04,0.73 0.12,2.18 0.16,2.91 -2.84,4.3 -2.87,9.59 -3.36,14.53 -0.64,8.34 0.19,17.180003 4.58,24.490003 6.42,11 18.53,17.72 30.84,19.77 l 0.12,0.15 c 1.07,0.13 2.13,0.26 3.2,0.41 10.16,3.42 21.13,2.78 31.62,1.63 1.16,-0.3 2.67,-0.14 3.53,-1.09 1.14,-0.3 2.29,-0.62 3.43,-0.95 3.67,-1.97 7.47,-3.75 10.779995,-6.31 8.18,-6.02 13.88,-15.15 16.33,-24.96 1.72,-6.810003 0.4,-14.710003 -4.49,-19.950003 -2.32,-2.67 -5.8,-3.77 -9.18,-4.34 l 0.03,-0.3 c -1.27,-0.09 -2.55,-0.18 -3.82,-0.27 -8.939995,-0.33 -17.919995,0.82 -26.829995,-0.28 -4.14,-0.71 -8.84,-1.51 -11.59,-5.03 1.33,-0.4 2.66,-0.82 3.98,-1.24 -0.09,-0.46 -0.26,-1.39 -0.35,-1.85 1.83,0.99 3.89,1.47 5.9,1.96 -0.72,-2.69 -2.25,-5.03 -3.69,-7.37 -0.46,-0.03 -1.39,-0.07 -1.85,-0.09 -0.28,1.24 -0.58,2.49 -0.87,3.74 l -0.13,-0.5 c -2.3,0.13 -3.71,1.59 -4.63,3.5 -2.42,-2.38 -2.58,-6 -2.26,-9.18 0.34,-5.19 3.47,-9.56 4.69,-14.52 0.11,-0.01 0.34,-0.03 0.45,-0.04 3.57,-4.28 6.55,-9.09 10.83,-12.74 6.5,-5.84 14.89,-9.17 23.41,-10.73 3.719995,-0.83 7.999995,-1.23 10.729995,-4.22 1.98,-3.47 -0.78,-8.43 -4.69,-8.84 -3.5,-0.38 -7.029995,-0.01 -10.539995,0 -1.73,-0.14 -3.37,0.45 -4.99,0.95 m -37.07,8.02 c 2.47,-1.54 7.21,-1.81 7.4,-5.44 -0.41,-0.16 -1.24,-0.47 -1.65,-0.63 -2.77,1.02 -6.8,2.29 -5.75,6.07 m 61.719995,-1.42 c 0.09,1.1 0.12,2.21 0.11,3.31 -2.39,0.28 -4.13,1.43 -4.14,3.99 -1.84,0.39 -3.68,0.76 -5.53,1.12 -0.1,1.01 -0.21,2.03 -0.3,3.04 3.18,-0.16 6.29,-0.93 9.2,-2.23 l 0.2,-0.94 c 0.9,-0.16 1.8,-0.32 2.71,-0.46 0.25,-2.55 0.42,-5.11 0.48,-7.68 -0.69,-0.03 -2.05,-0.11 -2.73,-0.15 m -70.579995,4.06 c 0.01,0.64 0.04,1.92 0.06,2.55 2.67,-0.39 4.9,-1.92 7.03,-3.47 -0.05,-0.64 -0.15,-1.93 -0.21,-2.57 -2.58,0.52 -4.79,1.95 -6.88,3.49 m -7.98,8.84 c 3.02,1.41 4.81,-2.11 6.92,-3.64 -0.04,-0.64 -0.11,-1.94 -0.14,-2.58 -3.08,0.68 -6.32,2.97 -6.78,6.22 m 58.31,1.65 c 2.74,-0.23 5.37,-1.03 7.929995,-1.98 -0.02,-0.74 -0.07,-2.21 -0.1,-2.95 -3.059995,0.71 -7.629995,0.81 -7.829995,4.93 m -8.85,5.17 c 1.91,-0.66 3.87,-1.29 5.58,-2.41 1.28,-0.53 3.25,-2.56 0.96,-3.29 -3.08,-0.13 -6.83,2.21 -6.54,5.7 m -56.44,-0.02 c 0.23,1.6 1.3,2.03 2.64,1.27 2.17,-1.87 4.5,-4.45 3.14,-7.52 -2.16,1.84 -4.34,3.76 -5.78,6.25 m 49.12,6.83 c 1.89,-1.49 3.9,-2.89 5.49,-4.72 0.99,-1.19 0.11,-2.34 -1.19,-2.71 -2.31,1.79 -6.74,3.99 -4.3,7.43 m -55.57,2.44 c 1.31,0.37 3.04,1.46 3.8,-0.32 1.6,-2.02 3.9,-4.95 1.16,-7.14 -1.84,2.36 -3.5,4.85 -4.96,7.46 m 51.44,-1.81 c -1.66,1.91 -3.84,4.34 -2.9,7.08 3.02,-0.18 4.25,-3.41 5.49,-5.7 0.71,-2.01 -1.35,-1.89 -2.59,-1.38 m -52.88,4.12 c -1.29,2.33 -2.51,4.69 -3.63,7.09 1.14,-0.01 2.28,-0.07 3.42,-0.19 1.73,-1.92 2.22,-4.51 2.42,-7 -0.55,0.03 -1.66,0.08 -2.21,0.1 m 47.47,4.58 c -0.7,2.54 -1.34,5.09 -1.83,7.67 1,-0.13 2,-0.25 3,-0.37 0.94,-2.32 1.26,-4.82 1.63,-7.28 -0.7,0 -2.1,-0.01 -2.8,-0.02 m -54.9,12.73 c 4.15,-0.03 4.55,-4.69 5.55,-7.74 -4.43,-0.74 -4.95,4.63 -5.55,7.74 m -3.1400004,9.72 c 0.63,-0.01 1.9000004,-0.02 2.5300004,-0.03 0.81,-2.34 1.8,-4.66 2.04,-7.15 -0.47,-0.3 -1.42,-0.89 -1.89,-1.19 -2.1300004,2.25 -2.4400004,5.44 -2.6800004,8.37 m 63.8900004,-5.49 c 0.1,2.38 1.69,3.79 4.03,4 1.47,0.08 5.12,1.66 4.53,-1.35 -2.41,-1.93 -5.58,-2.39 -8.56,-2.65 m 31.459995,0.19 c -0.02,1 -0.03,2.01 -0.04,3.01 2.9,0.46 5.81,0.9 8.74,1.16 -0.78,-4.22 -5.47,-3.77 -8.7,-4.17 m -11.219995,4.17 c 2.81,-0.09 5.61,-0.43 8.389995,-0.84 0.06,-0.72 0.17,-2.15 0.23,-2.87 -3.179995,0.35 -7.979995,-0.65 -8.619995,3.71 m -9.68,-2 c 0,1 0,1.99 0.01,2.98 2.57,0.01 5.14,-0.05 7.7,-0.16 0.12,-0.99 0.23,-1.97 0.34,-2.96 -2.68,-0.01 -5.37,0.05 -8.05,0.14 m 29.299995,-0.13 c 0.13,0.76 0.38,2.28 0.51,3.04 2.46,0.85 4.93,1.69 7.45,2.33 0.34,-4.41 -4.82,-4.68 -7.96,-5.37 m -105.0799954,5.37 c -0.44,2.63 -0.77,5.28 -0.95,7.95 0.67,-0.04 2.03,-0.11 2.71,-0.15 0.52,-2.64 0.9400004,-5.3 1.1300004,-7.99 -0.9700004,0.06 -1.9300004,0.13 -2.8900004,0.19 m 117.1199954,7.87 c 0.45,-0.21 1.36,-0.62 1.81,-0.83 0.41,-3.19 -1.71,-5.78 -3.75,-7.95 -2.42,2.91 0.57,6.15 1.94,8.78 m -5.24,4.74 c 1.7,0.09 3.4,-0.13 5.11,-0.26 -0.11,1.76 -0.05,3.53 -0.14,5.29 1,0.09 2.01,0.18 3.01,0.27 0.03,-2.7 0,-5.39 -0.08,-8.08 -0.69,-0.06 -2.05,-0.17 -2.73,-0.23 0,0.3 0,0.89 0,1.18 -1.03,-1.26 -2.23,-2.41 -3.72,-3.1 -2.09,0.81 -2.95,3.12 -1.45,4.93 m -113.5499954,-2.11 c 0.01,2.8 -0.94,5.93 0.72,8.45 3.48,-1.23 1.88,-5.66 2.1,-8.45 -0.71,0 -2.12,0 -2.82,0 m 0.04,10.21 c 0.2,2.700003 0.62,5.380003 1.26,8.010003 0.6,0 1.82,0 2.43,-0.01 -0.1,-2.59 -0.32,-5.17 -0.58,-7.750003 -1.03,-0.08 -2.07,-0.16 -3.11,-0.25 m 118.6499954,-0.34 c -0.71,2.430003 -1.09,4.930003 -1.3,7.440003 1.03,0.11 2.05,0.22 3.08,0.32 0.48,-2.46 0.85,-4.95 1.09,-7.450003 -0.71,-0.08 -2.15,-0.23 -2.87,-0.31 M 8.0980446,110.36443 c 0.72,2.12 1.73,4.12 2.7000004,6.13 0.74,-0.07 2.22,-0.21 2.96,-0.28 -0.9,-2.56 -1.95,-5.06 -3.04,-7.55 -0.8900004,0.53 -1.9600004,0.85 -2.6200004,1.7 m 114.3499954,-1.09 c -0.19,2.73 -2.5,6.1 0.14,8.22 2.72,-2.03 2.54,-5.6 2.73,-8.63 -0.96,0.13 -1.92,0.27 -2.87,0.41 m -8.53,8.14 c 0.01,1.35 0.01,2.71 0.02,4.07 1.37,0.08 2.75,0.16 4.14,0.24 -0.02,-1.45 -0.08,-2.89 -0.18,-4.33 -1.33,-0.02 -2.65,-0.01 -3.98,0.02 m -101.379995,1.9 c 2.18,2.05 4.43,7.77 7.98,4.53 -1.79,-2 -3.41,-4.25 -5.73,-5.68 -0.56,0.29 -1.69,0.86 -2.25,1.15 m 107.229995,-0.45 c -1.25,2.44 -2.45,4.94 -3.13,7.62 4.13,0.25 5.12,-4.18 5.9,-7.32 -0.69,-0.08 -2.08,-0.23 -2.77,-0.3 m -99.309995,6.67 c 0.41,1.75 1.05,3.56 2.78,4.41 1.46,1.11 4.5,2.61 4.84,-0.32 -1.98,-2.22 -4.65,-3.73 -7.62,-4.09 m 89.349995,8.66 c 3.64,-0.12 6.49,-3.22 7.05,-6.69 -3.26,0.65 -7.05,3 -7.05,6.69 m -79.749995,-3.49 c -0.13,0.75 -0.4,2.23 -0.53,2.97 2.53,1.22 5.15,2.27 7.92,2.78 0.07,-4.04 -4.52,-4.47 -7.39,-5.75 m 70.999995,5.72 c 0.01,1.02 0.01,2.04 0.03,3.06 2.41,-0.69 4.77,-1.54 7.11,-2.46 -0.02,-1.13 -0.05,-2.25 -0.07,-3.38 -2.39,0.84 -4.73,1.81 -7.07,2.78 m -62.299995,-1.44 c 0.05,4.28 5.2,3.99 8.28,4.51 0.02,-0.66 0.06,-1.98 0.08,-2.64 -2.72,-0.9 -5.5,-1.66 -8.36,-1.87 m 10.84,2.85 c -0.16,0.5 -0.48,1.5 -0.64,1.99 2.38,1.8 5.49,1.45 8.29,1.68 0.01,-0.67 0.02,-2 0.03,-2.67 -2.53,-0.49 -5.08,-1.06 -7.68,-1 m 41.26,1.3 c 0.1,1.01 0.19,2.03 0.29,3.04 2.72,-0.58 5.85,-0.45 8,-2.46 -0.2,-0.45 -0.6,-1.36 -0.8,-1.82 -2.55,0 -5.02,0.71 -7.49,1.24 m -30.86,0.13 c -0.07,0.98 -0.15,1.96 -0.21,2.95 2.84,0.45 5.78,0.88 8.56,-0.17 -0.42,-0.63 -1.25,-1.9 -1.67,-2.54 -2.23,-0.07 -4.46,-0.15 -6.68,-0.24 m 10.46,1.07 c -0.25,0.9 -0.48,1.8 -0.67,2.71 2.72,0.11 5.44,0.15 8.16,0.13 0.09,-0.68 0.25,-2.03 0.33,-2.71 -2.59,-0.24 -5.23,-0.61 -7.82,-0.13 m 10.41,-0.3 c 0.01,1.03 0.02,2.06 0.04,3.1 2.35,-0.07 4.71,-0.16 7.06,-0.25 0.16,-1.02 0.32,-2.05 0.48,-3.08 -2.53,0.04 -5.06,0.12 -7.58,0.23 z"
     id="path4" />
  <path
     fill="#b3b1b1"
     stroke="#b3b1b1"
     stroke-width="0.09375"
     opacity="1"
     d="m 80.158045,5.9344269 c 2.74,-0.54 5.53,-0.82 8.32,-0.93 -0.24,0.95 -0.5,1.89 -0.77,2.82 -2.46,0.82 -5.1,0.62 -7.66,0.61 0.03,-0.63 0.09,-1.88 0.11,-2.5 z"
     id="path6" />
  <path
     fill="#b3b1b1"
     stroke="#b3b1b1"
     stroke-width="0.09375"
     opacity="1"
     d="m 90.818045,5.0444269 c 2.03,-0.26 4.05,-0.54 6.07,-0.85 1.16,0.81 2.88,1.54 1.57,3.13 -2.52,0.59 -5.11,0.33 -7.66,0.24 0,-0.63 0.01,-1.89 0.02,-2.52 z"
     id="path8" />
  <path
     fill="#b3b1b1"
     stroke="#b3b1b1"
     stroke-width="0.09375"
     opacity="1"
     d="m 101.12804,4.9244269 c 2.59,0.04 5.18,0.13 7.77,0.25 0.09,1 0.18,2.01 0.27,3.01 -2.74,-0.11 -5.48,-0.31 -8.19,-0.73 0.04,-0.63 0.11,-1.89 0.15,-2.53 z"
     id="path10" />
  <path
     fill="#b3b1b1"
     stroke="#b3b1b1"
     stroke-width="0.09375"
     opacity="1"
     d="m 118.76804,5.2444269 c 3.93,1.34 4.5,5.8600001 5.11,9.3700001 0.67,5.97 1.56,12.03 0.79,18.03 -0.37,1.74 -0.44,3.93 -2.06,5.03 -4.62,0.87 -9.41,0.56 -13.97,1.81 -10.289995,2.6 -20.049995,8.07 -26.929995,16.23 -2.5,2.79 -3.62,6.42 -4.28,10.03 -4.4,-2.01 -4.25,-7.58 -1.84,-11.1 5.81,-9.16 15.68,-14.99 25.749995,-18.42 5.98,-2.16 12.41,-1.91 18.58,-3.11 1.79,-9.22 1.22,-18.8 -1.15,-27.8700001 z"
     id="path12" />
  <path
     fill="#b3b1b1"
     stroke="#b3b1b1"
     stroke-width="0.09375"
     opacity="1"
     d="m 69.478045,8.2344269 c 2.83,-0.9 5.77,-1.47 8.76,-1.46 -0.16,0.96 -0.33,1.91 -0.49,2.86 -2.15,0.4100001 -4.28,0.8900001 -6.45,1.1300001 -1.19,-0.2 -1.21,-1.7200001 -1.82,-2.5300001 z"
     id="path14" />
  <path
     fill="#b3b1b1"
     stroke="#b3b1b1"
     stroke-width="0.09375"
     opacity="1"
     d="m 110.03804,8.2344269 c 1.03,-0.18 2.07,-0.36 3.1,-0.54 0.52,2.8000001 3.29,6.4700001 0.4,8.7100001 -2.25,-2.12 -2.51,-5.41 -3.5,-8.1700001 z"
     id="path16" />
  <path
     fill="#b3b1b1"
     stroke="#b3b1b1"
     stroke-width="0.09375"
     opacity="1"
     d="m 59.968045,11.794427 c 2.21,-0.98 4.44,-1.9700001 6.78,-2.6000001 1.69,0.8100001 1.62,2.9500001 -0.29,3.3200001 -1.94,0.97 -4.08,1.37 -6.18,1.78 -0.08,-0.63 -0.23,-1.88 -0.31,-2.5 z"
     id="path18" />
  <path
     fill="#625c6d"
     stroke="#625c6d"
     stroke-width="0.09375"
     opacity="1"
     d="m 88.028045,11.364427 c 1.62,-0.5 3.26,-1.09 4.99,-0.95 0.22,1.56 0.58,3.17 0.17,4.73 -1.26,0.58 -2.53,1.12 -3.83,1.61 -0.45,-1.79 -0.9,-3.59 -1.33,-5.39 z"
     id="path20" />
  <path
     fill="#eb512d"
     stroke="#eb512d"
     stroke-width="0.09375"
     opacity="1"
     d="m 93.018045,10.414427 c 3.51,-0.01 7.039995,-0.38 10.539995,0 3.91,0.41 6.67,5.37 4.69,8.84 -2.73,2.99 -7.01,3.39 -10.729995,4.22 -8.52,1.56 -16.91,4.89 -23.41,10.73 -4.28,3.65 -7.26,8.46 -10.83,12.74 0.03,-1.56 0.04,-3.12 0.02,-4.68 -1.21,0.41 -2.45,0.76 -3.61,1.3 -0.44,1.14 -0.72,2.32 -1.04,3.49 1.39,-0.01 2.78,-0.03 4.18,-0.07 -1.22,4.96 -4.35,9.33 -4.69,14.52 -0.32,3.18 -0.16,6.8 2.26,9.18 0.54,0.62 1.08,1.24 1.64,1.85 2.75,3.52 7.45,4.32 11.59,5.03 8.91,1.1 17.89,-0.05 26.829995,0.28 -0.549995,1.09 -1.109995,2.19 -1.669995,3.29 1.679995,0.47 3.369995,0.94 5.049995,1.4 0.14,-1.38 0.28,-2.75 0.41,-4.12 3.38,0.57 6.86,1.67 9.18,4.34 4.89,5.24 6.21,13.14 4.49,19.950003 -2.45,9.81 -8.15,18.94 -16.33,24.96 -3.309995,2.56 -7.109995,4.34 -10.779995,6.31 -0.36,-1.26 -0.71,-2.51 -1.07,-3.76 -1.42,-0.06 -2.85,-0.11 -4.27,-0.14 0.53,1.65 0.82,3.44 1.91,4.85 -0.86,0.95 -2.37,0.79 -3.53,1.09 -10.49,1.15 -21.46,1.79 -31.62,-1.63 0.08,-1.6 0.16,-3.19 0.24,-4.79 -0.78,-0.12 -2.34,-0.36 -3.12,-0.48 -0.77,0.79 -1.53,1.59 -2.3,2.38 0.62,0.78 1.24,1.55 1.86,2.33 -12.31,-2.05 -24.42,-8.77 -30.84,-19.77 -4.39,-7.31 -5.22,-16.150003 -4.58,-24.490003 0.49,-4.94 0.52,-10.23 3.36,-14.53 1.47,0.37 2.94,0.72 4.42,1.07 -0.1,-1.64 -0.13,-3.28 -0.34,-4.9 -1.43,0.25 -2.83,0.59 -4.24,0.92 4.62,-19.69 17.55,-37.06 34.64,-47.76 1.16,-0.63 2.35,-1.45 3.74,-1.41 1.28,-0.01 2.56,0.04 3.85,0.07 0.48,-1.23 0.98,-2.44 1.5,-3.65 8.65,-4.15 18.15,-6.43 27.61,-8.01 0.43,1.8 0.88,3.6 1.33,5.39 1.3,-0.49 2.57,-1.03 3.83,-1.61 0.41,-1.56 0.05,-3.17 -0.17,-4.73 m -18.31,14.3 c 0.15,1.62 -0.47,3.6 0.93,4.83 2.5,0.95 4.73,-2.04 3.06,-4.14 -1.31,-0.34 -2.66,-0.48 -3.99,-0.69 m -32.85,10.47 c 0.14,1.24 0.23,2.5 0.49,3.73 1.24,0.27 2.51,0.37 3.77,0.51 0.07,-1.5 0.14,-3 0.2,-4.5 -1.48,0.08 -2.97,0.16 -4.46,0.26 m -14.24,13.82 c -0.09,1.62 -0.18,3.24 -0.25,4.87 1.35,-0.17 2.7,-0.39 4.03,-0.66 0.23,-1.38 0.13,-2.78 0.11,-4.17 -1.3,-0.01 -2.59,-0.03 -3.89,-0.04 m 13.51,12.2 c -0.03,1.3 -0.07,2.61 -0.09,3.92 1.37,0.03 2.75,0.05 4.12,0.08 0.03,-1.42 0.05,-2.84 0.06,-4.26 -1.36,0.08 -2.73,0.17 -4.09,0.26 m -11.09,16.9 c -0.05,1.38 -0.09,2.77 -0.13,4.17 1.4,-0.04 2.81,-0.07 4.22,-0.11 -0.04,-1.35 -0.07,-2.7 -0.11,-4.04 -1.33,-0.01 -2.65,-0.02 -3.98,-0.02 m 47.47,1.41 c -0.48,1.19 -0.93,2.4 -1.52,3.56 -4.44,0.51 -9.24,-0.66 -13.28,1.86 -8.67,4.27 -12.29,14.03 -13.62,23.010003 l 0.01,-0.8 c -1.34,-0.08 -2.68,-0.16 -4.02,-0.23 -0.33,0.84 -0.99,2.52 -1.32,3.36 1.72,0.69 3.54,1 5.38,1.18 l -0.03,-1.31 c 1.08,3.36 2.45,6.65 4.25,9.7 2.5,4.18 6.96,6.54 11.15,8.72 l 1.24,-0.17 c 0.03,1.28 0.06,2.57 0.09,3.86 1.15,0.02 2.31,0.03 3.47,0.04 0.39,-1.06 0.78,-2.11 1.18,-3.17 2.1,1.39 4.8,0.64 7.13,0.44 6.6,-0.87 12.34,-4.88 16.28,-10.13 1.39,0.39 2.83,0.6 4.25,0.87 0.24,-1.29 0.44,-2.58 0.62,-3.87 -1.26,-0.59 -2.54,-1.13 -3.84,-1.61 1.29,-6.89 0.55,-14.4 -2.83,-20.630003 -2.36,-4.98 -7.1,-8.16 -12.1,-10.09 0.53,-0.63 1.6,-1.9 2.14,-2.53 -0.32,-0.64 -0.96,-1.92 -1.28,-2.56 -1.12,0.16 -2.23,0.33 -3.35,0.5 m -23.88,1.93 c -0.3,1.18 -0.5,2.39 -0.71,3.59 1.68,0.04 3.37,0.08 5.05,0.09 0.01,-1.39 0.01,-2.77 0.01,-4.16 -1.46,0.1 -2.94,0.05 -4.35,0.48 m -38.37,9.81 c -0.06,0.99 -0.17,2.98 -0.23,3.98 1.7,0 3.39,-0.02 5.08,-0.04 -0.05,-0.98 -0.15,-2.94 -0.2,-3.92 -1.55,-0.01 -3.1,-0.02 -4.65,-0.02 m 18.69,4.85 c 0.36,1.77 0.76,3.53 1.17,5.290003 1.27,-0.86 4.06,-0.8 3.77,-2.860003 0.68,-3.17 -3.07,-2.37 -4.94,-2.43 m 62.43,0.25 c -0.03,0.96 -0.1,2.86 -0.13,3.820003 1.38,0.12 2.77,0.23 4.159995,0.34 -0.02,-1.500003 -0.04,-2.990003 -0.07,-4.480003 -1.319995,0.11 -2.639995,0.21 -3.959995,0.32 m 14.569995,3.680003 c -0.02,1.4 -0.03,2.79 -0.03,4.2 1.32,-0.1 2.65,-0.2 3.98,-0.3 0.08,-1.3 0.15,-2.59 0.22,-3.88 -1.39,-0.01 -2.78,-0.02 -4.17,-0.02 m -91.989995,9.02 c -0.02,1.37 -0.03,2.75 -0.03,4.13 1.4,-0.03 2.81,-0.06 4.22,-0.09 0.04,-1.39 0.07,-2.78 0.11,-4.17 -1.44,0.03 -2.87,0.08 -4.3,0.13 m 11.92,13.34 c 0.34,0.69 1.01,2.07 1.34,2.76 1.25,-0.04 2.5,-0.08 3.75,-0.12 0.03,-1.23 0.06,-2.47 0.09,-3.7 -0.67,-0.37 -1.99,-1.1 -2.66,-1.47 -0.84,0.84 -1.68,1.68 -2.52,2.53 z"
     id="path22"
     style="stroke-width:2.26875006;stroke-miterlimit:4;stroke-dasharray:none" />
  <path
     fill="#b3b1b1"
     stroke="#b3b1b1"
     stroke-width="0.09375"
     opacity="1"
     d="m 50.958045,19.384427 c -1.05,-3.78 2.98,-5.05 5.75,-6.07 0.41,0.16 1.24,0.47 1.65,0.63 -0.19,3.63 -4.93,3.9 -7.4,5.44 z"
     id="path24" />
  <path
     fill="#b3b1b1"
     stroke="#b3b1b1"
     stroke-width="0.09375"
     opacity="1"
     d="m 112.67804,17.964427 c 0.68,0.04 2.04,0.12 2.73,0.15 -0.06,2.57 -0.23,5.13 -0.48,7.68 -0.91,0.14 -1.81,0.3 -2.71,0.46 0.47,-1.62 0.56,-3.3 0.57,-4.98 0.01,-1.1 -0.02,-2.21 -0.11,-3.31 z"
     id="path26" />
  <path
     fill="#b3b1b1"
     stroke="#b3b1b1"
     stroke-width="0.09375"
     opacity="1"
     d="m 42.098045,22.024427 c 2.09,-1.54 4.3,-2.97 6.88,-3.49 0.06,0.64 0.16,1.93 0.21,2.57 -2.13,1.55 -4.36,3.08 -7.03,3.47 -0.02,-0.63 -0.05,-1.91 -0.06,-2.55 z"
     id="path28" />
  <path
     fill="#625c6d"
     stroke="#625c6d"
     stroke-width="0.09375"
     opacity="1"
     d="m 55.328045,19.084427 c 1.7,0.07 3.39,0.17 5.09,0.29 -0.52,1.21 -1.02,2.42 -1.5,3.65 -1.29,-0.03 -2.57,-0.08 -3.85,-0.07 0.08,-1.29 0.17,-2.58 0.26,-3.87 z"
     id="path30" />
  <path
     fill="#625c6d"
     stroke="#625c6d"
     stroke-width="0.09375"
     opacity="1"
     d="m 108.64804,25.264427 c 0.01,-2.56 1.75,-3.71 4.14,-3.99 -0.01,1.68 -0.1,3.36 -0.57,4.98 l -0.2,0.94 c -0.84,-0.48 -2.53,-1.45 -3.37,-1.93 z"
     id="path32" />
  <path
     fill="#b3b1b1"
     stroke="#b3b1b1"
     stroke-width="0.09375"
     opacity="1"
     d="m 34.118045,30.864427 c 0.46,-3.25 3.7,-5.54 6.78,-6.22 0.03,0.64 0.1,1.94 0.14,2.58 -2.11,1.53 -3.9,5.05 -6.92,3.64 z"
     id="path34" />
  <path
     fill="#625c6d"
     stroke="#625c6d"
     stroke-width="0.09375"
     opacity="1"
     d="m 74.708045,24.714427 c 1.33,0.21 2.68,0.35 3.99,0.69 1.67,2.1 -0.56,5.09 -3.06,4.14 -1.4,-1.23 -0.78,-3.21 -0.93,-4.83 z"
     id="path36" />
  <path
     fill="#b3b1b1"
     stroke="#b3b1b1"
     stroke-width="0.09375"
     opacity="1"
     d="m 103.11804,26.384427 c 1.85,-0.36 3.69,-0.73 5.53,-1.12 0.84,0.48 2.53,1.45 3.37,1.93 -2.91,1.3 -6.02,2.07 -9.2,2.23 0.09,-1.01 0.2,-2.03 0.3,-3.04 z"
     id="path38" />
  <path
     fill="#b3b1b1"
     stroke="#b3b1b1"
     stroke-width="0.09375"
     opacity="1"
     d="m 92.428045,32.514427 c 0.2,-4.12 4.77,-4.22 7.829995,-4.93 0.03,0.74 0.08,2.21 0.1,2.95 -2.559995,0.95 -5.189995,1.75 -7.929995,1.98 z"
     id="path40" />
  <path
     fill="#b3b1b1"
     stroke="#b3b1b1"
     stroke-width="0.09375"
     opacity="1"
     d="m 83.578045,37.684427 c -0.29,-3.49 3.46,-5.83 6.54,-5.7 2.29,0.73 0.32,2.76 -0.96,3.29 -1.71,1.12 -3.67,1.75 -5.58,2.41 z"
     id="path42" />
  <path
     fill="#b3b1b1"
     stroke="#b3b1b1"
     stroke-width="0.09375"
     opacity="1"
     d="m 27.138045,37.664427 c 1.44,-2.49 3.62,-4.41 5.78,-6.25 1.36,3.07 -0.97,5.65 -3.14,7.52 -1.34,0.76 -2.41,0.33 -2.64,-1.27 z"
     id="path44" />
  <path
     fill="#625c6d"
     stroke="#625c6d"
     stroke-width="0.09375"
     opacity="1"
     d="m 41.858045,35.184427 c 1.49,-0.1 2.98,-0.18 4.46,-0.26 -0.06,1.5 -0.13,3 -0.2,4.5 -1.26,-0.14 -2.53,-0.24 -3.77,-0.51 -0.26,-1.23 -0.35,-2.49 -0.49,-3.73 z"
     id="path46" />
  <path
     fill="#b3b1b1"
     stroke="#b3b1b1"
     stroke-width="0.09375"
     opacity="1"
     d="m 76.258045,44.494427 c -2.44,-3.44 1.99,-5.64 4.3,-7.43 1.3,0.37 2.18,1.52 1.19,2.71 -1.59,1.83 -3.6,3.23 -5.49,4.72 z"
     id="path48" />
  <path
     fill="#b3b1b1"
     stroke="#b3b1b1"
     stroke-width="0.09375"
     opacity="1"
     d="m 20.688045,46.934427 c 1.46,-2.61 3.12,-5.1 4.96,-7.46 2.74,2.19 0.44,5.12 -1.16,7.14 -0.76,1.78 -2.49,0.69 -3.8,0.32 z"
     id="path50" />
  <path
     fill="#625c6d"
     stroke="#625c6d"
     stroke-width="0.09375"
     opacity="1"
     d="m 59.688045,43.564427 c 1.16,-0.54 2.4,-0.89 3.61,-1.3 0.02,1.56 0.01,3.12 -0.02,4.68 -0.11,0.01 -0.34,0.03 -0.45,0.04 -1.4,0.04 -2.79,0.06 -4.18,0.07 0.32,-1.17 0.6,-2.35 1.04,-3.49 z"
     id="path52" />
  <path
     fill="#b3b1b1"
     stroke="#b3b1b1"
     stroke-width="0.09375"
     opacity="1"
     d="m 72.128045,45.124427 c 1.24,-0.51 3.3,-0.63 2.59,1.38 -1.24,2.29 -2.47,5.52 -5.49,5.7 -0.94,-2.74 1.24,-5.17 2.9,-7.08 z"
     id="path54" />
  <path
     fill="#b3b1b1"
     stroke="#b3b1b1"
     stroke-width="0.09375"
     opacity="1"
     d="m 19.248045,49.244427 c 0.55,-0.02 1.66,-0.07 2.21,-0.1 -0.2,2.49 -0.69,5.08 -2.42,7 -1.14,0.12 -2.28,0.18 -3.42,0.19 1.12,-2.4 2.34,-4.76 3.63,-7.09 z"
     id="path56" />
  <path
     fill="#625c6d"
     stroke="#625c6d"
     stroke-width="0.09375"
     opacity="1"
     d="m 27.618045,49.004427 c 1.3,0.01 2.59,0.03 3.89,0.04 0.02,1.39 0.12,2.79 -0.11,4.17 -1.33,0.27 -2.68,0.49 -4.03,0.66 0.07,-1.63 0.16,-3.25 0.25,-4.87 z"
     id="path58" />
  <path
     fill="#b3b1b1"
     stroke="#b3b1b1"
     stroke-width="0.09375"
     opacity="1"
     d="m 66.718045,53.824427 c 0.7,0.01 2.1,0.02 2.8,0.02 -0.37,2.46 -0.69,4.96 -1.63,7.28 -1,0.12 -2,0.24 -3,0.37 0.49,-2.58 1.13,-5.13 1.83,-7.67 z"
     id="path60" />
  <path
     fill="#b3b1b1"
     stroke="#b3b1b1"
     stroke-width="0.09375"
     opacity="1"
     d="m 11.818045,66.554427 c 0.6,-3.11 1.12,-8.48 5.55,-7.74 -1,3.05 -1.4,7.71 -5.55,7.74 z"
     id="path62" />
  <path
     fill="#625c6d"
     stroke="#625c6d"
     stroke-width="0.09375"
     opacity="1"
     d="m 41.128045,61.204427 c 1.36,-0.09 2.73,-0.18 4.09,-0.26 -0.01,1.42 -0.03,2.84 -0.06,4.26 -1.37,-0.03 -2.75,-0.05 -4.12,-0.08 0.02,-1.31 0.06,-2.62 0.09,-3.92 z"
     id="path64" />
  <path
     fill="#b3b1b1"
     stroke="#b3b1b1"
     stroke-width="0.09375"
     opacity="1"
     d="m 66.028045,63.944427 c 0.46,0.02 1.39,0.06 1.85,0.09 1.44,2.34 2.97,4.68 3.69,7.37 -2.01,-0.49 -4.07,-0.97 -5.9,-1.96 -0.13,-0.44 -0.38,-1.32 -0.51,-1.76 0.29,-1.25 0.59,-2.5 0.87,-3.74 z"
     id="path66" />
  <path
     fill="#625c6d"
     stroke="#625c6d"
     stroke-width="0.09375"
     opacity="1"
     d="m 60.398045,70.684427 c 0.92,-1.91 2.33,-3.37 4.63,-3.5 l 0.13,0.5 c 0.13,0.44 0.38,1.32 0.51,1.76 0.09,0.46 0.26,1.39 0.35,1.85 -1.32,0.42 -2.65,0.84 -3.98,1.24 -0.56,-0.61 -1.1,-1.23 -1.64,-1.85 z"
     id="path68" />
  <path
     fill="#b3b1b1"
     stroke="#b3b1b1"
     stroke-width="0.09375"
     opacity="1"
     d="m 8.6780446,76.274427 c 0.24,-2.93 0.55,-6.12 2.6800004,-8.37 0.47,0.3 1.42,0.89 1.89,1.19 -0.24,2.49 -1.23,4.81 -2.04,7.15 -0.63,0.01 -1.9000004,0.02 -2.5300004,0.03 z"
     id="path70" />
  <path
     fill="#b3b1b1"
     stroke="#b3b1b1"
     stroke-width="0.09375"
     opacity="1"
     d="m 72.568045,70.784427 c 2.98,0.26 6.15,0.72 8.56,2.65 0.59,3.01 -3.06,1.43 -4.53,1.35 -2.34,-0.21 -3.93,-1.62 -4.03,-4 z"
     id="path72" />
  <path
     fill="#b3b1b1"
     stroke="#b3b1b1"
     stroke-width="0.09375"
     opacity="1"
     d="m 104.02804,70.974427 c 3.23,0.4 7.92,-0.05 8.7,4.17 -2.93,-0.26 -5.84,-0.7 -8.74,-1.16 0.01,-1 0.02,-2.01 0.04,-3.01 z"
     id="path74" />
  <path
     fill="#625c6d"
     stroke="#625c6d"
     stroke-width="0.09375"
     opacity="1"
     d="m 16.688045,72.124427 c 1.41,-0.33 2.81,-0.67 4.24,-0.92 0.21,1.62 0.24,3.26 0.34,4.9 -1.48,-0.35 -2.95,-0.7 -4.42,-1.07 -0.04,-0.73 -0.12,-2.18 -0.16,-2.91 z"
     id="path76" />
  <path
     fill="#b3b1b1"
     stroke="#b3b1b1"
     stroke-width="0.09375"
     opacity="1"
     d="m 92.808045,75.144427 c 0.64,-4.36 5.44,-3.36 8.619995,-3.71 -0.06,0.72 -0.17,2.15 -0.23,2.87 -2.779995,0.41 -5.579995,0.75 -8.389995,0.84 z"
     id="path78" />
  <path
     fill="#b3b1b1"
     stroke="#b3b1b1"
     stroke-width="0.09375"
     opacity="1"
     d="m 83.128045,73.144427 c 2.68,-0.09 5.37,-0.15 8.05,-0.14 -0.11,0.99 -0.22,1.97 -0.34,2.96 -2.56,0.11 -5.13,0.17 -7.7,0.16 -0.01,-0.99 -0.01,-1.98 -0.01,-2.98 z"
     id="path80" />
  <path
     fill="#b3b1b1"
     stroke="#b3b1b1"
     stroke-width="0.09375"
     opacity="1"
     d="m 112.42804,73.014427 c 3.14,0.69 8.3,0.96 7.96,5.37 -2.52,-0.64 -4.99,-1.48 -7.45,-2.33 -0.13,-0.76 -0.38,-2.28 -0.51,-3.04 z"
     id="path82" />
  <path
     fill="#b3b1b1"
     stroke="#b3b1b1"
     stroke-width="0.09375"
     opacity="1"
     d="m 127.54804,75.354427 c 8.44,7 9.01,19.1 8.45,29.220003 -1.09,10.52 -2.44,21.4 -7.46,30.87 -5.02,9.13 -15.41,13.37 -25.23,14.9 -9.199995,1.22 -18.529995,2.16 -27.789995,1.06 -17.82,-0.77 -36.46,-3.14 -51.89,-12.77 -3.09,-1.99 -6.36,-4.01 -8.34,-7.21 15.2,11.41 34.7,14.68 53.22,15.74 15.72,0.06 32.799995,1.82 46.929995,-6.55 9.57,-5.52 13.2,-16.76 14.85,-27.03 2.12,-12.59 3.99,-26.660003 -2.74,-38.230003 z"
     id="path84" />
  <path
     fill="#b3b1b1"
     stroke="#b3b1b1"
     stroke-width="0.09375"
     opacity="1"
     d="m 7.3480446,78.384427 c 0.96,-0.06 1.92,-0.13 2.8900004,-0.19 -0.19,2.69 -0.6100004,5.35 -1.1300004,7.99 -0.68,0.04 -2.04,0.11 -2.71,0.15 0.18,-2.67 0.51,-5.32 0.95,-7.95 z"
     id="path86" />
  <path
     fill="#625c6d"
     stroke="#625c6d"
     stroke-width="0.09375"
     opacity="1"
     d="m 30.038045,78.104427 c 1.33,0 2.65,0.01 3.98,0.02 0.04,1.34 0.07,2.69 0.11,4.04 -1.41,0.04 -2.82,0.07 -4.22,0.11 0.04,-1.4 0.08,-2.79 0.13,-4.17 z"
     id="path88" />
  <path
     fill="#625c6d"
     stroke="#625c6d"
     stroke-width="0.09375"
     opacity="1"
     d="m 100.45804,77.844427 c 1.27,0.09 2.55,0.18 3.82,0.27 l -0.03,0.3 c -0.13,1.37 -0.27,2.74 -0.41,4.12 -1.68,-0.46 -3.37,-0.93 -5.049995,-1.4 0.56,-1.1 1.12,-2.2 1.669995,-3.29 z"
     id="path90" />
  <path
     fill="#625c6d"
     stroke="#625c6d"
     stroke-width="0.09375"
     opacity="1"
     d="m 77.508045,79.514427 c 1.12,-0.17 2.23,-0.34 3.35,-0.5 0.32,0.64 0.96,1.92 1.28,2.56 -0.54,0.63 -1.61,1.9 -2.14,2.53 -1.01,-0.44 -2.02,-0.87 -3.02,-1.31 0.13,-0.82 0.4,-2.46 0.53,-3.28 z"
     id="path92" />
  <path
     fill="#b3b1b1"
     stroke="#b3b1b1"
     stroke-width="0.09375"
     opacity="1"
     d="m 124.46804,86.254427 c -1.37,-2.63 -4.36,-5.87 -1.94,-8.78 2.04,2.17 4.16,4.76 3.75,7.95 -0.45,0.21 -1.36,0.62 -1.81,0.83 z"
     id="path94" />
  <path
     fill="#dd390a"
     stroke="#dd390a"
     stroke-width="0.09375"
     opacity="1"
     d="m 75.988045,83.074427 c 0.59,-1.16 1.04,-2.37 1.52,-3.56 -0.13,0.82 -0.4,2.46 -0.53,3.28 1,0.44 2.01,0.87 3.02,1.31 5,1.93 9.74,5.11 12.1,10.09 3.38,6.230003 4.12,13.740003 2.83,20.630003 -0.36,1.53 -0.74,3.06 -1.03,4.61 -3.94,5.25 -9.68,9.26 -16.28,10.13 -2.33,0.2 -5.03,0.95 -7.13,-0.44 -0.45,-0.28 -1.34,-0.84 -1.79,-1.12 -0.98,0.12 -1.97,0.25 -2.95,0.39 l -1.24,0.17 c -4.19,-2.18 -8.65,-4.54 -11.15,-8.72 -1.8,-3.05 -3.17,-6.34 -4.25,-9.7 -0.01,-0.55 -0.01,-1.65 -0.02,-2.2 1.33,-8.980003 4.95,-18.740003 13.62,-23.010003 4.04,-2.52 8.84,-1.35 13.28,-1.86 m -8.67,4.71 c 2.51,1 5.35,0.33 8,0.45 -0.13,-1.02 -0.26,-2.05 -0.39,-3.07 -1.76,-0.01 -3.53,-0.06 -5.28,0.08 -1.15,0.15 -3.95,0.85 -2.33,2.54 m 10.72,-1.23 c -0.09,0.72 -0.29,2.14 -0.38,2.86 1.6,1.13 3.19,2.29 4.76,3.47 0.51,0.04 1.54,0.13 2.05,0.17 0.32,-3.86 -3.46,-5.36 -6.43,-6.5 m -20.57,6.41 c 3.3,1.16 5.55,-1.72 7.98,-3.36 -0.61,-0.8 -0.41,-2.76 -1.89,-2.4 -2.72,1.04 -4.42,3.52 -6.09,5.76 m 27.25,1.34 c 0.38,2.71 1.36,5.27 2.5,7.740003 0.57,0.02 1.7,0.04 2.27,0.06 -0.1,-2.820003 -0.86,-5.520003 -2.19,-8.000003 -0.64,0.05 -1.94,0.15 -2.58,0.2 m -28.32,0.28 c -1.11,2.68 -2.32,5.450003 -2.17,8.420003 3.47,1.06 3.45,-3.310003 4.42,-5.520003 1.15,-1.69 -1.46,-2 -2.25,-2.9 m 4.7,14.060003 c 0.03,2.63 1.96,4.53 3.84,6.08 5.38,1.09 11.17,2 16.18,-0.88 0.08,-0.26 0.22,-0.79 0.29,-1.05 2.49,-2.57 1.96,-6.47 1.36,-9.68 -1.45,-6.350003 -8.91,-11.130003 -15.13,-8.180003 -5.34,2.06 -7.01,8.530003 -6.54,13.710003 m 26.31,-4.19 c -0.03,2.47 -0.04,4.94 -0.06,7.41 0.99,0.15 1.99,0.29 2.98,0.44 0.36,-2.78 0.34,-5.58 -0.09,-8.34 -0.95,0.16 -1.89,0.32 -2.83,0.49 m -34.15,0.99 c 0.11,2.48 -0.12,5.11 1.01,7.41 0.94,0.21 1.88,0.39 2.83,0.55 -0.19,-2.79 -0.56,-5.56 -0.96,-8.33 -0.96,0.12 -1.92,0.25 -2.88,0.37 m 32.96,9.76 c -1.53,1.68 -4.08,3.56 -3.05,6.16 3.19,-0.38 5.53,-3.38 6.15,-6.38 -1.17,-0.95 -2.2,-0.87 -3.1,0.22 m -30.34,-0.35 c 0.3,1.85 0.48,4.1 2.32,5.14 3.63,2.14 7.91,2.9 12.05,3.36 -0.07,-1.01 -0.14,-2.01 -0.21,-3.02 -5.33,-0.09 -9.72,-2.92 -14.16,-5.48 m 17.2,5.58 c 0.01,1.21 0.04,2.42 0.07,3.63 2.62,-0.29 5.22,-0.69 7.81,-1.16 -0.04,-0.88 -0.08,-1.76 -0.12,-2.63 -2.59,0.05 -5.18,0.11 -7.76,0.16 z"
     id="path96" />
  <path
     fill="#625c6d"
     stroke="#625c6d"
     stroke-width="0.09375"
     opacity="1"
     d="m 53.628045,81.444427 c 1.41,-0.43 2.89,-0.38 4.35,-0.48 0,1.39 0,2.77 -0.01,4.16 -1.68,-0.01 -3.37,-0.05 -5.05,-0.09 0.21,-1.2 0.41,-2.41 0.71,-3.59 z"
     id="path98" />
  <path
     fill="#b3b1b1"
     stroke="#b3b1b1"
     stroke-width="0.09375"
     opacity="1"
     d="m 67.318045,87.784427 c -1.62,-1.69 1.18,-2.39 2.33,-2.54 1.75,-0.14 3.52,-0.09 5.28,-0.08 0.13,1.02 0.26,2.05 0.39,3.07 -2.65,-0.12 -5.49,0.55 -8,-0.45 z"
     id="path100" />
  <path
     fill="#b3b1b1"
     stroke="#b3b1b1"
     stroke-width="0.09375"
     opacity="1"
     d="m 78.038045,86.554427 c 2.97,1.14 6.75,2.64 6.43,6.5 -0.51,-0.04 -1.54,-0.13 -2.05,-0.17 -1.57,-1.18 -3.16,-2.34 -4.76,-3.47 0.09,-0.72 0.29,-2.14 0.38,-2.86 z"
     id="path102" />
  <path
     fill="#625c6d"
     stroke="#625c6d"
     stroke-width="0.09375"
     opacity="1"
     d="m 119.22804,90.994427 c -1.5,-1.81 -0.64,-4.12 1.45,-4.93 1.49,0.69 2.69,1.84 3.72,3.1 -0.01,0.39 -0.05,1.18 -0.06,1.57 -1.71,0.13 -3.41,0.35 -5.11,0.26 z"
     id="path104" />
  <path
     fill="#b3b1b1"
     stroke="#b3b1b1"
     stroke-width="0.09375"
     opacity="1"
     d="m 57.468045,92.964427 c 1.67,-2.24 3.37,-4.72 6.09,-5.76 1.48,-0.36 1.28,1.6 1.89,2.4 -2.43,1.64 -4.68,4.52 -7.98,3.36 z"
     id="path106" />
  <path
     fill="#b3b1b1"
     stroke="#b3b1b1"
     stroke-width="0.09375"
     opacity="1"
     d="m 124.39804,87.984427 c 0.68,0.06 2.04,0.17 2.73,0.23 0.08,2.69 0.11,5.38 0.08,8.08 -1,-0.09 -2.01,-0.18 -3.01,-0.27 0.09,-1.76 0.03,-3.53 0.14,-5.29 0.01,-0.39 0.05,-1.18 0.06,-1.57 0,-0.29 0,-0.88 0,-1.18 z"
     id="path108" />
  <path
     fill="#b3b1b1"
     stroke="#b3b1b1"
     stroke-width="0.09375"
     opacity="1"
     d="m 5.6780446,88.884427 c 0.7,0 2.11,0 2.82,0 -0.22,2.79 1.38,7.22 -2.1,8.45 -1.66,-2.52 -0.71,-5.65 -0.72,-8.45 z"
     id="path110" />
  <path
     fill="#625c6d"
     stroke="#625c6d"
     stroke-width="0.09375"
     opacity="1"
     d="m 15.258045,91.254427 c 1.55,0 3.1,0.01 4.65,0.02 0.05,0.98 0.15,2.94 0.2,3.92 -1.69,0.02 -3.38,0.04 -5.08,0.04 0.06,-1 0.17,-2.99 0.23,-3.98 z"
     id="path112" />
  <path
     fill="#b3b1b1"
     stroke="#b3b1b1"
     stroke-width="0.09375"
     opacity="1"
     d="m 84.718045,94.304427 c 0.64,-0.05 1.94,-0.15 2.58,-0.2 1.33,2.48 2.09,5.18 2.19,8.000003 -0.57,-0.02 -1.7,-0.04 -2.27,-0.06 -1.14,-2.470003 -2.12,-5.030003 -2.5,-7.740003 z"
     id="path114" />
  <path
     fill="#b3b1b1"
     stroke="#b3b1b1"
     stroke-width="0.09375"
     opacity="1"
     d="m 56.398045,94.584427 c 0.79,0.9 3.4,1.21 2.25,2.9 -0.97,2.21 -0.95,6.580003 -4.42,5.520003 -0.15,-2.97 1.06,-5.740003 2.17,-8.420003 z"
     id="path116" />
  <path
     fill="#b3b1b1"
     stroke="#b3b1b1"
     stroke-width="0.09375"
     opacity="1"
     d="m 61.098045,108.64443 c -0.47,-5.18 1.2,-11.650003 6.54,-13.710003 6.22,-2.95 13.68,1.83 15.13,8.180003 0.6,3.21 1.13,7.11 -1.36,9.68 1.42,-4.36 1.97,-9.84 -1.48,-13.420003 -4.49,-2.59 -10.94,-0.35 -13.24,4.230003 -1.87,3.38 -1.62,7.38 -1.75,11.12 -1.88,-1.55 -3.81,-3.45 -3.84,-6.08 z"
     id="path118" />
  <path
     fill="#625c6d"
     stroke="#625c6d"
     stroke-width="0.09375"
     opacity="1"
     d="m 33.948045,96.104427 c 1.87,0.06 5.62,-0.74 4.94,2.43 0.29,2.060003 -2.5,2.000003 -3.77,2.860003 -0.41,-1.760003 -0.81,-3.520003 -1.17,-5.290003 z"
     id="path120" />
  <path
     fill="#625c6d"
     stroke="#625c6d"
     stroke-width="0.09375"
     opacity="1"
     d="m 96.378045,96.354427 c 1.32,-0.11 2.64,-0.21 3.959995,-0.32 0.03,1.49 0.05,2.98 0.07,4.480003 -1.389995,-0.11 -2.779995,-0.22 -4.159995,-0.34 0.03,-0.960003 0.1,-2.860003 0.13,-3.820003 z"
     id="path122" />
  <path
     fill="#b3b1b1"
     stroke="#b3b1b1"
     stroke-width="0.09375"
     opacity="1"
     d="m 5.7180446,99.094427 c 1.04,0.09 2.08,0.17 3.11,0.25 0.26,2.580003 0.48,5.160003 0.58,7.750003 -0.61,0.01 -1.83,0.01 -2.43,0.01 -0.64,-2.63 -1.06,-5.31 -1.26,-8.010003 z"
     id="path124" />
  <path
     fill="#b3b1b1"
     stroke="#b3b1b1"
     stroke-width="0.09375"
     opacity="1"
     d="m 124.36804,98.754427 c 0.72,0.08 2.16,0.23 2.87,0.31 -0.24,2.500003 -0.61,4.990003 -1.09,7.450003 -1.03,-0.1 -2.05,-0.21 -3.08,-0.32 0.21,-2.51 0.59,-5.01 1.3,-7.440003 z"
     id="path128" />
  <path
     fill="#625c6d"
     stroke="#625c6d"
     stroke-width="0.09375"
     opacity="1"
     d="m 110.94804,100.03443 c 1.39,0 2.78,0.01 4.17,0.02 -0.07,1.29 -0.14,2.58 -0.22,3.88 -1.33,0.1 -2.66,0.2 -3.98,0.3 0,-1.41 0.01,-2.8 0.03,-4.2 z"
     id="path130" />
  <path
     fill="#b3b1b1"
     stroke="#b3b1b1"
     stroke-width="0.09375"
     opacity="1"
     d="m 87.408045,104.45443 c 0.94,-0.17 1.88,-0.33 2.83,-0.49 0.43,2.76 0.45,5.56 0.09,8.34 -0.99,-0.15 -1.99,-0.29 -2.98,-0.44 0.02,-2.47 0.03,-4.94 0.06,-7.41 z"
     id="path132" />
  <path
     fill="#b3b1b1"
     stroke="#b3b1b1"
     stroke-width="0.09375"
     opacity="1"
     d="m 53.258045,105.44443 c 0.96,-0.12 1.92,-0.25 2.88,-0.37 0.4,2.77 0.77,5.54 0.96,8.33 -0.95,-0.16 -1.89,-0.34 -2.83,-0.55 -1.13,-2.3 -0.9,-4.93 -1.01,-7.41 z"
     id="path134" />
  <path
     fill="#625c6d"
     stroke="#625c6d"
     stroke-width="0.09375"
     opacity="1"
     d="m 45.078045,106.91443 c 1.34,0.07 2.68,0.15 4.02,0.23 l -0.01,0.8 c 0.01,0.55 0.01,1.65 0.02,2.2 l 0.03,1.31 c -1.84,-0.18 -3.66,-0.49 -5.38,-1.18 0.33,-0.84 0.99,-2.52 1.32,-3.36 z"
     id="path136" />
  <path
     fill="#b3b1b1"
     stroke="#b3b1b1"
     stroke-width="0.09375"
     opacity="1"
     d="m 8.0980446,110.36443 c 0.66,-0.85 1.73,-1.17 2.6200004,-1.7 1.09,2.49 2.14,4.99 3.04,7.55 -0.74,0.07 -2.22,0.21 -2.96,0.28 -0.9700004,-2.01 -1.9800004,-4.01 -2.7000004,-6.13 z"
     id="path138" />
  <path
     fill="#625c6d"
     stroke="#625c6d"
     stroke-width="0.09375"
     opacity="1"
     d="m 18.958045,109.05443 c 1.43,-0.05 2.86,-0.1 4.3,-0.13 -0.04,1.39 -0.07,2.78 -0.11,4.17 -1.41,0.03 -2.82,0.06 -4.22,0.09 0,-1.38 0.01,-2.76 0.03,-4.13 z"
     id="path140" />
  <path
     fill="#b3b1b1"
     stroke="#b3b1b1"
     stroke-width="0.09375"
     opacity="1"
     d="m 122.44804,109.27443 c 0.95,-0.14 1.91,-0.28 2.87,-0.41 -0.19,3.03 -0.01,6.6 -2.73,8.63 -2.64,-2.12 -0.33,-5.49 -0.14,-8.22 z"
     id="path142" />
  <path
     fill="#b3b1b1"
     stroke="#b3b1b1"
     stroke-width="0.09375"
     opacity="1"
     d="m 86.218045,115.20443 c 0.9,-1.09 1.93,-1.17 3.1,-0.22 -0.62,3 -2.96,6 -6.15,6.38 -1.03,-2.6 1.52,-4.48 3.05,-6.16 z"
     id="path144" />
  <path
     fill="#b3b1b1"
     stroke="#b3b1b1"
     stroke-width="0.09375"
     opacity="1"
     d="m 55.878045,114.85443 c 4.44,2.56 8.83,5.39 14.16,5.48 0.07,1.01 0.14,2.01 0.21,3.02 -4.14,-0.46 -8.42,-1.22 -12.05,-3.36 -1.84,-1.04 -2.02,-3.29 -2.32,-5.14 z"
     id="path146" />
  <path
     fill="#625c6d"
     stroke="#625c6d"
     stroke-width="0.09375"
     opacity="1"
     d="m 93.898045,119.43443 c 0.29,-1.55 0.67,-3.08 1.03,-4.61 1.3,0.48 2.58,1.02 3.84,1.61 -0.18,1.29 -0.38,2.58 -0.62,3.87 -1.42,-0.27 -2.86,-0.48 -4.25,-0.87 z"
     id="path148" />
  <path
     fill="#625c6d"
     stroke="#625c6d"
     stroke-width="0.09375"
     opacity="1"
     d="m 113.91804,117.41443 c 1.33,-0.03 2.65,-0.04 3.98,-0.02 0.1,1.44 0.16,2.88 0.18,4.33 -1.39,-0.08 -2.77,-0.16 -4.14,-0.24 -0.01,-1.36 -0.01,-2.72 -0.02,-4.07 z"
     id="path150" />
  <path
     fill="#b3b1b1"
     stroke="#b3b1b1"
     stroke-width="0.09375"
     opacity="1"
     d="m 12.538045,119.31443 c 0.56,-0.29 1.69,-0.86 2.25,-1.15 2.32,1.43 3.94,3.68 5.73,5.68 -3.55,3.24 -5.8,-2.48 -7.98,-4.53 z"
     id="path152" />
  <path
     fill="#b3b1b1"
     stroke="#b3b1b1"
     stroke-width="0.09375"
     opacity="1"
     d="m 119.76804,118.86443 c 0.69,0.07 2.08,0.22 2.77,0.3 -0.78,3.14 -1.77,7.57 -5.9,7.32 0.68,-2.68 1.88,-5.18 3.13,-7.62 z"
     id="path154" />
  <path
     fill="#b3b1b1"
     stroke="#b3b1b1"
     stroke-width="0.09375"
     opacity="1"
     d="m 73.078045,120.43443 c 2.58,-0.05 5.17,-0.11 7.76,-0.16 0.04,0.87 0.08,1.75 0.12,2.63 -2.59,0.47 -5.19,0.87 -7.81,1.16 -0.03,-1.21 -0.06,-2.42 -0.07,-3.63 z"
     id="path156" />
  <path
     fill="#625c6d"
     stroke="#625c6d"
     stroke-width="0.09375"
     opacity="1"
     d="m 30.878045,122.39443 c 0.84,-0.85 1.68,-1.69 2.52,-2.53 0.67,0.37 1.99,1.1 2.66,1.47 -0.03,1.23 -0.06,2.47 -0.09,3.7 -1.25,0.04 -2.5,0.08 -3.75,0.12 -0.33,-0.69 -1,-2.07 -1.34,-2.76 z"
     id="path158" />
  <path
     fill="#b3b1b1"
     stroke="#b3b1b1"
     stroke-width="0.09375"
     opacity="1"
     d="m 20.458045,125.53443 c 2.97,0.36 5.64,1.87 7.62,4.09 -0.34,2.93 -3.38,1.43 -4.84,0.32 -1.73,-0.85 -2.37,-2.66 -2.78,-4.41 z"
     id="path160" />
  <path
     fill="#625c6d"
     stroke="#625c6d"
     stroke-width="0.09375"
     opacity="1"
     d="m 65.748045,128.39443 c 0.98,-0.14 1.97,-0.27 2.95,-0.39 0.45,0.28 1.34,0.84 1.79,1.12 -0.4,1.06 -0.79,2.11 -1.18,3.17 -1.16,-0.01 -2.32,-0.02 -3.47,-0.04 -0.03,-1.29 -0.06,-2.58 -0.09,-3.86 z"
     id="path162" />
  <path
     fill="#b3b1b1"
     stroke="#b3b1b1"
     stroke-width="0.09375"
     opacity="1"
     d="m 109.80804,134.19443 c 0,-3.69 3.79,-6.04 7.05,-6.69 -0.56,3.47 -3.41,6.57 -7.05,6.69 z"
     id="path164" />
  <path
     fill="#625c6d"
     stroke="#625c6d"
     stroke-width="0.09375"
     opacity="1"
     d="m 47.048045,131.49443 c 0.77,-0.79 1.53,-1.59 2.3,-2.38 0.78,0.12 2.34,0.36 3.12,0.48 -0.08,1.6 -0.16,3.19 -0.24,4.79 -1.07,-0.15 -2.13,-0.28 -3.2,-0.41 l -0.12,-0.15 c -0.62,-0.78 -1.24,-1.55 -1.86,-2.33 z"
     id="path166" />
  <path
     fill="#625c6d"
     stroke="#625c6d"
     stroke-width="0.09375"
     opacity="1"
     d="m 85.468045,130.07443 c 1.42,0.03 2.85,0.08 4.27,0.14 0.36,1.25 0.71,2.5 1.07,3.76 -1.14,0.33 -2.29,0.65 -3.43,0.95 -1.09,-1.41 -1.38,-3.2 -1.91,-4.85 z"
     id="path168" />
  <path
     fill="#b3b1b1"
     stroke="#b3b1b1"
     stroke-width="0.09375"
     opacity="1"
     d="m 30.058045,130.70443 c 2.87,1.28 7.46,1.71 7.39,5.75 -2.77,-0.51 -5.39,-1.56 -7.92,-2.78 0.13,-0.74 0.4,-2.22 0.53,-2.97 z"
     id="path170" />
  <path
     fill="#b3b1b1"
     stroke="#b3b1b1"
     stroke-width="0.09375"
     opacity="1"
     d="m 101.05804,136.42443 c 2.34,-0.97 4.68,-1.94 7.07,-2.78 0.02,1.13 0.05,2.25 0.07,3.38 -2.34,0.92 -4.7,1.77 -7.11,2.46 -0.02,-1.02 -0.02,-2.04 -0.03,-3.06 z"
     id="path172" />
  <path
     fill="#b3b1b1"
     stroke="#b3b1b1"
     stroke-width="0.09375"
     opacity="1"
     d="m 38.758045,134.98443 c 2.86,0.21 5.64,0.97 8.36,1.87 -0.02,0.66 -0.06,1.98 -0.08,2.64 -3.08,-0.52 -8.23,-0.23 -8.28,-4.51 z"
     id="path174" />
  <path
     fill="#b3b1b1"
     stroke="#b3b1b1"
     stroke-width="0.09375"
     opacity="1"
     d="m 49.598045,137.83443 c 2.6,-0.06 5.15,0.51 7.68,1 -0.01,0.67 -0.02,2 -0.03,2.67 -2.8,-0.23 -5.91,0.12 -8.29,-1.68 0.16,-0.49 0.48,-1.49 0.64,-1.99 z"
     id="path176" />
  <path
     fill="#b3b1b1"
     stroke="#b3b1b1"
     stroke-width="0.09375"
     opacity="1"
     d="m 90.858045,139.13443 c 2.47,-0.53 4.94,-1.24 7.49,-1.24 0.2,0.46 0.6,1.37 0.8,1.82 -2.15,2.01 -5.28,1.88 -8,2.46 -0.1,-1.01 -0.19,-2.03 -0.29,-3.04 z"
     id="path178" />
  <path
     fill="#b3b1b1"
     stroke="#b3b1b1"
     stroke-width="0.09375"
     opacity="1"
     d="m 59.998045,139.26443 c 2.22,0.09 4.45,0.17 6.68,0.24 0.42,0.64 1.25,1.91 1.67,2.54 -2.78,1.05 -5.72,0.62 -8.56,0.17 0.06,-0.99 0.14,-1.97 0.21,-2.95 z"
     id="path180" />
  <path
     fill="#b3b1b1"
     stroke="#b3b1b1"
     stroke-width="0.09375"
     opacity="1"
     d="m 70.458045,140.33443 c 2.59,-0.48 5.23,-0.11 7.82,0.13 -0.08,0.68 -0.24,2.03 -0.33,2.71 -2.72,0.02 -5.44,-0.02 -8.16,-0.13 0.19,-0.91 0.42,-1.81 0.67,-2.71 z"
     id="path182" />
  <path
     fill="#b3b1b1"
     stroke="#b3b1b1"
     stroke-width="0.09375"
     opacity="1"
     d="m 80.868045,140.03443 c 2.52,-0.11 5.05,-0.19 7.58,-0.23 -0.16,1.03 -0.32,2.06 -0.48,3.08 -2.35,0.09 -4.71,0.18 -7.06,0.25 -0.02,-1.04 -0.03,-2.07 -0.04,-3.1 z"
     id="path184" />
</svg>
