<?xml version="1.0" encoding="UTF-8" standalone="no"?>
<svg
   xmlns:dc="http://purl.org/dc/elements/1.1/"
   xmlns:cc="http://creativecommons.org/ns#"
   xmlns:rdf="http://www.w3.org/1999/02/22-rdf-syntax-ns#"
   xmlns:svg="http://www.w3.org/2000/svg"
   xmlns="http://www.w3.org/2000/svg"
   width="125.81873pt"
   height="150.93962pt"
   viewBox="0 0 125.81873 150.93962"
   version="1.1"
   id="svg122">
  <metadata
     id="metadata128">
    <rdf:RDF>
      <cc:Work
         rdf:about="">
        <dc:format>image/svg+xml</dc:format>
        <dc:type
           rdf:resource="http://purl.org/dc/dcmitype/StillImage" />
        <dc:title></dc:title>
      </cc:Work>
    </rdf:RDF>
  </metadata>
  <defs
     id="defs126" />
  <path
     fill="#44291e"
     stroke="#44291e"
     stroke-width="0.09375"
     opacity="1"
     d="m 4.0668811,1.8773587 c 5.89,-2.03 12.2499999,-0.89 18.3299999,-1.83 8.57,1.15 17.27,0.25 25.88,1.1 5.06,0.64 10.16,0.64 15.25,0.91 l 0.72,0.48 c 13.48,0.56 26.9,2.29 40.249999,4.21 5.83,0.99 11.83,1.76 17.22,4.3700003 0.16,4.4 -0.22,8.79 -1.09,13.11 -3.12,16.71 -7.62,33.11 -12.07,49.51 -6.04,21.87 -12.029999,43.790001 -19.349999,65.280001 -0.73,1.84 -1.28,3.89 -2.71,5.34 -3.03,1.78 -6.68,1.98 -10.09,2.34 -10.47,0.48 -21.12,0.02 -31.29,-2.67 -1.17,-0.41 -2.29,-0.97 -3.42,-1.47 -0.36,-7.27 2.84,-14.01 5.24,-20.69 2.38,-5.96 4.65,-11.95 7.18,-17.84 1.92,-3.77 3.23,-7.800001 4.06,-11.940001 -6.71,-0.97 -13.39,0.62 -20.1,0.51 -0.65,-7.36 -0.47,-14.9 1.75,-22 7.56,-1.43 15.1,1.46 22.69,0.88 0.36,-0.16 1.08,-0.48 1.44,-0.64 2.65,-5.35 4.57,-11.2 5.06,-17.17 0.06,-4.28 -4.57,-4.23 -7.68,-4.45 -15.98,-0.64 -31.97,0.3 -47.95,-0.23 -2.52,-0.1 -5.0299999,-0.42 -7.5099999,-0.83 -0.47,-0.08 -1.4,-0.25 -1.87,-0.33 -3.55,-6.55 -3.7,-14.22 -3.96,-21.48 0.06,-8.26 0.17,-16.9500003 4.02,-24.4700003 m 15.7499999,3.19 c -1.36,-0.12 -0.63,1.72 -0.75,2.48 2.66,0.49 5.59,0.8 8.15,-0.26 0.28,-4.03 -4.93,-2.21 -7.4,-2.22 m 10.02,-0.18 c -0.05,0.99 -0.09,1.97 -0.13,2.96 2.11,0.15 4.23,0.3 6.35,0.27 -4.42,2.7500003 -9.79,1.45 -14.67,2.1500003 -2.96,0.37 -6.87,0.88 -8.05,4.12 -2.32,6.05 -1.43,12.88 1.06,18.74 0.47,-0.17 1.4,-0.52 1.86,-0.69 -0.09,0.9 -0.28,2.68 -0.37,3.58 3.38,0.88 6.87,1.43 10.36,0.97 13.05,-0.73 26.18,-2.56 39.23,-0.93 5.58,0.99 12.46,2.14 15.11,7.9 3.79,7.47 0.97,15.94 -1.12,23.46 -1.32,3.8 -2.3,8.69 -6.44,10.41 -4.63,1 -9.66,-0.83 -14.03,1.58 2.01,2.66 5.22,3.66 8.02,5.21 1.09,4.94 -1.51,9.71 -2.18,14.54 -0.41,-0.95 -0.81,-1.91 -1.21,-2.87 -4.44,-0.67 -4.02,4.580001 -5.07,7.420001 0.78,0.03 2.34,0.08 3.12,0.1 0.11,1.02 0.24,2.03 0.4,3.04 -0.59,0.06 -1.77,0.19 -2.36,0.25 l 0.29,-1.55 c -3.9,0.38 -4.98,5.54 -3.95,8.64 0.67,-0.46 1.99,-1.37 2.66,-1.83 0.98,5.97 -4.13,11.86 -1.05,17.59 2.85,3.29 7.73,4.09 11.82,3.12 1.23,-0.04 2.47,-0.06 3.7,-0.07 2.99,-0.32 6.38,-0.86 8.33,-3.4 1.82,-2.9 2.66,-6.28 3.7,-9.51 3.12,-10.89 6.22,-21.800001 8.79,-32.840001 1.02,-4.81 2.83,-9.46 3.19,-14.39 l 0.13,-0.06 c 3.629999,-14.53 6.699999,-29.25 8.609999,-44.11 0.42,-3.31 0.72,-7.41 -2.33,-9.62 -4.119999,-2.67 -9.189999,-3.21 -13.869999,-4.31 -4.55,-0.76 -9.06,-2.28 -13.72,-1.84 -0.73,-0.07 -2.18,-0.21 -2.91,-0.28 -8.04,-2.09 -16.45,-1.64 -24.63,-2.7400003 -0.5,-0.36 -1.5,-1.07 -2,-1.42 l 1.46,0.07 c -0.01,-0.71 -0.03,-2.14 -0.05,-2.85 -2.71,-0.16 -5.44,-0.2 -8.15,-0.1 0.05,0.6 0.16,1.78 0.21,2.38 l -0.66,-0.06 c -0.5,-0.8 -1.04,-1.57 -1.62,-2.32 -2.55,-0.72 -5.21,-0.72 -7.83,-0.71 M 6.9768811,14.587359 c 1.66,-1.29 2.67,-3.14 3.8299999,-4.8500003 1.43,-2.15 5.77,-0.46 6.18,-3.54 -1.18,-1.3 -3.21,-0.65 -4.74,-0.66 -4.3399999,0.17 -6.4899999,5.3100003 -5.2699999,9.0500003 M 50.456881,5.7973587 c 0.29,1 -0.37,3.06 1.22,3.08 2.11,0.34 4.25,0.28 6.38,0.32 0.01,-0.69 0.04,-2.08 0.05,-2.77 -2.54,-0.33 -5.09,-0.51 -7.65,-0.63 m 9.94,0.92 c 0.22,0.9 0.48,1.79 0.77,2.67 2.26,0.58 4.64,0.7100003 6.97,0.59 0.39,-0.91 0.57,-1.88 0.76,-2.84 -2.83,-0.24 -5.66,-0.42 -8.5,-0.42 m 10.33,2.76 c 2.38,1.9400003 5.67,1.2400003 8.5,1.4900003 -0.46,-1.1800003 -0.15,-3.2400003 -1.96,-3.0600003 -2.2,-0.05 -6.1,-1.7 -6.54,1.57 m 10.56,-0.88 c -0.18,4.4200003 5.03,3.0600003 7.87,3.5600003 0.02,-0.73 0.04,-2.1700003 0.05,-2.8900003 -2.63,-0.32 -5.27,-0.57 -7.92,-0.67 m 10.32,1.21 c 0.16,0.9100003 0.36,1.8200003 0.59,2.7200003 2.48,0.93 5.18,0.64 7.77,0.57 -0.04,-0.57 -0.14,-1.7 -0.18,-2.27 -2.7,-0.52 -5.43,-0.9000003 -8.18,-1.0200003 m 10.389999,1.7700003 c -0.05,0.57 -0.14,1.71 -0.19,2.29 2.54,0.76 5.14,1.46 7.82,1.33 0.12,-0.53 0.35,-1.59 0.46,-2.12 -2.49,-1.3 -5.33,-1.48 -8.09,-1.5 m 9.91,3.11 c 0.22,2.46 0.41,4.92 0.61,7.38 0.66,0 1.99,-0.01 2.65,-0.02 0.12,-2.46 0.1,-4.93 -0.11,-7.39 -1.05,0.01 -2.1,0.01 -3.15,0.03 m -106.1999989,1.22 c -0.53,2.58 -0.77,5.21 -0.85,7.84 1,0.03 1.99,0.06 2.98,0.09 0.12,-2.63 0.19,-5.25 0.18,-7.87 -0.58,-0.02 -1.73,-0.04 -2.31,-0.06 m 106.0899989,8.78 c -0.48,2.6 -1.23,5.23 -0.92,7.91 0.62,-0.04 1.84,-0.11 2.46,-0.15 0.96,-2.5 0.98,-5.21 1.1,-7.85 -0.66,0.02 -1.98,0.06 -2.64,0.09 m -106.8899989,1.89 c 0.06,2.4 0.16,4.8 0.25,7.2 0.98,0.17 1.96,0.33 2.94,0.48 -0.05,-2.52 -0.13,-5.05 -0.22,-7.57 -0.99,-0.04 -1.98,-0.08 -2.97,-0.11 m 105.1299989,7.9 c -0.63,2.66 -1.47,5.35 -1.27,8.13 3.19,1.53 3.2,-3.46 3.75,-5.37 0.89,-1.82 -1.37,-2.25 -2.48,-2.76 m -103.6599989,2.22 c 0.01,3.31 1.42,8.01 5.6999999,7.19 -1.04,-2.42 -2.2499999,-4.76 -3.4199999,-7.11 -0.57,-0.02 -1.71,-0.06 -2.28,-0.08 m 7.4899999,5.15 c 0.02,0.95 0.05,1.9 0.08,2.86 2.62,0.08 5.24,0.12 7.86,0.11 -0.05,-0.96 -0.1,-1.91 -0.15,-2.87 -2.6,-0.07 -5.2,-0.11 -7.79,-0.1 m 10.78,0.05 c -0.04,1.01 -0.08,2.02 -0.12,3.03 2.51,0 5.03,-0.02 7.55,-0.07 -0.05,-0.98 -0.1,-1.96 -0.14,-2.93 -2.43,-0.02 -4.86,-0.03 -7.29,-0.03 m 10.28,0.04 c -0.05,0.96 -0.1,1.92 -0.15,2.88 2.59,0 5.24,0.34 7.78,-0.31 0.84,-4.31 -5.11,-2.2 -7.63,-2.57 m 9.78,1.34 c 1.46,3 5.6,1.11 8.29,1.58 -0.06,-0.98 -0.12,-1.95 -0.18,-2.93 -2.64,0.4 -6.43,-1.35 -8.11,1.35 m 11.15,-1.3 c -0.07,0.98 -0.14,1.97 -0.2,2.95 2.55,0.11 5.11,0.19 7.66,0.23 -0.19,-1.02 -0.38,-2.05 -0.58,-3.07 -2.29,-0.04 -4.59,-0.08 -6.88,-0.11 m 10.32,1.01 c -0.2,0.85 -0.38,1.69 -0.52,2.54 2.68,0.51 5.37,1.05 8.08,1.41 -0.01,-0.93 -0.02,-1.86 -0.03,-2.79 -2.47,-0.57 -4.96,-1.55 -7.53,-1.16 m 41.699999,1.85 c -0.9,2.62 -1.33,5.37 -1.39,8.14 0.61,-0.01 1.82,-0.04 2.43,-0.05 0.8,-2.62 1.25,-5.32 1.27,-8.06 -0.58,-0.01 -1.73,-0.02 -2.31,-0.03 m -33.929999,4.09 c 0.12,2.35 0.54,4.68 0.89,7.01 0.55,0.03 1.67,0.09 2.22,0.12 0.41,-2.86 0.12,-5.73 -0.48,-8.53 -0.89,0.42 -1.91,0.68 -2.63,1.4 m 29.719999,13.84 c 0.98,0.04 1.97,0.07 2.95,0.1 0.08,-2.56 3.07,-6.83 -0.35,-8.11 -2.08,2.11 -2.05,5.28 -2.6,8.01 m -29.239999,-4.04 c -1.45,2.11 -1.41,4.83 -1.84,7.27 0.98,-0.09 1.97,-0.17 2.96,-0.25 0.52,-2.42 1.07,-4.82 1.49,-7.26 -0.65,0.06 -1.95,0.18 -2.61,0.24 m 28.369999,6.68 c -0.76,2.62 -1.17,5.33 -1.26,8.06 3.77,-0.3 3.28,-4.92 4.36,-7.56 -1.04,-0.17 -2.07,-0.34 -3.1,-0.5 m -31.359999,2.87 c -1.09,2.3 -3.38,4.33 -3.25,7.01 3.89,0.6 4.76,-3.71 5.99,-6.4 -0.68,-0.15 -2.05,-0.46 -2.74,-0.61 m -23.4,4.68 c -0.24,0.93 -0.39,1.88 -0.42,2.85 2.74,0.1 5.62,0.82 8.27,-0.2 l -0.1,-1.42 c -2.3,-1.42 -5.14,-1.44 -7.75,-1.23 m -6.08,8.65 c 0.92,0.11 1.83,0.21 2.75,0.32 0.09,-2.74 1.63,-5.8 0.1,-8.31 -3.62,0.56 -2.54,5.35 -2.85,7.99 m 15.91,-7.75 c 0.03,0.95 0.07,1.89 0.1,2.84 2.57,0.1 5.15,0.13 7.72,0.08 0.05,-0.99 0.1,-1.97 0.14,-2.95 -2.65,-0.05 -5.31,-0.04 -7.96,0.03 m 42.179999,1.93 c -0.459999,2.39 -0.969999,4.78 -1.369999,7.18 0.98,-0.03 1.969999,-0.07 2.959999,-0.1 0.52,-2.44 1.07,-4.89 1.48,-7.35 -1.03,0.08 -2.05,0.17 -3.07,0.27 m -56.129999,11.99 c 2.06,0.43 4.18,0.24 6.26,0.23 -0.08,-1.02 -0.16,-2.03 -0.25,-3.04 -1.27,0.04 -2.55,0.08 -3.83,0.12 -0.51,-0.44 -1.54,-1.32 -2.05,-1.76 -0.89,1.37 -1.72,3.2 -0.13,4.45 m 8.97,-2.91 c -0.05,0.61 -0.16,1.81 -0.21,2.42 3.2,0.4 6.42,0.17 9.59,-0.31 -0.2,2.25 -0.54,4.52 -0.37,6.78 0.55,0.08 1.66,0.22 2.22,0.29 1.41,-2.67 2.04,-6.87 -0.82,-8.85 l -0.56,1.75 c -0.72,-0.62 -1.44,-1.24 -2.16,-1.85 -2.03,-2.15 -5.19,-0.38 -7.69,-0.23 m 44.83,0.77 c -0.68,2.43 -1.32,4.87 -1.93,7.32 1.05,-0.21 2.96,0.71 3.27,-0.88 0.94,-2.03 0.9,-4.31 1.169999,-6.48 -0.629999,0.01 -1.879999,0.03 -2.509999,0.04 m -2.44,9.35 c -0.82,2.62 -1.52,5.270001 -1.95,7.980001 0.68,0.02 2.06,0.07 2.74,0.1 0.65,-2.25 1.5,-4.480001 1.71,-6.820001 -0.63,-0.31 -1.88,-0.94 -2.5,-1.26 m -2.96,10.590001 c -0.41,2.51 -2.74,5.43 -1.01,7.77 3.52,-0.17 2.88,-5.01 3.78,-7.52 -0.69,-0.06 -2.08,-0.19 -2.77,-0.25 m -38.45,10.25 c -0.93,2.36 -1.76,4.77 -2.42,7.22 1.06,-0.04 2.13,-0.08 3.19,-0.12 0.72,-2.33 1.29,-4.71 1.59,-7.13 -0.59,0.01 -1.77,0.02 -2.36,0.03 m 33.59,7.08 c 0.7,0.07 2.1,0.19 2.8,0.25 0.43,-2.52 2.95,-5.57 0.99,-7.84 -3.45,0.29 -2.83,5.07 -3.79,7.59 m -37.4,2.88 c -0.69,2.5 -1.3,5.02 -1.61,7.61 4.22,0.3 3.75,-4.72 4.66,-7.58 -1.02,-0.02 -2.03,-0.03 -3.05,-0.03 m 34.93,7.56 c 3.87,0 3.36,-5.13 4.24,-7.85 -4.09,-0.54 -4.82,4.87 -4.24,7.85 m -36.33,2.31 c -0.3,1.16 -0.15,2.59 1.1,3.12 2.13,1.23 6.21,3.25 6.62,-0.65 -2.54,-0.88 -4.96,-2.45 -7.72,-2.47 m 29.74,3.92 c 2.96,3.8 7.78,-0.49 7.81,-4.21 -3.07,0.35 -5.29,2.68 -7.81,4.21 m -19.73,-1.05 c -0.02,0.7 -0.07,2.09 -0.09,2.79 2.7,0.46 5.44,0.69 8.18,0.53 -0.28,-4.24 -5.26,-2.7 -8.09,-3.32 m 10.45,0.64 c -0.16,0.96 -0.31,1.92 -0.45,2.88 2.71,0.07 5.43,0.02 8.15,-0.14 0,-0.65 0.02,-1.95 0.03,-2.6 -2.58,-0.11 -5.16,-0.13 -7.73,-0.14 z"
     id="path4" />
  <path
     fill="#b5bcbd"
     stroke="#b5bcbd"
     stroke-width="0.09375"
     opacity="1"
     d="m 19.816881,5.0673587 c 2.47,0.01 7.68,-1.81 7.4,2.22 -2.56,1.06 -5.49,0.75 -8.15,0.26 0.12,-0.76 -0.61,-2.6 0.75,-2.48 z"
     id="path6" />
  <path
     fill="#b2bcbb"
     stroke="#b2bcbb"
     stroke-width="0.09375"
     opacity="1"
     d="m 29.836881,4.8873587 c 2.62,-0.01 5.28,-0.01 7.83,0.71 -0.22,0.54 -0.68,1.62 -0.91,2.17 -0.18,0.08 -0.53,0.26 -0.7,0.35 -2.12,0.03 -4.24,-0.12 -6.35,-0.27 0.04,-0.99 0.08,-1.97 0.13,-2.96 z"
     id="path8" />
  <path
     fill="#b7bbba"
     stroke="#b7bbba"
     stroke-width="0.09375"
     opacity="1"
     d="m 6.9768811,14.587359 c -1.22,-3.74 0.93,-8.8800003 5.2699999,-9.0500003 1.53,0.01 3.56,-0.64 4.74,0.66 -0.41,3.08 -4.75,1.39 -6.18,3.54 C 9.6468811,11.447359 8.6368811,13.297359 6.9768811,14.587359 Z"
     id="path10" />
  <path
     fill="#533831"
     stroke="#533831"
     stroke-width="0.09375"
     opacity="1"
     d="m 37.666881,5.5973587 c 0.58,0.75 1.12,1.52 1.62,2.32 l 0.66,0.06 c 2.17,0.2 4.35,0.37 6.53,0.5 0.5,0.35 1.5,1.06 2,1.42 8.18,1.1000003 16.59,0.6500003 24.63,2.7400003 -2.87,8.35 1.21,16.82 6.06,23.5 5.81,-1.84 12.27,-3.82 15.94,-9.06 1.65,-2.24 1.59,-6.38 -1.68,-7.05 -3.56,-0.32 -6.91,1.34 -10.27,2.29 -1.9,-3.47 -4.02,-6.89 -7.14,-9.4 4.66,-0.44 9.17,1.08 13.72,1.84 4.68,1.1 9.75,1.64 13.869999,4.31 3.05,2.21 2.75,6.31 2.33,9.62 -1.91,14.86 -4.98,29.58 -8.609999,44.11 -0.13,-0.67 -0.39,-2.01 -0.52,-2.68 -1.08,-0.05 -2.16,-0.11 -3.24,-0.16 -0.57,-1.65 -1.1,-3.34 -2.08,-4.81 -3.33,1.99 -2.85,6.01 -2.86,9.32 2.93,0.02 5.92,-0.25 8.57,-1.61 -0.36,4.93 -2.17,9.58 -3.19,14.39 -2.57,11.04 -5.67,21.950001 -8.79,32.840001 -1.04,3.23 -1.88,6.61 -3.7,9.51 -1.95,2.54 -5.34,3.08 -8.33,3.4 1.49,-3.51 1.88,-7.33 1.66,-11.11 3,-0.24 6.6,0.19 8.89,-2.22 2.04,-1.85 1.34,-5.42 -1.19,-6.48 -5.38,-2.68 -11.51,-0.85 -17.07,0.22 -0.28,6.76 0.02,13.9 4.01,19.66 -4.09,0.97 -8.97,0.17 -11.82,-3.12 -3.08,-5.73 2.03,-11.62 1.05,-17.59 0.29,-1.76 0.66,-3.51 1,-5.26 0.59,-0.06 1.77,-0.19 2.36,-0.25 -0.16,-1.01 -0.29,-2.02 -0.4,-3.04 0.47,-2.55 1.28,-5.020001 1.95,-7.520001 0.4,0.96 0.8,1.92 1.21,2.87 0.67,-4.83 3.27,-9.6 2.18,-14.54 -2.8,-1.55 -6.01,-2.55 -8.02,-5.21 4.37,-2.41 9.4,-0.58 14.03,-1.58 4.14,-1.72 5.12,-6.61 6.44,-10.41 2.09,-7.52 4.91,-15.99 1.12,-23.46 -2.65,-5.76 -9.53,-6.91 -15.11,-7.9 -13.05,-1.63 -26.18,0.2 -39.23,0.93 -3.49,0.46 -6.98,-0.09 -10.36,-0.97 2.05,-0.92 4.08,-1.87 6.1,-2.85 1.99,0.77 3.99,1.51 6,2.21 0.68,-4.22 -1.72,-9.56 -6.41,-9.88 -2.29,1.86 -3.88,4.41 -5.32,6.94 -0.46,0.17 -1.39,0.52 -1.86,0.69 -2.49,-5.86 -3.38,-12.69 -1.06,-18.74 1.18,-3.24 5.09,-3.75 8.05,-4.12 4.88,-0.7000003 10.25,0.6 14.67,-2.1500003 0.17,-0.09 0.52,-0.27 0.7,-0.35 0.23,-0.55 0.69,-1.63 0.91,-2.17 m -2.73,7.7300003 c -0.01,3.89 2.63,7.05 5.1,9.78 4.23,-2.23 9.8,-4.92 9.27,-10.63 -2.35,0.11 -4.61,0.73 -6.88,1.31 -1.38,-1.57 -2.13,-3.8500003 -4.18,-4.7300003 -2.2,0.11 -3.38,2.2800003 -3.31,4.2700003 m 55.33,38.12 c -2.25,-0.54 -4.54,-0.84 -6.85,-0.87 -0.29,5.66 6.33,6.56 10.48,7.57 1.57,-3.78 3.37,-8.61 0.48,-12.23 -3.29,-0.8 -3.41,3.42 -4.11,5.53 m -17.83,49.820001 c 4.07,-0.29 10.77,-0.28 11.04,-5.760001 -2.14,-0.12 -4.28,-0.16 -6.42,-0.18 -0.55,-2.4 -1.77,-4.54 -3.71,-6.11 -4.16,2.89 -2.17,8.15 -0.91,12.050001 z"
     id="path12"
     style="stroke:#533831;stroke-opacity:1;stroke-width:0.31874999;stroke-miterlimit:4;stroke-dasharray:none" />
  <path
     fill="#b7bcbd"
     stroke="#b7bcbd"
     stroke-width="0.09375"
     opacity="1"
     d="m 39.736881,5.5973587 c 2.71,-0.1 5.44,-0.06 8.15,0.1 0.02,0.71 0.04,2.14 0.05,2.85 l -1.46,-0.07 c -2.18,-0.13 -4.36,-0.3 -6.53,-0.5 -0.05,-0.6 -0.16,-1.78 -0.21,-2.38 z"
     id="path14" />
  <path
     fill="#b7baba"
     stroke="#b7baba"
     stroke-width="0.09375"
     opacity="1"
     d="m 50.456881,5.7973587 c 2.56,0.12 5.11,0.3 7.65,0.63 -0.01,0.69 -0.04,2.08 -0.05,2.77 -2.13,-0.04 -4.27,0.02 -6.38,-0.32 -1.59,-0.02 -0.93,-2.08 -1.22,-3.08 z"
     id="path16" />
  <path
     fill="#b6bbbb"
     stroke="#b6bbbb"
     stroke-width="0.09375"
     opacity="1"
     d="m 60.396881,6.7173587 c 2.84,0 5.67,0.18 8.5,0.42 -0.19,0.96 -0.37,1.93 -0.76,2.84 -2.33,0.1200003 -4.71,-0.01 -6.97,-0.59 -0.29,-0.88 -0.55,-1.77 -0.77,-2.67 z"
     id="path18" />
  <path
     fill="#b8bab8"
     stroke="#b8bab8"
     stroke-width="0.09375"
     opacity="1"
     d="m 70.726881,9.4773587 c 0.44,-3.27 4.34,-1.62 6.54,-1.57 1.81,-0.18 1.5,1.88 1.96,3.0600003 -2.83,-0.25 -6.12,0.45 -8.5,-1.4900003 z"
     id="path20" />
  <path
     fill="#b9bbb9"
     stroke="#b9bbb9"
     stroke-width="0.09375"
     opacity="1"
     d="m 81.286881,8.5973587 c 2.65,0.1 5.29,0.35 7.92,0.67 -0.01,0.72 -0.03,2.1600003 -0.05,2.8900003 -2.84,-0.5 -8.05,0.86 -7.87,-3.5600003 z"
     id="path22" />
  <path
     fill="#f38683"
     stroke="#f38683"
     stroke-width="0.09375"
     opacity="1"
     d="m 34.936881,13.327359 c -0.07,-1.99 1.11,-4.1600003 3.31,-4.2700003 2.05,0.88 2.8,3.1600003 4.18,4.7300003 2.27,-0.58 4.53,-1.2 6.88,-1.31 0.53,5.71 -5.04,8.4 -9.27,10.63 -2.47,-2.73 -5.11,-5.89 -5.1,-9.78 z"
     id="path24" />
  <path
     fill="#b7bdbb"
     stroke="#b7bdbb"
     stroke-width="0.09375"
     opacity="1"
     d="m 91.606881,9.8073587 c 2.75,0.12 5.48,0.5000003 8.18,1.0200003 0.04,0.57 0.14,1.7 0.18,2.27 -2.59,0.07 -5.29,0.36 -7.77,-0.57 -0.23,-0.9 -0.43,-1.81 -0.59,-2.7200003 z"
     id="path26" />
  <path
     fill="#b8b9b5"
     stroke="#b8b9b5"
     stroke-width="0.09375"
     opacity="1"
     d="m 101.99688,11.577359 c 2.76,0.02 5.6,0.2 8.09,1.5 -0.11,0.53 -0.34,1.59 -0.46,2.12 -2.68,0.13 -5.28,-0.57 -7.82,-1.33 0.05,-0.58 0.14,-1.72 0.19,-2.29 z"
     id="path28" />
  <path
     fill="#b1b2b2"
     stroke="#b1b2b2"
     stroke-width="0.09375"
     opacity="1"
     d="m 121.71688,11.117359 c 0.32,0.85 0.64,1.7 0.97,2.55 1.02,0.81 2.08,1.6 3,2.53 0.37,4.23 -0.55,8.43 -1.2,12.59 -5.56,28.66 -14.09,56.61 -22.04,84.660001 -2.819999,10.01 -5.959999,19.92 -9.259999,29.78 -0.7,1.83 -1.29,3.8 -2.65,5.26 -3.75,1.94 -8.1,2.17 -12.24,2.36 -9.93,0.19 -20.05,-0.12 -29.67,-2.82 -2.01,-0.38 -2.87,-2.29 -3.51,-4 10.17,2.69 20.82,3.15 31.29,2.67 3.41,-0.36 7.06,-0.56 10.09,-2.34 1.43,-1.45 1.98,-3.5 2.71,-5.34 7.32,-21.49 13.309999,-43.410001 19.349999,-65.280001 4.45,-16.4 8.95,-32.8 12.07,-49.51 0.87,-4.32 1.25,-8.71 1.09,-13.11 z"
     id="path30" />
  <path
     fill="#f48683"
     stroke="#f48683"
     stroke-width="0.09375"
     opacity="1"
     d="m 79.166881,36.137359 c -4.85,-6.68 -8.93,-15.15 -6.06,-23.5 0.73,0.07 2.18,0.21 2.91,0.28 3.12,2.51 5.24,5.93 7.14,9.4 3.36,-0.95 6.71,-2.61 10.27,-2.29 3.27,0.67 3.33,4.81 1.68,7.05 -3.67,5.24 -10.13,7.22 -15.94,9.06 z"
     id="path32" />
  <path
     fill="#b8bdbc"
     stroke="#b8bdbc"
     stroke-width="0.09375"
     opacity="1"
     d="m 111.90688,14.687359 c 1.05,-0.02 2.1,-0.02 3.15,-0.03 0.21,2.46 0.23,4.93 0.11,7.39 -0.66,0.01 -1.99,0.02 -2.65,0.02 -0.2,-2.46 -0.39,-4.92 -0.61,-7.38 z"
     id="path34" />
  <path
     fill="#b9bcb8"
     stroke="#b9bcb8"
     stroke-width="0.09375"
     opacity="1"
     d="m 5.7068811,15.907359 c 0.58,0.02 1.73,0.04 2.31,0.06 0.01,2.62 -0.06,5.24 -0.18,7.87 -0.99,-0.03 -1.98,-0.06 -2.98,-0.09 0.08,-2.63 0.32,-5.26 0.85,-7.84 z"
     id="path36" />
  <path
     fill="#b5bdbc"
     stroke="#b5bdbc"
     stroke-width="0.09375"
     opacity="1"
     d="m 111.79688,24.687359 c 0.66,-0.03 1.98,-0.07 2.64,-0.09 -0.12,2.64 -0.14,5.35 -1.1,7.85 -0.62,0.04 -1.84,0.11 -2.46,0.15 -0.31,-2.68 0.44,-5.31 0.92,-7.91 z"
     id="path38" />
  <path
     fill="#f38684"
     stroke="#f38684"
     stroke-width="0.09375"
     opacity="1"
     d="m 21.576881,25.497359 c 4.69,0.32 7.09,5.66 6.41,9.88 -2.01,-0.7 -4.01,-1.44 -6,-2.21 -2.02,0.98 -4.05,1.93 -6.1,2.85 0.09,-0.9 0.28,-2.68 0.37,-3.58 1.44,-2.53 3.03,-5.08 5.32,-6.94 z"
     id="path40" />
  <path
     fill="#bcbabe"
     stroke="#bcbabe"
     stroke-width="0.09375"
     opacity="1"
     d="m 4.9068811,26.577359 c 0.99,0.03 1.98,0.07 2.97,0.11 0.09,2.52 0.17,5.05 0.22,7.57 -0.98,-0.15 -1.96,-0.31 -2.94,-0.48 -0.09,-2.4 -0.19,-4.8 -0.25,-7.2 z"
     id="path42" />
  <path
     fill="#babdc0"
     stroke="#babdc0"
     stroke-width="0.09375"
     opacity="1"
     d="m 110.03688,34.477359 c 1.11,0.51 3.37,0.94 2.48,2.76 -0.55,1.91 -0.56,6.9 -3.75,5.37 -0.2,-2.78 0.64,-5.47 1.27,-8.13 z"
     id="path44" />
  <path
     fill="#bbb9b8"
     stroke="#bbb9b8"
     stroke-width="0.09375"
     opacity="1"
     d="m 6.3768811,36.697359 c 0.57,0.02 1.71,0.06 2.28,0.08 1.17,2.35 2.3799999,4.69 3.4199999,7.11 -4.2799999,0.82 -5.6899999,-3.88 -5.6999999,-7.19 z"
     id="path46" />
  <path
     fill="#bbb9ba"
     stroke="#bbb9ba"
     stroke-width="0.09375"
     opacity="1"
     d="m 13.866881,41.847359 c 2.59,-0.01 5.19,0.03 7.79,0.1 0.05,0.96 0.1,1.91 0.15,2.87 -2.62,0.01 -5.24,-0.03 -7.86,-0.11 -0.03,-0.96 -0.06,-1.91 -0.08,-2.86 z"
     id="path48" />
  <path
     fill="#bab8b7"
     stroke="#bab8b7"
     stroke-width="0.09375"
     opacity="1"
     d="m 24.646881,41.897359 c 2.43,0 4.86,0.01 7.29,0.03 0.04,0.97 0.09,1.95 0.14,2.93 -2.52,0.05 -5.04,0.07 -7.55,0.07 0.04,-1.01 0.08,-2.02 0.12,-3.03 z"
     id="path50" />
  <path
     fill="#b8bbba"
     stroke="#b8bbba"
     stroke-width="0.09375"
     opacity="1"
     d="m 34.926881,41.937359 c 2.52,0.37 8.47,-1.74 7.63,2.57 -2.54,0.65 -5.19,0.31 -7.78,0.31 0.05,-0.96 0.1,-1.92 0.15,-2.88 z"
     id="path52" />
  <path
     fill="#b7b9b9"
     stroke="#b7b9b9"
     stroke-width="0.09375"
     opacity="1"
     d="m 44.706881,43.277359 c 1.68,-2.7 5.47,-0.95 8.11,-1.35 0.06,0.98 0.12,1.95 0.18,2.93 -2.69,-0.47 -6.83,1.42 -8.29,-1.58 z"
     id="path54" />
  <path
     fill="#babbba"
     stroke="#babbba"
     stroke-width="0.09375"
     opacity="1"
     d="m 55.856881,41.977359 c 2.29,0.03 4.59,0.07 6.88,0.11 0.2,1.02 0.39,2.05 0.58,3.07 -2.55,-0.04 -5.11,-0.12 -7.66,-0.23 0.06,-0.98 0.13,-1.97 0.2,-2.95 z"
     id="path56" />
  <path
     fill="#b6bfb8"
     stroke="#b6bfb8"
     stroke-width="0.09375"
     opacity="1"
     d="m 66.176881,42.987359 c 2.57,-0.39 5.06,0.59 7.53,1.16 0.01,0.93 0.02,1.86 0.03,2.79 -2.71,-0.36 -5.4,-0.9 -8.08,-1.41 0.14,-0.85 0.32,-1.69 0.52,-2.54 z"
     id="path58" />
  <path
     fill="#b4bab4"
     stroke="#b4bab4"
     stroke-width="0.09375"
     opacity="1"
     d="m 107.87688,44.837359 c 0.58,0.01 1.73,0.02 2.31,0.03 -0.02,2.74 -0.47,5.44 -1.27,8.06 -0.61,0.01 -1.82,0.04 -2.43,0.05 0.06,-2.77 0.49,-5.52 1.39,-8.14 z"
     id="path60" />
  <path
     fill="#f58582"
     stroke="#f58582"
     stroke-width="0.09375"
     opacity="1"
     d="m 90.266881,51.447359 c 0.7,-2.11 0.82,-6.33 4.11,-5.53 2.89,3.62 1.09,8.45 -0.48,12.23 -4.15,-1.01 -10.77,-1.91 -10.48,-7.57 2.31,0.03 4.6,0.33 6.85,0.87 z"
     id="path62" />
  <path
     fill="#b7bfbb"
     stroke="#b7bfbb"
     stroke-width="0.09375"
     opacity="1"
     d="m 73.946881,48.927359 c 0.72,-0.72 1.74,-0.98 2.63,-1.4 0.6,2.8 0.89,5.67 0.48,8.53 -0.55,-0.03 -1.67,-0.09 -2.22,-0.12 -0.35,-2.33 -0.77,-4.66 -0.89,-7.01 z"
     id="path64" />
  <path
     fill="#aeb3b1"
     stroke="#aeb3b1"
     stroke-width="0.09375"
     opacity="1"
     d="m 5.8768811,48.157359 c 2.48,0.41 4.9899999,0.73 7.5099999,0.83 15.98,0.53 31.97,-0.41 47.95,0.23 3.11,0.22 7.74,0.17 7.68,4.45 -18.2,-1.29 -36.44,0.43 -54.65,-0.62 -1.94,-0.15 -3.95,-0.26 -5.7699999,-1.03 -1.31,-0.93 -1.84,-2.58 -2.72,-3.86 z"
     id="path66" />
  <path
     fill="#b7bcba"
     stroke="#b7bcba"
     stroke-width="0.09375"
     opacity="1"
     d="m 103.66688,62.767359 c 0.55,-2.73 0.52,-5.9 2.6,-8.01 3.42,1.28 0.43,5.55 0.35,8.11 -0.98,-0.03 -1.97,-0.06 -2.95,-0.1 z"
     id="path68" />
  <path
     fill="#b9bcb8"
     stroke="#b9bcb8"
     stroke-width="0.09375"
     opacity="1"
     d="m 74.426881,58.727359 c 0.66,-0.06 1.96,-0.18 2.61,-0.24 -0.42,2.44 -0.97,4.84 -1.49,7.26 -0.99,0.08 -1.98,0.16 -2.96,0.25 0.43,-2.44 0.39,-5.16 1.84,-7.27 z"
     id="path70" />
  <path
     fill="#b6bdb6"
     stroke="#b6bdb6"
     stroke-width="0.09375"
     opacity="1"
     d="m 102.79688,65.407359 c 1.03,0.16 2.06,0.33 3.1,0.5 -1.08,2.64 -0.59,7.26 -4.36,7.56 0.09,-2.73 0.5,-5.44 1.26,-8.06 z"
     id="path72" />
  <path
     fill="#f98380"
     stroke="#f98380"
     stroke-width="0.09375"
     opacity="1"
     d="m 88.626881,74.467359 c 0.01,-3.31 -0.47,-7.33 2.86,-9.32 0.98,1.47 1.51,3.16 2.08,4.81 1.08,0.05 2.16,0.11 3.24,0.16 0.13,0.67 0.39,2.01 0.52,2.68 l -0.13,0.06 c -2.65,1.36 -5.64,1.63 -8.57,1.61 z"
     id="path74" />
  <path
     fill="#bcbebc"
     stroke="#bcbebc"
     stroke-width="0.09375"
     opacity="1"
     d="m 71.436881,68.277359 c 0.69,0.15 2.06,0.46 2.74,0.61 -1.23,2.69 -2.1,7 -5.99,6.4 -0.13,-2.68 2.16,-4.71 3.25,-7.01 z"
     id="path76" />
  <path
     fill="#babcb4"
     stroke="#babcb4"
     stroke-width="0.09375"
     opacity="1"
     d="m 48.036881,72.957359 c 2.61,-0.21 5.45,-0.19 7.75,1.23 l 0.1,1.42 c -2.65,1.02 -5.53,0.3 -8.27,0.2 0.03,-0.97 0.18,-1.92 0.42,-2.85 z"
     id="path78" />
  <path
     fill="#b6bcbe"
     stroke="#b6bcbe"
     stroke-width="0.09375"
     opacity="1"
     d="m 41.956881,81.607359 c 0.31,-2.64 -0.77,-7.43 2.85,-7.99 1.53,2.51 -0.01,5.57 -0.1,8.31 -0.92,-0.11 -1.83,-0.21 -2.75,-0.32 z"
     id="path80" />
  <path
     fill="#b8b6b6"
     stroke="#b8b6b6"
     stroke-width="0.09375"
     opacity="1"
     d="m 57.866881,73.857359 c 2.65,-0.07 5.31,-0.08 7.96,-0.03 -0.04,0.98 -0.09,1.96 -0.14,2.95 -2.57,0.05 -5.15,0.02 -7.72,-0.08 -0.03,-0.95 -0.07,-1.89 -0.1,-2.84 z"
     id="path82" />
  <path
     fill="#b8b9b9"
     stroke="#b8b9b9"
     stroke-width="0.09375"
     opacity="1"
     d="m 100.04688,75.787359 c 1.02,-0.1 2.04,-0.19 3.07,-0.27 -0.41,2.46 -0.96,4.91 -1.48,7.35 -0.99,0.03 -1.979999,0.07 -2.959999,0.1 0.4,-2.4 0.91,-4.79 1.369999,-7.18 z"
     id="path84" />
  <path
     fill="#b7b9bf"
     stroke="#b7b9bf"
     stroke-width="0.09375"
     opacity="1"
     d="m 43.916881,87.777359 c -1.59,-1.25 -0.76,-3.08 0.13,-4.45 0.51,0.44 1.54,1.32 2.05,1.76 1.28,-0.04 2.56,-0.08 3.83,-0.12 0.09,1.01 0.17,2.02 0.25,3.04 -2.08,0.01 -4.2,0.2 -6.26,-0.23 z"
     id="path86" />
  <path
     fill="#b6bbb9"
     stroke="#b6bbb9"
     stroke-width="0.09375"
     opacity="1"
     d="m 52.886881,84.867359 c 2.5,-0.15 5.66,-1.92 7.69,0.23 0.72,0.61 1.44,1.23 2.16,1.85 l 0.56,-1.75 c 2.86,1.98 2.23,6.18 0.82,8.85 -0.56,-0.07 -1.67,-0.21 -2.22,-0.29 -0.17,-2.26 0.17,-4.53 0.37,-6.78 -3.17,0.48 -6.39,0.71 -9.59,0.31 0.05,-0.61 0.16,-1.81 0.21,-2.42 z"
     id="path88" />
  <path
     fill="#babcba"
     stroke="#babcba"
     stroke-width="0.09375"
     opacity="1"
     d="m 97.716881,85.637359 c 0.63,-0.01 1.88,-0.03 2.509999,-0.04 -0.269999,2.17 -0.229999,4.45 -1.169999,6.48 -0.31,1.59 -2.22,0.67 -3.27,0.88 0.61,-2.45 1.25,-4.89 1.93,-7.32 z"
     id="path90" />
  <path
     fill="#f48682"
     stroke="#f48682"
     stroke-width="0.09375"
     opacity="1"
     d="m 72.436881,101.26736 c -1.26,-3.900001 -3.25,-9.160001 0.91,-12.050001 1.94,1.57 3.16,3.71 3.71,6.11 2.14,0.02 4.28,0.06 6.42,0.18 -0.27,5.480001 -6.97,5.470001 -11.04,5.760001 z"
     id="path92" />
  <path
     fill="#b1b3af"
     stroke="#b1b3af"
     stroke-width="0.09375"
     opacity="1"
     d="m 38.076881,92.597359 c 6.71,0.11 13.39,-1.48 20.1,-0.51 -0.83,4.14 -2.14,8.170001 -4.06,11.940001 0.37,-2.77 1.21,-5.430001 2.22,-8.020001 -4.68,0.41 -9.36,0.9 -14.06,0.88 -0.27,-1.21 -0.54,-2.42 -0.81,-3.62 -1.13,-0.23 -2.26,-0.45 -3.39,-0.67 z"
     id="path94" />
  <path
     fill="#b7bcbc"
     stroke="#b7bcbc"
     stroke-width="0.09375"
     opacity="1"
     d="m 95.276881,94.987359 c 0.62,0.32 1.87,0.95 2.5,1.26 -0.21,2.34 -1.06,4.570001 -1.71,6.820001 -0.68,-0.03 -2.06,-0.08 -2.74,-0.1 0.43,-2.71 1.13,-5.360001 1.95,-7.980001 z"
     id="path96" />
  <path
     fill="#b6beb6"
     stroke="#b6beb6"
     stroke-width="0.09375"
     opacity="1"
     d="m 58.556881,103.70736 c 1.05,-2.84 0.63,-8.090001 5.07,-7.420001 -0.67,2.5 -1.48,4.970001 -1.95,7.520001 -0.78,-0.02 -2.34,-0.07 -3.12,-0.1 z"
     id="path98" />
  <path
     fill="#babbba"
     stroke="#babbba"
     stroke-width="0.09375"
     opacity="1"
     d="m 56.056881,114.18736 c -1.03,-3.1 0.05,-8.26 3.95,-8.64 l -0.29,1.55 c -0.34,1.75 -0.71,3.5 -1,5.26 -0.67,0.46 -1.99,1.37 -2.66,1.83 z"
     id="path100" />
  <path
     fill="#bbbcbf"
     stroke="#bbbcbf"
     stroke-width="0.09375"
     opacity="1"
     d="m 92.316881,105.57736 c 0.69,0.06 2.08,0.19 2.77,0.25 -0.9,2.51 -0.26,7.35 -3.78,7.52 -1.73,-2.34 0.6,-5.26 1.01,-7.77 z"
     id="path102" />
  <path
     fill="#f48583"
     stroke="#f48583"
     stroke-width="0.09375"
     opacity="1"
     d="m 65.476881,113.40736 c 5.56,-1.07 11.69,-2.9 17.07,-0.22 2.53,1.06 3.23,4.63 1.19,6.48 -2.29,2.41 -5.89,1.98 -8.89,2.22 0.22,3.78 -0.17,7.6 -1.66,11.11 -1.23,0.01 -2.47,0.03 -3.7,0.07 -3.99,-5.76 -4.29,-12.9 -4.01,-19.66 z"
     id="path104" />
  <path
     fill="#babcbc"
     stroke="#babcbc"
     stroke-width="0.09375"
     opacity="1"
     d="m 53.866881,115.82736 c 0.59,-0.01 1.77,-0.02 2.36,-0.03 -0.3,2.42 -0.87,4.8 -1.59,7.13 -1.06,0.04 -2.13,0.08 -3.19,0.12 0.66,-2.45 1.49,-4.86 2.42,-7.22 z"
     id="path106" />
  <path
     fill="#bdbab9"
     stroke="#bdbab9"
     stroke-width="0.09375"
     opacity="1"
     d="m 87.456881,122.90736 c 0.96,-2.52 0.34,-7.3 3.79,-7.59 1.96,2.27 -0.56,5.32 -0.99,7.84 -0.7,-0.06 -2.1,-0.18 -2.8,-0.25 z"
     id="path108" />
  <path
     fill="#b6bfb8"
     stroke="#b6bfb8"
     stroke-width="0.09375"
     opacity="1"
     d="m 50.056881,125.78736 c 1.02,0 2.03,0.01 3.05,0.03 -0.91,2.86 -0.44,7.88 -4.66,7.58 0.31,-2.59 0.92,-5.11 1.61,-7.61 z"
     id="path110" />
  <path
     fill="#b9bab6"
     stroke="#b9bab6"
     stroke-width="0.09375"
     opacity="1"
     d="m 84.986881,133.34736 c -0.58,-2.98 0.15,-8.39 4.24,-7.85 -0.88,2.72 -0.37,7.85 -4.24,7.85 z"
     id="path112" />
  <path
     fill="#b8bbba"
     stroke="#b8bbba"
     stroke-width="0.09375"
     opacity="1"
     d="m 48.656881,135.65736 c 2.76,0.02 5.18,1.59 7.72,2.47 -0.41,3.9 -4.49,1.88 -6.62,0.65 -1.25,-0.53 -1.4,-1.96 -1.1,-3.12 z"
     id="path114" />
  <path
     fill="#beb9bb"
     stroke="#beb9bb"
     stroke-width="0.09375"
     opacity="1"
     d="m 78.396881,139.57736 c 2.52,-1.53 4.74,-3.86 7.81,-4.21 -0.03,3.72 -4.85,8.01 -7.81,4.21 z"
     id="path116" />
  <path
     fill="#babdbc"
     stroke="#babdbc"
     stroke-width="0.09375"
     opacity="1"
     d="m 58.666881,138.52736 c 2.83,0.62 7.81,-0.92 8.09,3.32 -2.74,0.16 -5.48,-0.07 -8.18,-0.53 0.02,-0.7 0.07,-2.09 0.09,-2.79 z"
     id="path118" />
  <path
     fill="#b8bcb8"
     stroke="#b8bcb8"
     stroke-width="0.09375"
     opacity="1"
     d="m 69.116881,139.16736 c 2.57,0.01 5.15,0.03 7.73,0.14 -0.01,0.65 -0.03,1.95 -0.03,2.6 -2.72,0.16 -5.44,0.21 -8.15,0.14 0.14,-0.96 0.29,-1.92 0.45,-2.88 z"
     id="path120" />
</svg>
