<?xml version="1.0" encoding="UTF-8"?>
<svg id="Layer_1" enable-background="new 0 0 35 60" version="1.1" viewBox="0 0 35 60" xml:space="preserve" xmlns="http://www.w3.org/2000/svg"><g id="icon" transform="translate(-46.5,-34)"><path id="base" d="m77.5 94h-27c-2.2 0-4-1.8-4-4v-52c0-2.2 1.8-4 4-4h27c2.2 0 4 1.8 4 4v52c0 2.2-1.8 4-4 4z" fill="#22313f"/><rect id="screen" x="49.5" y="43" width="29" height="42" fill="#2196f3"/><circle id="nav" cx="63.9" cy="89.8" r="2" fill="#b3b3b3"/><path id="speaker" d="m68 39.5h-8c-0.5 0-1-0.4-1-1 0-0.5 0.5-1 1-1h8c0.6 0 1 0.5 1 1 0 0.6-0.4 1-1 1z" fill="#b3b3b3"/></g></svg>
